<?xml version="1.0" encoding="utf-8" standalone="no"?>
<!DOCTYPE svg PUBLIC "-//W3C//DTD SVG 1.1//EN"
  "http://www.w3.org/Graphics/SVG/1.1/DTD/svg11.dtd">
<svg xmlns:xlink="http://www.w3.org/1999/xlink" width="413.4625pt" height="219.634844pt" viewBox="0 0 413.4625 219.634844" xmlns="http://www.w3.org/2000/svg" version="1.1">
 <metadata>
  <rdf:RDF xmlns:dc="http://purl.org/dc/elements/1.1/" xmlns:cc="http://creativecommons.org/ns#" xmlns:rdf="http://www.w3.org/1999/02/22-rdf-syntax-ns#">
   <cc:Work>
    <dc:type rdf:resource="http://purl.org/dc/dcmitype/StillImage"/>
    <dc:date>2026-09-12T10:30:02.053312</dc:date>
    <dc:format>image/svg+xml</dc:format>
    <dc:creator>
     <cc:Agent>
      <dc:title>Matplotlib v3.10.3, https://matplotlib.org/</dc:title>
     </cc:Agent>
    </dc:creator>
   </cc:Work>
  </rdf:RDF>
 </metadata>
 <defs>
  <style type="text/css">*{stroke-linejoin: round; stroke-linecap: butt}</style>
 </defs>
 <g id="figure_1">
  <g id="patch_1">
   <path d="M 0 219.634844 
L 413.4625 219.634844 
L 413.4625 0 
L 0 0 
z
" style="fill: #ffffff"/>
  </g>
  <g id="axes_1">
   <g id="patch_2">
    <path d="M 52.375 190.917656 
L 387.175 190.917656 
L 387.175 24.597656 
L 52.375 24.597656 
z
" style="fill: #ffffff"/>
   </g>
   <g id="matplotlib.axis_1">
    <g id="xtick_1">
     <g id="line2d_1">
      <defs>
       <path id="m039ca6652c" d="M 0 0 
L 0 3.5 
" style="stroke: #000000; stroke-width: 0.8"/>
      </defs>
      <g>
       <use xlink:href="#m039ca6652c" x="52.375" y="190.917656" style="stroke: #000000; stroke-width: 0.8"/>
      </g>
     </g>
     <g id="text_1">
      <!-- 0.0 -->
      <g transform="translate(44.423437 205.516094) scale(0.1 -0.1)">
       <defs>
        <path id="DejaVuSans-30" d="M 2034 4250 
Q 1547 4250 1301 3770 
Q 1056 3291 1056 2328 
Q 1056 1369 1301 889 
Q 1547 409 2034 409 
Q 2525 409 2770 889 
Q 3016 1369 3016 2328 
Q 3016 3291 2770 3770 
Q 2525 4250 2034 4250 
z
M 2034 4750 
Q 2819 4750 3233 4129 
Q 3647 3509 3647 2328 
Q 3647 1150 3233 529 
Q 2819 -91 2034 -91 
Q 1250 -91 836 529 
Q 422 1150 422 2328 
Q 422 3509 836 4129 
Q 1250 4750 2034 4750 
z
" transform="scale(0.015625)"/>
        <path id="DejaVuSans-2e" d="M 684 794 
L 1344 794 
L 1344 0 
L 684 0 
L 684 794 
z
" transform="scale(0.015625)"/>
       </defs>
       <use xlink:href="#DejaVuSans-30"/>
       <use xlink:href="#DejaVuSans-2e" transform="translate(63.623047 0)"/>
       <use xlink:href="#DejaVuSans-30" transform="translate(95.410156 0)"/>
      </g>
     </g>
    </g>
    <g id="xtick_2">
     <g id="line2d_2">
      <g>
       <use xlink:href="#m039ca6652c" x="119.335" y="190.917656" style="stroke: #000000; stroke-width: 0.8"/>
      </g>
     </g>
     <g id="text_2">
      <!-- 0.2 -->
      <g transform="translate(111.383438 205.516094) scale(0.1 -0.1)">
       <defs>
        <path id="DejaVuSans-32" d="M 1228 531 
L 3431 531 
L 3431 0 
L 469 0 
L 469 531 
Q 828 903 1448 1529 
Q 2069 2156 2228 2338 
Q 2531 2678 2651 2914 
Q 2772 3150 2772 3378 
Q 2772 3750 2511 3984 
Q 2250 4219 1831 4219 
Q 1534 4219 1204 4116 
Q 875 4013 500 3803 
L 500 4441 
Q 881 4594 1212 4672 
Q 1544 4750 1819 4750 
Q 2544 4750 2975 4387 
Q 3406 4025 3406 3419 
Q 3406 3131 3298 2873 
Q 3191 2616 2906 2266 
Q 2828 2175 2409 1742 
Q 1991 1309 1228 531 
z
" transform="scale(0.015625)"/>
       </defs>
       <use xlink:href="#DejaVuSans-30"/>
       <use xlink:href="#DejaVuSans-2e" transform="translate(63.623047 0)"/>
       <use xlink:href="#DejaVuSans-32" transform="translate(95.410156 0)"/>
      </g>
     </g>
    </g>
    <g id="xtick_3">
     <g id="line2d_3">
      <g>
       <use xlink:href="#m039ca6652c" x="186.295" y="190.917656" style="stroke: #000000; stroke-width: 0.8"/>
      </g>
     </g>
     <g id="text_3">
      <!-- 0.4 -->
      <g transform="translate(178.343438 205.516094) scale(0.1 -0.1)">
       <defs>
        <path id="DejaVuSans-34" d="M 2419 4116 
L 825 1625 
L 2419 1625 
L 2419 4116 
z
M 2253 4666 
L 3047 4666 
L 3047 1625 
L 3713 1625 
L 3713 1100 
L 3047 1100 
L 3047 0 
L 2419 0 
L 2419 1100 
L 313 1100 
L 313 1709 
L 2253 4666 
z
" transform="scale(0.015625)"/>
       </defs>
       <use xlink:href="#DejaVuSans-30"/>
       <use xlink:href="#DejaVuSans-2e" transform="translate(63.623047 0)"/>
       <use xlink:href="#DejaVuSans-34" transform="translate(95.410156 0)"/>
      </g>
     </g>
    </g>
    <g id="xtick_4">
     <g id="line2d_4">
      <g>
       <use xlink:href="#m039ca6652c" x="253.255" y="190.917656" style="stroke: #000000; stroke-width: 0.8"/>
      </g>
     </g>
     <g id="text_4">
      <!-- 0.6 -->
      <g transform="translate(245.303438 205.516094) scale(0.1 -0.1)">
       <defs>
        <path id="DejaVuSans-36" d="M 2113 2584 
Q 1688 2584 1439 2293 
Q 1191 2003 1191 1497 
Q 1191 994 1439 701 
Q 1688 409 2113 409 
Q 2538 409 2786 701 
Q 3034 994 3034 1497 
Q 3034 2003 2786 2293 
Q 2538 2584 2113 2584 
z
M 3366 4563 
L 3366 3988 
Q 3128 4100 2886 4159 
Q 2644 4219 2406 4219 
Q 1781 4219 1451 3797 
Q 1122 3375 1075 2522 
Q 1259 2794 1537 2939 
Q 1816 3084 2150 3084 
Q 2853 3084 3261 2657 
Q 3669 2231 3669 1497 
Q 3669 778 3244 343 
Q 2819 -91 2113 -91 
Q 1303 -91 875 529 
Q 447 1150 447 2328 
Q 447 3434 972 4092 
Q 1497 4750 2381 4750 
Q 2619 4750 2861 4703 
Q 3103 4656 3366 4563 
z
" transform="scale(0.015625)"/>
       </defs>
       <use xlink:href="#DejaVuSans-30"/>
       <use xlink:href="#DejaVuSans-2e" transform="translate(63.623047 0)"/>
       <use xlink:href="#DejaVuSans-36" transform="translate(95.410156 0)"/>
      </g>
     </g>
    </g>
    <g id="xtick_5">
     <g id="line2d_5">
      <g>
       <use xlink:href="#m039ca6652c" x="320.215" y="190.917656" style="stroke: #000000; stroke-width: 0.8"/>
      </g>
     </g>
     <g id="text_5">
      <!-- 0.8 -->
      <g transform="translate(312.263438 205.516094) scale(0.1 -0.1)">
       <defs>
        <path id="DejaVuSans-38" d="M 2034 2216 
Q 1584 2216 1326 1975 
Q 1069 1734 1069 1313 
Q 1069 891 1326 650 
Q 1584 409 2034 409 
Q 2484 409 2743 651 
Q 3003 894 3003 1313 
Q 3003 1734 2745 1975 
Q 2488 2216 2034 2216 
z
M 1403 2484 
Q 997 2584 770 2862 
Q 544 3141 544 3541 
Q 544 4100 942 4425 
Q 1341 4750 2034 4750 
Q 2731 4750 3128 4425 
Q 3525 4100 3525 3541 
Q 3525 3141 3298 2862 
Q 3072 2584 2669 2484 
Q 3125 2378 3379 2068 
Q 3634 1759 3634 1313 
Q 3634 634 3220 271 
Q 2806 -91 2034 -91 
Q 1263 -91 848 271 
Q 434 634 434 1313 
Q 434 1759 690 2068 
Q 947 2378 1403 2484 
z
M 1172 3481 
Q 1172 3119 1398 2916 
Q 1625 2713 2034 2713 
Q 2441 2713 2670 2916 
Q 2900 3119 2900 3481 
Q 2900 3844 2670 4047 
Q 2441 4250 2034 4250 
Q 1625 4250 1398 4047 
Q 1172 3844 1172 3481 
z
" transform="scale(0.015625)"/>
       </defs>
       <use xlink:href="#DejaVuSans-30"/>
       <use xlink:href="#DejaVuSans-2e" transform="translate(63.623047 0)"/>
       <use xlink:href="#DejaVuSans-38" transform="translate(95.410156 0)"/>
      </g>
     </g>
    </g>
    <g id="xtick_6">
     <g id="line2d_6">
      <g>
       <use xlink:href="#m039ca6652c" x="387.175" y="190.917656" style="stroke: #000000; stroke-width: 0.8"/>
      </g>
     </g>
     <g id="text_6">
      <!-- 1.0 -->
      <g transform="translate(379.223437 205.516094) scale(0.1 -0.1)">
       <defs>
        <path id="DejaVuSans-31" d="M 794 531 
L 1825 531 
L 1825 4091 
L 703 3866 
L 703 4441 
L 1819 4666 
L 2450 4666 
L 2450 531 
L 3481 531 
L 3481 0 
L 794 0 
L 794 531 
z
" transform="scale(0.015625)"/>
       </defs>
       <use xlink:href="#DejaVuSans-31"/>
       <use xlink:href="#DejaVuSans-2e" transform="translate(63.623047 0)"/>
       <use xlink:href="#DejaVuSans-30" transform="translate(95.410156 0)"/>
      </g>
     </g>
    </g>
   </g>
   <g id="matplotlib.axis_2">
    <g id="ytick_1">
     <g id="line2d_7">
      <defs>
       <path id="mb6310c7506" d="M 0 0 
L -3.5 0 
" style="stroke: #000000; stroke-width: 0.8"/>
      </defs>
      <g>
       <use xlink:href="#mb6310c7506" x="52.375" y="190.917656" style="stroke: #000000; stroke-width: 0.8"/>
      </g>
     </g>
     <g id="text_7">
      <!-- 0.0 -->
      <g transform="translate(29.471875 194.716875) scale(0.1 -0.1)">
       <use xlink:href="#DejaVuSans-30"/>
       <use xlink:href="#DejaVuSans-2e" transform="translate(63.623047 0)"/>
       <use xlink:href="#DejaVuSans-30" transform="translate(95.410156 0)"/>
      </g>
     </g>
    </g>
    <g id="ytick_2">
     <g id="line2d_8">
      <g>
       <use xlink:href="#mb6310c7506" x="52.375" y="157.653656" style="stroke: #000000; stroke-width: 0.8"/>
      </g>
     </g>
     <g id="text_8">
      <!-- 0.2 -->
      <g transform="translate(29.471875 161.452875) scale(0.1 -0.1)">
       <use xlink:href="#DejaVuSans-30"/>
       <use xlink:href="#DejaVuSans-2e" transform="translate(63.623047 0)"/>
       <use xlink:href="#DejaVuSans-32" transform="translate(95.410156 0)"/>
      </g>
     </g>
    </g>
    <g id="ytick_3">
     <g id="line2d_9">
      <g>
       <use xlink:href="#mb6310c7506" x="52.375" y="124.389656" style="stroke: #000000; stroke-width: 0.8"/>
      </g>
     </g>
     <g id="text_9">
      <!-- 0.4 -->
      <g transform="translate(29.471875 128.188875) scale(0.1 -0.1)">
       <use xlink:href="#DejaVuSans-30"/>
       <use xlink:href="#DejaVuSans-2e" transform="translate(63.623047 0)"/>
       <use xlink:href="#DejaVuSans-34" transform="translate(95.410156 0)"/>
      </g>
     </g>
    </g>
    <g id="ytick_4">
     <g id="line2d_10">
      <g>
       <use xlink:href="#mb6310c7506" x="52.375" y="91.125656" style="stroke: #000000; stroke-width: 0.8"/>
      </g>
     </g>
     <g id="text_10">
      <!-- 0.6 -->
      <g transform="translate(29.471875 94.924875) scale(0.1 -0.1)">
       <use xlink:href="#DejaVuSans-30"/>
       <use xlink:href="#DejaVuSans-2e" transform="translate(63.623047 0)"/>
       <use xlink:href="#DejaVuSans-36" transform="translate(95.410156 0)"/>
      </g>
     </g>
    </g>
    <g id="ytick_5">
     <g id="line2d_11">
      <g>
       <use xlink:href="#mb6310c7506" x="52.375" y="57.861656" style="stroke: #000000; stroke-width: 0.8"/>
      </g>
     </g>
     <g id="text_11">
      <!-- 0.8 -->
      <g transform="translate(29.471875 61.660875) scale(0.1 -0.1)">
       <use xlink:href="#DejaVuSans-30"/>
       <use xlink:href="#DejaVuSans-2e" transform="translate(63.623047 0)"/>
       <use xlink:href="#DejaVuSans-38" transform="translate(95.410156 0)"/>
      </g>
     </g>
    </g>
    <g id="ytick_6">
     <g id="line2d_12">
      <g>
       <use xlink:href="#mb6310c7506" x="52.375" y="24.597656" style="stroke: #000000; stroke-width: 0.8"/>
      </g>
     </g>
     <g id="text_12">
      <!-- 1.0 -->
      <g transform="translate(29.471875 28.396875) scale(0.1 -0.1)">
       <use xlink:href="#DejaVuSans-31"/>
       <use xlink:href="#DejaVuSans-2e" transform="translate(63.623047 0)"/>
       <use xlink:href="#DejaVuSans-30" transform="translate(95.410156 0)"/>
      </g>
     </g>
    </g>
   </g>
   <g id="patch_3">
    <path d="M 52.375 190.917656 
L 52.375 24.597656 
" style="fill: none; stroke: #000000; stroke-width: 0.8; stroke-linejoin: miter; stroke-linecap: square"/>
   </g>
   <g id="patch_4">
    <path d="M 387.175 190.917656 
L 387.175 24.597656 
" style="fill: none; stroke: #000000; stroke-width: 0.8; stroke-linejoin: miter; stroke-linecap: square"/>
   </g>
   <g id="patch_5">
    <path d="M 52.375 190.917656 
L 387.175 190.917656 
" style="fill: none; stroke: #000000; stroke-width: 0.8; stroke-linejoin: miter; stroke-linecap: square"/>
   </g>
   <g id="patch_6">
    <path d="M 52.375 24.597656 
L 387.175 24.597656 
" style="fill: none; stroke: #000000; stroke-width: 0.8; stroke-linejoin: miter; stroke-linecap: square"/>
   </g>
  </g>
  <g id="axes_2">
   <g id="patch_7">
    <path d="M 52.375 91.125656 
L 211.803571 91.125656 
L 211.803571 24.597656 
L 52.375 24.597656 
z
" style="fill: #ffffff"/>
   </g>
   <g id="patch_8">
    <path d="M 49.422619 91.125656 
L 55.327381 91.125656 
L 55.327381 91.125656 
L 49.422619 91.125656 
z
" clip-path="url(#p73299ed45f)" style="fill: #0000cd"/>
   </g>
   <g id="patch_9">
    <path d="M 55.327381 91.125656 
L 61.232143 91.125656 
L 61.232143 91.125656 
L 55.327381 91.125656 
z
" clip-path="url(#p73299ed45f)" style="fill: #0000cd"/>
   </g>
   <g id="patch_10">
    <path d="M 61.232143 91.125656 
L 67.136905 91.125656 
L 67.136905 60.422931 
L 61.232143 60.422931 
z
" clip-path="url(#p73299ed45f)" style="fill: #0000cd"/>
   </g>
   <g id="patch_11">
    <path d="M 67.136905 91.125656 
L 73.041667 91.125656 
L 73.041667 91.125656 
L 67.136905 91.125656 
z
" clip-path="url(#p73299ed45f)" style="fill: #0000cd"/>
   </g>
   <g id="patch_12">
    <path d="M 73.041667 91.125656 
L 78.946429 91.125656 
L 78.946429 81.434345 
L 73.041667 81.434345 
z
" clip-path="url(#p73299ed45f)" style="fill: #0000cd"/>
   </g>
   <g id="patch_13">
    <path d="M 78.946429 91.125656 
L 84.85119 91.125656 
L 84.85119 91.125656 
L 78.946429 91.125656 
z
" clip-path="url(#p73299ed45f)" style="fill: #0000cd"/>
   </g>
   <g id="patch_14">
    <path d="M 84.85119 91.125656 
L 90.755952 91.125656 
L 90.755952 91.125656 
L 84.85119 91.125656 
z
" clip-path="url(#p73299ed45f)" style="fill: #0000cd"/>
   </g>
   <g id="patch_15">
    <path d="M 90.755952 91.125656 
L 96.660714 91.125656 
L 96.660714 91.125656 
L 90.755952 91.125656 
z
" clip-path="url(#p73299ed45f)" style="fill: #0000cd"/>
   </g>
   <g id="patch_16">
    <path d="M 96.660714 91.125656 
L 102.565476 91.125656 
L 102.565476 91.125656 
L 96.660714 91.125656 
z
" clip-path="url(#p73299ed45f)" style="fill: #0000cd"/>
   </g>
   <g id="patch_17">
    <path d="M 102.565476 91.125656 
L 108.470238 91.125656 
L 108.470238 91.125656 
L 102.565476 91.125656 
z
" clip-path="url(#p73299ed45f)" style="fill: #0000cd"/>
   </g>
   <g id="patch_18">
    <path d="M 108.470238 91.125656 
L 114.375 91.125656 
L 114.375 91.125656 
L 108.470238 91.125656 
z
" clip-path="url(#p73299ed45f)" style="fill: #0000cd"/>
   </g>
   <g id="patch_19">
    <path d="M 114.375 91.125656 
L 120.279762 91.125656 
L 120.279762 91.125656 
L 114.375 91.125656 
z
" clip-path="url(#p73299ed45f)" style="fill: #0000cd"/>
   </g>
   <g id="patch_20">
    <path d="M 120.279762 91.125656 
L 126.184524 91.125656 
L 126.184524 91.125656 
L 120.279762 91.125656 
z
" clip-path="url(#p73299ed45f)" style="fill: #0000cd"/>
   </g>
   <g id="patch_21">
    <path d="M 126.184524 91.125656 
L 132.089286 91.125656 
L 132.089286 91.125656 
L 126.184524 91.125656 
z
" clip-path="url(#p73299ed45f)" style="fill: #0000cd"/>
   </g>
   <g id="patch_22">
    <path d="M 132.089286 91.125656 
L 137.994048 91.125656 
L 137.994048 91.125656 
L 132.089286 91.125656 
z
" clip-path="url(#p73299ed45f)" style="fill: #0000cd"/>
   </g>
   <g id="patch_23">
    <path d="M 137.994048 91.125656 
L 143.89881 91.125656 
L 143.89881 91.125656 
L 137.994048 91.125656 
z
" clip-path="url(#p73299ed45f)" style="fill: #0000cd"/>
   </g>
   <g id="patch_24">
    <path d="M 143.89881 91.125656 
L 149.803571 91.125656 
L 149.803571 91.125656 
L 143.89881 91.125656 
z
" clip-path="url(#p73299ed45f)" style="fill: #0000cd"/>
   </g>
   <g id="patch_25">
    <path d="M 149.803571 91.125656 
L 155.708333 91.125656 
L 155.708333 91.125656 
L 149.803571 91.125656 
z
" clip-path="url(#p73299ed45f)" style="fill: #0000cd"/>
   </g>
   <g id="patch_26">
    <path d="M 155.708333 91.125656 
L 161.613095 91.125656 
L 161.613095 91.125656 
L 155.708333 91.125656 
z
" clip-path="url(#p73299ed45f)" style="fill: #0000cd"/>
   </g>
   <g id="patch_27">
    <path d="M 161.613095 91.125656 
L 167.517857 91.125656 
L 167.517857 91.125656 
L 161.613095 91.125656 
z
" clip-path="url(#p73299ed45f)" style="fill: #0000cd"/>
   </g>
   <g id="patch_28">
    <path d="M 167.517857 91.125656 
L 173.422619 91.125656 
L 173.422619 91.125656 
L 167.517857 91.125656 
z
" clip-path="url(#p73299ed45f)" style="fill: #0000cd"/>
   </g>
   <g id="patch_29">
    <path d="M 173.422619 91.125656 
L 179.327381 91.125656 
L 179.327381 91.125656 
L 173.422619 91.125656 
z
" clip-path="url(#p73299ed45f)" style="fill: #0000cd"/>
   </g>
   <g id="patch_30">
    <path d="M 179.327381 91.125656 
L 185.232143 91.125656 
L 185.232143 91.125656 
L 179.327381 91.125656 
z
" clip-path="url(#p73299ed45f)" style="fill: #0000cd"/>
   </g>
   <g id="patch_31">
    <path d="M 185.232143 91.125656 
L 191.136905 91.125656 
L 191.136905 91.125656 
L 185.232143 91.125656 
z
" clip-path="url(#p73299ed45f)" style="fill: #0000cd"/>
   </g>
   <g id="patch_32">
    <path d="M 191.136905 91.125656 
L 197.041667 91.125656 
L 197.041667 91.125656 
L 191.136905 91.125656 
z
" clip-path="url(#p73299ed45f)" style="fill: #0000cd"/>
   </g>
   <g id="patch_33">
    <path d="M 197.041667 91.125656 
L 202.946429 91.125656 
L 202.946429 91.125656 
L 197.041667 91.125656 
z
" clip-path="url(#p73299ed45f)" style="fill: #0000cd"/>
   </g>
   <g id="patch_34">
    <path d="M 202.946429 91.125656 
L 208.85119 91.125656 
L 208.85119 91.125656 
L 202.946429 91.125656 
z
" clip-path="url(#p73299ed45f)" style="fill: #0000cd"/>
   </g>
   <g id="patch_35">
    <path d="M 208.85119 91.125656 
L 214.755952 91.125656 
L 214.755952 91.125656 
L 208.85119 91.125656 
z
" clip-path="url(#p73299ed45f)" style="fill: #0000cd"/>
   </g>
   <g id="patch_36">
    <path d="M 49.422619 91.125656 
L 55.327381 91.125656 
L 55.327381 91.125656 
L 49.422619 91.125656 
z
" clip-path="url(#p73299ed45f)" style="fill: #8fc73e"/>
   </g>
   <g id="patch_37">
    <path d="M 55.327381 91.125656 
L 61.232143 91.125656 
L 61.232143 91.125656 
L 55.327381 91.125656 
z
" clip-path="url(#p73299ed45f)" style="fill: #8fc73e"/>
   </g>
   <g id="patch_38">
    <path d="M 61.232143 60.422931 
L 67.136905 60.422931 
L 67.136905 39.167199 
L 61.232143 39.167199 
z
" clip-path="url(#p73299ed45f)" style="fill: #8fc73e"/>
   </g>
   <g id="patch_39">
    <path d="M 67.136905 91.125656 
L 73.041667 91.125656 
L 73.041667 91.125656 
L 67.136905 91.125656 
z
" clip-path="url(#p73299ed45f)" style="fill: #8fc73e"/>
   </g>
   <g id="patch_40">
    <path d="M 73.041667 81.434345 
L 78.946429 81.434345 
L 78.946429 81.434345 
L 73.041667 81.434345 
z
" clip-path="url(#p73299ed45f)" style="fill: #8fc73e"/>
   </g>
   <g id="patch_41">
    <path d="M 78.946429 91.125656 
L 84.85119 91.125656 
L 84.85119 91.125656 
L 78.946429 91.125656 
z
" clip-path="url(#p73299ed45f)" style="fill: #8fc73e"/>
   </g>
   <g id="patch_42">
    <path d="M 84.85119 91.125656 
L 90.755952 91.125656 
L 90.755952 91.125656 
L 84.85119 91.125656 
z
" clip-path="url(#p73299ed45f)" style="fill: #8fc73e"/>
   </g>
   <g id="patch_43">
    <path d="M 90.755952 91.125656 
L 96.660714 91.125656 
L 96.660714 91.125656 
L 90.755952 91.125656 
z
" clip-path="url(#p73299ed45f)" style="fill: #8fc73e"/>
   </g>
   <g id="patch_44">
    <path d="M 96.660714 91.125656 
L 102.565476 91.125656 
L 102.565476 91.125656 
L 96.660714 91.125656 
z
" clip-path="url(#p73299ed45f)" style="fill: #8fc73e"/>
   </g>
   <g id="patch_45">
    <path d="M 102.565476 91.125656 
L 108.470238 91.125656 
L 108.470238 91.125656 
L 102.565476 91.125656 
z
" clip-path="url(#p73299ed45f)" style="fill: #8fc73e"/>
   </g>
   <g id="patch_46">
    <path d="M 108.470238 91.125656 
L 114.375 91.125656 
L 114.375 91.125656 
L 108.470238 91.125656 
z
" clip-path="url(#p73299ed45f)" style="fill: #8fc73e"/>
   </g>
   <g id="patch_47">
    <path d="M 114.375 91.125656 
L 120.279762 91.125656 
L 120.279762 91.125656 
L 114.375 91.125656 
z
" clip-path="url(#p73299ed45f)" style="fill: #8fc73e"/>
   </g>
   <g id="patch_48">
    <path d="M 120.279762 91.125656 
L 126.184524 91.125656 
L 126.184524 91.125656 
L 120.279762 91.125656 
z
" clip-path="url(#p73299ed45f)" style="fill: #8fc73e"/>
   </g>
   <g id="patch_49">
    <path d="M 126.184524 91.125656 
L 132.089286 91.125656 
L 132.089286 91.125656 
L 126.184524 91.125656 
z
" clip-path="url(#p73299ed45f)" style="fill: #8fc73e"/>
   </g>
   <g id="patch_50">
    <path d="M 132.089286 91.125656 
L 137.994048 91.125656 
L 137.994048 91.125656 
L 132.089286 91.125656 
z
" clip-path="url(#p73299ed45f)" style="fill: #8fc73e"/>
   </g>
   <g id="patch_51">
    <path d="M 137.994048 91.125656 
L 143.89881 91.125656 
L 143.89881 91.125656 
L 137.994048 91.125656 
z
" clip-path="url(#p73299ed45f)" style="fill: #8fc73e"/>
   </g>
   <g id="patch_52">
    <path d="M 143.89881 91.125656 
L 149.803571 91.125656 
L 149.803571 91.125656 
L 143.89881 91.125656 
z
" clip-path="url(#p73299ed45f)" style="fill: #8fc73e"/>
   </g>
   <g id="patch_53">
    <path d="M 149.803571 91.125656 
L 155.708333 91.125656 
L 155.708333 91.125656 
L 149.803571 91.125656 
z
" clip-path="url(#p73299ed45f)" style="fill: #8fc73e"/>
   </g>
   <g id="patch_54">
    <path d="M 155.708333 91.125656 
L 161.613095 91.125656 
L 161.613095 91.125656 
L 155.708333 91.125656 
z
" clip-path="url(#p73299ed45f)" style="fill: #8fc73e"/>
   </g>
   <g id="patch_55">
    <path d="M 161.613095 91.125656 
L 167.517857 91.125656 
L 167.517857 91.125656 
L 161.613095 91.125656 
z
" clip-path="url(#p73299ed45f)" style="fill: #8fc73e"/>
   </g>
   <g id="patch_56">
    <path d="M 167.517857 91.125656 
L 173.422619 91.125656 
L 173.422619 91.125656 
L 167.517857 91.125656 
z
" clip-path="url(#p73299ed45f)" style="fill: #8fc73e"/>
   </g>
   <g id="patch_57">
    <path d="M 173.422619 91.125656 
L 179.327381 91.125656 
L 179.327381 91.125656 
L 173.422619 91.125656 
z
" clip-path="url(#p73299ed45f)" style="fill: #8fc73e"/>
   </g>
   <g id="patch_58">
    <path d="M 179.327381 91.125656 
L 185.232143 91.125656 
L 185.232143 91.125656 
L 179.327381 91.125656 
z
" clip-path="url(#p73299ed45f)" style="fill: #8fc73e"/>
   </g>
   <g id="patch_59">
    <path d="M 185.232143 91.125656 
L 191.136905 91.125656 
L 191.136905 91.125656 
L 185.232143 91.125656 
z
" clip-path="url(#p73299ed45f)" style="fill: #8fc73e"/>
   </g>
   <g id="patch_60">
    <path d="M 191.136905 91.125656 
L 197.041667 91.125656 
L 197.041667 91.125656 
L 191.136905 91.125656 
z
" clip-path="url(#p73299ed45f)" style="fill: #8fc73e"/>
   </g>
   <g id="patch_61">
    <path d="M 197.041667 91.125656 
L 202.946429 91.125656 
L 202.946429 91.125656 
L 197.041667 91.125656 
z
" clip-path="url(#p73299ed45f)" style="fill: #8fc73e"/>
   </g>
   <g id="patch_62">
    <path d="M 202.946429 91.125656 
L 208.85119 91.125656 
L 208.85119 91.125656 
L 202.946429 91.125656 
z
" clip-path="url(#p73299ed45f)" style="fill: #8fc73e"/>
   </g>
   <g id="patch_63">
    <path d="M 208.85119 91.125656 
L 214.755952 91.125656 
L 214.755952 91.125656 
L 208.85119 91.125656 
z
" clip-path="url(#p73299ed45f)" style="fill: #8fc73e"/>
   </g>
   <g id="patch_64">
    <path d="M 49.422619 91.125656 
L 55.327381 91.125656 
L 55.327381 91.125656 
L 49.422619 91.125656 
z
" clip-path="url(#p73299ed45f)" style="fill: #fbaa1b"/>
   </g>
   <g id="patch_65">
    <path d="M 55.327381 91.125656 
L 61.232143 91.125656 
L 61.232143 90.930201 
L 55.327381 90.930201 
z
" clip-path="url(#p73299ed45f)" style="fill: #fbaa1b"/>
   </g>
   <g id="patch_66">
    <path d="M 61.232143 39.167199 
L 67.136905 39.167199 
L 67.136905 27.765656 
L 61.232143 27.765656 
z
" clip-path="url(#p73299ed45f)" style="fill: #fbaa1b"/>
   </g>
   <g id="patch_67">
    <path d="M 67.136905 91.125656 
L 73.041667 91.125656 
L 73.041667 75.000618 
L 67.136905 75.000618 
z
" clip-path="url(#p73299ed45f)" style="fill: #fbaa1b"/>
   </g>
   <g id="patch_68">
    <path d="M 73.041667 81.434345 
L 78.946429 81.434345 
L 78.946429 81.434345 
L 73.041667 81.434345 
z
" clip-path="url(#p73299ed45f)" style="fill: #fbaa1b"/>
   </g>
   <g id="patch_69">
    <path d="M 78.946429 91.125656 
L 84.85119 91.125656 
L 84.85119 91.125656 
L 78.946429 91.125656 
z
" clip-path="url(#p73299ed45f)" style="fill: #fbaa1b"/>
   </g>
   <g id="patch_70">
    <path d="M 84.85119 91.125656 
L 90.755952 91.125656 
L 90.755952 91.125656 
L 84.85119 91.125656 
z
" clip-path="url(#p73299ed45f)" style="fill: #fbaa1b"/>
   </g>
   <g id="patch_71">
    <path d="M 90.755952 91.125656 
L 96.660714 91.125656 
L 96.660714 91.125656 
L 90.755952 91.125656 
z
" clip-path="url(#p73299ed45f)" style="fill: #fbaa1b"/>
   </g>
   <g id="patch_72">
    <path d="M 96.660714 91.125656 
L 102.565476 91.125656 
L 102.565476 91.125656 
L 96.660714 91.125656 
z
" clip-path="url(#p73299ed45f)" style="fill: #fbaa1b"/>
   </g>
   <g id="patch_73">
    <path d="M 102.565476 91.125656 
L 108.470238 91.125656 
L 108.470238 91.125656 
L 102.565476 91.125656 
z
" clip-path="url(#p73299ed45f)" style="fill: #fbaa1b"/>
   </g>
   <g id="patch_74">
    <path d="M 108.470238 91.125656 
L 114.375 91.125656 
L 114.375 91.125656 
L 108.470238 91.125656 
z
" clip-path="url(#p73299ed45f)" style="fill: #fbaa1b"/>
   </g>
   <g id="patch_75">
    <path d="M 114.375 91.125656 
L 120.279762 91.125656 
L 120.279762 91.125656 
L 114.375 91.125656 
z
" clip-path="url(#p73299ed45f)" style="fill: #fbaa1b"/>
   </g>
   <g id="patch_76">
    <path d="M 120.279762 91.125656 
L 126.184524 91.125656 
L 126.184524 91.125656 
L 120.279762 91.125656 
z
" clip-path="url(#p73299ed45f)" style="fill: #fbaa1b"/>
   </g>
   <g id="patch_77">
    <path d="M 126.184524 91.125656 
L 132.089286 91.125656 
L 132.089286 91.125656 
L 126.184524 91.125656 
z
" clip-path="url(#p73299ed45f)" style="fill: #fbaa1b"/>
   </g>
   <g id="patch_78">
    <path d="M 132.089286 91.125656 
L 137.994048 91.125656 
L 137.994048 91.125656 
L 132.089286 91.125656 
z
" clip-path="url(#p73299ed45f)" style="fill: #fbaa1b"/>
   </g>
   <g id="patch_79">
    <path d="M 137.994048 91.125656 
L 143.89881 91.125656 
L 143.89881 91.125656 
L 137.994048 91.125656 
z
" clip-path="url(#p73299ed45f)" style="fill: #fbaa1b"/>
   </g>
   <g id="patch_80">
    <path d="M 143.89881 91.125656 
L 149.803571 91.125656 
L 149.803571 91.125656 
L 143.89881 91.125656 
z
" clip-path="url(#p73299ed45f)" style="fill: #fbaa1b"/>
   </g>
   <g id="patch_81">
    <path d="M 149.803571 91.125656 
L 155.708333 91.125656 
L 155.708333 91.125656 
L 149.803571 91.125656 
z
" clip-path="url(#p73299ed45f)" style="fill: #fbaa1b"/>
   </g>
   <g id="patch_82">
    <path d="M 155.708333 91.125656 
L 161.613095 91.125656 
L 161.613095 91.125656 
L 155.708333 91.125656 
z
" clip-path="url(#p73299ed45f)" style="fill: #fbaa1b"/>
   </g>
   <g id="patch_83">
    <path d="M 161.613095 91.125656 
L 167.517857 91.125656 
L 167.517857 91.125656 
L 161.613095 91.125656 
z
" clip-path="url(#p73299ed45f)" style="fill: #fbaa1b"/>
   </g>
   <g id="patch_84">
    <path d="M 167.517857 91.125656 
L 173.422619 91.125656 
L 173.422619 91.125656 
L 167.517857 91.125656 
z
" clip-path="url(#p73299ed45f)" style="fill: #fbaa1b"/>
   </g>
   <g id="patch_85">
    <path d="M 173.422619 91.125656 
L 179.327381 91.125656 
L 179.327381 91.125656 
L 173.422619 91.125656 
z
" clip-path="url(#p73299ed45f)" style="fill: #fbaa1b"/>
   </g>
   <g id="patch_86">
    <path d="M 179.327381 91.125656 
L 185.232143 91.125656 
L 185.232143 91.125656 
L 179.327381 91.125656 
z
" clip-path="url(#p73299ed45f)" style="fill: #fbaa1b"/>
   </g>
   <g id="patch_87">
    <path d="M 185.232143 91.125656 
L 191.136905 91.125656 
L 191.136905 91.125656 
L 185.232143 91.125656 
z
" clip-path="url(#p73299ed45f)" style="fill: #fbaa1b"/>
   </g>
   <g id="patch_88">
    <path d="M 191.136905 91.125656 
L 197.041667 91.125656 
L 197.041667 91.125656 
L 191.136905 91.125656 
z
" clip-path="url(#p73299ed45f)" style="fill: #fbaa1b"/>
   </g>
   <g id="patch_89">
    <path d="M 197.041667 91.125656 
L 202.946429 91.125656 
L 202.946429 91.125656 
L 197.041667 91.125656 
z
" clip-path="url(#p73299ed45f)" style="fill: #fbaa1b"/>
   </g>
   <g id="patch_90">
    <path d="M 202.946429 91.125656 
L 208.85119 91.125656 
L 208.85119 91.125656 
L 202.946429 91.125656 
z
" clip-path="url(#p73299ed45f)" style="fill: #fbaa1b"/>
   </g>
   <g id="patch_91">
    <path d="M 208.85119 91.125656 
L 214.755952 91.125656 
L 214.755952 91.125656 
L 208.85119 91.125656 
z
" clip-path="url(#p73299ed45f)" style="fill: #fbaa1b"/>
   </g>
   <g id="matplotlib.axis_3">
    <g id="xtick_7">
     <g id="line2d_13">
      <g>
       <use xlink:href="#m039ca6652c" x="93.708333" y="91.125656" style="stroke: #000000; stroke-width: 0.8"/>
      </g>
     </g>
     <g id="text_13">
      <!-- 2030 -->
      <g transform="translate(74.620833 109.523312) scale(0.15 -0.15)">
       <defs>
        <path id="DejaVuSans-33" d="M 2597 2516 
Q 3050 2419 3304 2112 
Q 3559 1806 3559 1356 
Q 3559 666 3084 287 
Q 2609 -91 1734 -91 
Q 1441 -91 1130 -33 
Q 819 25 488 141 
L 488 750 
Q 750 597 1062 519 
Q 1375 441 1716 441 
Q 2309 441 2620 675 
Q 2931 909 2931 1356 
Q 2931 1769 2642 2001 
Q 2353 2234 1838 2234 
L 1294 2234 
L 1294 2753 
L 1863 2753 
Q 2328 2753 2575 2939 
Q 2822 3125 2822 3475 
Q 2822 3834 2567 4026 
Q 2313 4219 1838 4219 
Q 1578 4219 1281 4162 
Q 984 4106 628 3988 
L 628 4550 
Q 988 4650 1302 4700 
Q 1616 4750 1894 4750 
Q 2613 4750 3031 4423 
Q 3450 4097 3450 3541 
Q 3450 3153 3228 2886 
Q 3006 2619 2597 2516 
z
" transform="scale(0.015625)"/>
       </defs>
       <use xlink:href="#DejaVuSans-32"/>
       <use xlink:href="#DejaVuSans-30" transform="translate(63.623047 0)"/>
       <use xlink:href="#DejaVuSans-33" transform="translate(127.246094 0)"/>
       <use xlink:href="#DejaVuSans-30" transform="translate(190.869141 0)"/>
      </g>
     </g>
    </g>
    <g id="xtick_8">
     <g id="line2d_14">
      <g>
       <use xlink:href="#m039ca6652c" x="152.755952" y="91.125656" style="stroke: #000000; stroke-width: 0.8"/>
      </g>
     </g>
     <g id="text_14">
      <!-- 2040 -->
      <g transform="translate(133.668452 109.523312) scale(0.15 -0.15)">
       <use xlink:href="#DejaVuSans-32"/>
       <use xlink:href="#DejaVuSans-30" transform="translate(63.623047 0)"/>
       <use xlink:href="#DejaVuSans-34" transform="translate(127.246094 0)"/>
       <use xlink:href="#DejaVuSans-30" transform="translate(190.869141 0)"/>
      </g>
     </g>
    </g>
    <g id="xtick_9">
     <g id="line2d_15">
      <g>
       <use xlink:href="#m039ca6652c" x="211.803571" y="91.125656" style="stroke: #000000; stroke-width: 0.8"/>
      </g>
     </g>
     <g id="text_15">
      <!-- 2050 -->
      <g transform="translate(192.716071 109.523312) scale(0.15 -0.15)">
       <defs>
        <path id="DejaVuSans-35" d="M 691 4666 
L 3169 4666 
L 3169 4134 
L 1269 4134 
L 1269 2991 
Q 1406 3038 1543 3061 
Q 1681 3084 1819 3084 
Q 2600 3084 3056 2656 
Q 3513 2228 3513 1497 
Q 3513 744 3044 326 
Q 2575 -91 1722 -91 
Q 1428 -91 1123 -41 
Q 819 9 494 109 
L 494 744 
Q 775 591 1075 516 
Q 1375 441 1709 441 
Q 2250 441 2565 725 
Q 2881 1009 2881 1497 
Q 2881 1984 2565 2268 
Q 2250 2553 1709 2553 
Q 1456 2553 1204 2497 
Q 953 2441 691 2322 
L 691 4666 
z
" transform="scale(0.015625)"/>
       </defs>
       <use xlink:href="#DejaVuSans-32"/>
       <use xlink:href="#DejaVuSans-30" transform="translate(63.623047 0)"/>
       <use xlink:href="#DejaVuSans-35" transform="translate(127.246094 0)"/>
       <use xlink:href="#DejaVuSans-30" transform="translate(190.869141 0)"/>
      </g>
     </g>
    </g>
   </g>
   <g id="matplotlib.axis_4">
    <g id="ytick_7">
     <g id="line2d_16">
      <g>
       <use xlink:href="#mb6310c7506" x="52.375" y="91.125656" style="stroke: #000000; stroke-width: 0.8"/>
      </g>
     </g>
     <g id="text_16">
      <!-- 0 -->
      <g transform="translate(35.83125 96.824484) scale(0.15 -0.15)">
       <use xlink:href="#DejaVuSans-30"/>
      </g>
     </g>
    </g>
    <g id="ytick_8">
     <g id="line2d_17">
      <g>
       <use xlink:href="#mb6310c7506" x="52.375" y="50.405862" style="stroke: #000000; stroke-width: 0.8"/>
      </g>
     </g>
     <g id="text_17">
      <!-- 500 -->
      <g transform="translate(16.74375 56.10469) scale(0.15 -0.15)">
       <use xlink:href="#DejaVuSans-35"/>
       <use xlink:href="#DejaVuSans-30" transform="translate(63.623047 0)"/>
       <use xlink:href="#DejaVuSans-30" transform="translate(127.246094 0)"/>
      </g>
     </g>
    </g>
   </g>
   <g id="patch_92">
    <path d="M 52.375 91.125656 
L 52.375 24.597656 
" style="fill: none; stroke: #000000; stroke-width: 0.8; stroke-linejoin: miter; stroke-linecap: square"/>
   </g>
   <g id="patch_93">
    <path d="M 211.803571 91.125656 
L 211.803571 24.597656 
" style="fill: none; stroke: #000000; stroke-width: 0.8; stroke-linejoin: miter; stroke-linecap: square"/>
   </g>
   <g id="patch_94">
    <path d="M 52.375 91.125656 
L 211.803571 91.125656 
" style="fill: none; stroke: #000000; stroke-width: 0.8; stroke-linejoin: miter; stroke-linecap: square"/>
   </g>
   <g id="patch_95">
    <path d="M 52.375 24.597656 
L 211.803571 24.597656 
" style="fill: none; stroke: #000000; stroke-width: 0.8; stroke-linejoin: miter; stroke-linecap: square"/>
   </g>
   <g id="text_18">
    <!-- TEN -->
    <g transform="translate(117.158426 18.597656) scale(0.15 -0.15)">
     <defs>
      <path id="DejaVuSans-54" d="M -19 4666 
L 3928 4666 
L 3928 4134 
L 2272 4134 
L 2272 0 
L 1638 0 
L 1638 4134 
L -19 4134 
L -19 4666 
z
" transform="scale(0.015625)"/>
      <path id="DejaVuSans-45" d="M 628 4666 
L 3578 4666 
L 3578 4134 
L 1259 4134 
L 1259 2753 
L 3481 2753 
L 3481 2222 
L 1259 2222 
L 1259 531 
L 3634 531 
L 3634 0 
L 628 0 
L 628 4666 
z
" transform="scale(0.015625)"/>
      <path id="DejaVuSans-4e" d="M 628 4666 
L 1478 4666 
L 3547 763 
L 3547 4666 
L 4159 4666 
L 4159 0 
L 3309 0 
L 1241 3903 
L 1241 0 
L 628 0 
L 628 4666 
z
" transform="scale(0.015625)"/>
     </defs>
     <use xlink:href="#DejaVuSans-54"/>
     <use xlink:href="#DejaVuSans-45" transform="translate(61.083984 0)"/>
     <use xlink:href="#DejaVuSans-4e" transform="translate(124.267578 0)"/>
    </g>
   </g>
   <g id="legend_1">
    <g id="patch_96">
     <path d="M 127.889308 44.008738 
L 149.889308 44.008738 
L 149.889308 36.308738 
L 127.889308 36.308738 
z
" style="fill: #0000cd"/>
    </g>
    <g id="text_19">
     <!-- Hydro -->
     <g transform="translate(158.689308 44.008738) scale(0.11 -0.11)">
      <defs>
       <path id="DejaVuSans-48" d="M 628 4666 
L 1259 4666 
L 1259 2753 
L 3553 2753 
L 3553 4666 
L 4184 4666 
L 4184 0 
L 3553 0 
L 3553 2222 
L 1259 2222 
L 1259 0 
L 628 0 
L 628 4666 
z
" transform="scale(0.015625)"/>
       <path id="DejaVuSans-79" d="M 2059 -325 
Q 1816 -950 1584 -1140 
Q 1353 -1331 966 -1331 
L 506 -1331 
L 506 -850 
L 844 -850 
Q 1081 -850 1212 -737 
Q 1344 -625 1503 -206 
L 1606 56 
L 191 3500 
L 800 3500 
L 1894 763 
L 2988 3500 
L 3597 3500 
L 2059 -325 
z
" transform="scale(0.015625)"/>
       <path id="DejaVuSans-64" d="M 2906 2969 
L 2906 4863 
L 3481 4863 
L 3481 0 
L 2906 0 
L 2906 525 
Q 2725 213 2448 61 
Q 2172 -91 1784 -91 
Q 1150 -91 751 415 
Q 353 922 353 1747 
Q 353 2572 751 3078 
Q 1150 3584 1784 3584 
Q 2172 3584 2448 3432 
Q 2725 3281 2906 2969 
z
M 947 1747 
Q 947 1113 1208 752 
Q 1469 391 1925 391 
Q 2381 391 2643 752 
Q 2906 1113 2906 1747 
Q 2906 2381 2643 2742 
Q 2381 3103 1925 3103 
Q 1469 3103 1208 2742 
Q 947 2381 947 1747 
z
" transform="scale(0.015625)"/>
       <path id="DejaVuSans-72" d="M 2631 2963 
Q 2534 3019 2420 3045 
Q 2306 3072 2169 3072 
Q 1681 3072 1420 2755 
Q 1159 2438 1159 1844 
L 1159 0 
L 581 0 
L 581 3500 
L 1159 3500 
L 1159 2956 
Q 1341 3275 1631 3429 
Q 1922 3584 2338 3584 
Q 2397 3584 2469 3576 
Q 2541 3569 2628 3553 
L 2631 2963 
z
" transform="scale(0.015625)"/>
       <path id="DejaVuSans-6f" d="M 1959 3097 
Q 1497 3097 1228 2736 
Q 959 2375 959 1747 
Q 959 1119 1226 758 
Q 1494 397 1959 397 
Q 2419 397 2687 759 
Q 2956 1122 2956 1747 
Q 2956 2369 2687 2733 
Q 2419 3097 1959 3097 
z
M 1959 3584 
Q 2709 3584 3137 3096 
Q 3566 2609 3566 1747 
Q 3566 888 3137 398 
Q 2709 -91 1959 -91 
Q 1206 -91 779 398 
Q 353 888 353 1747 
Q 353 2609 779 3096 
Q 1206 3584 1959 3584 
z
" transform="scale(0.015625)"/>
      </defs>
      <use xlink:href="#DejaVuSans-48"/>
      <use xlink:href="#DejaVuSans-79" transform="translate(75.195312 0)"/>
      <use xlink:href="#DejaVuSans-64" transform="translate(134.375 0)"/>
      <use xlink:href="#DejaVuSans-72" transform="translate(197.851562 0)"/>
      <use xlink:href="#DejaVuSans-6f" transform="translate(236.714844 0)"/>
     </g>
    </g>
    <g id="patch_97">
     <path d="M 127.889308 60.154675 
L 149.889308 60.154675 
L 149.889308 52.454675 
L 127.889308 52.454675 
z
" style="fill: #8fc73e"/>
    </g>
    <g id="text_20">
     <!-- Wind -->
     <g transform="translate(158.689308 60.154675) scale(0.11 -0.11)">
      <defs>
       <path id="DejaVuSans-57" d="M 213 4666 
L 850 4666 
L 1831 722 
L 2809 4666 
L 3519 4666 
L 4500 722 
L 5478 4666 
L 6119 4666 
L 4947 0 
L 4153 0 
L 3169 4050 
L 2175 0 
L 1381 0 
L 213 4666 
z
" transform="scale(0.015625)"/>
       <path id="DejaVuSans-69" d="M 603 3500 
L 1178 3500 
L 1178 0 
L 603 0 
L 603 3500 
z
M 603 4863 
L 1178 4863 
L 1178 4134 
L 603 4134 
L 603 4863 
z
" transform="scale(0.015625)"/>
       <path id="DejaVuSans-6e" d="M 3513 2113 
L 3513 0 
L 2938 0 
L 2938 2094 
Q 2938 2591 2744 2837 
Q 2550 3084 2163 3084 
Q 1697 3084 1428 2787 
Q 1159 2491 1159 1978 
L 1159 0 
L 581 0 
L 581 3500 
L 1159 3500 
L 1159 2956 
Q 1366 3272 1645 3428 
Q 1925 3584 2291 3584 
Q 2894 3584 3203 3211 
Q 3513 2838 3513 2113 
z
" transform="scale(0.015625)"/>
      </defs>
      <use xlink:href="#DejaVuSans-57"/>
      <use xlink:href="#DejaVuSans-69" transform="translate(96.626953 0)"/>
      <use xlink:href="#DejaVuSans-6e" transform="translate(124.410156 0)"/>
      <use xlink:href="#DejaVuSans-64" transform="translate(187.789062 0)"/>
     </g>
    </g>
    <g id="patch_98">
     <path d="M 127.889308 76.300613 
L 149.889308 76.300613 
L 149.889308 68.600613 
L 127.889308 68.600613 
z
" style="fill: #fbaa1b"/>
    </g>
    <g id="text_21">
     <!-- Solar -->
     <g transform="translate(158.689308 76.300613) scale(0.11 -0.11)">
      <defs>
       <path id="DejaVuSans-53" d="M 3425 4513 
L 3425 3897 
Q 3066 4069 2747 4153 
Q 2428 4238 2131 4238 
Q 1616 4238 1336 4038 
Q 1056 3838 1056 3469 
Q 1056 3159 1242 3001 
Q 1428 2844 1947 2747 
L 2328 2669 
Q 3034 2534 3370 2195 
Q 3706 1856 3706 1288 
Q 3706 609 3251 259 
Q 2797 -91 1919 -91 
Q 1588 -91 1214 -16 
Q 841 59 441 206 
L 441 856 
Q 825 641 1194 531 
Q 1563 422 1919 422 
Q 2459 422 2753 634 
Q 3047 847 3047 1241 
Q 3047 1584 2836 1778 
Q 2625 1972 2144 2069 
L 1759 2144 
Q 1053 2284 737 2584 
Q 422 2884 422 3419 
Q 422 4038 858 4394 
Q 1294 4750 2059 4750 
Q 2388 4750 2728 4690 
Q 3069 4631 3425 4513 
z
" transform="scale(0.015625)"/>
       <path id="DejaVuSans-6c" d="M 603 4863 
L 1178 4863 
L 1178 0 
L 603 0 
L 603 4863 
z
" transform="scale(0.015625)"/>
       <path id="DejaVuSans-61" d="M 2194 1759 
Q 1497 1759 1228 1600 
Q 959 1441 959 1056 
Q 959 750 1161 570 
Q 1363 391 1709 391 
Q 2188 391 2477 730 
Q 2766 1069 2766 1631 
L 2766 1759 
L 2194 1759 
z
M 3341 1997 
L 3341 0 
L 2766 0 
L 2766 531 
Q 2569 213 2275 61 
Q 1981 -91 1556 -91 
Q 1019 -91 701 211 
Q 384 513 384 1019 
Q 384 1609 779 1909 
Q 1175 2209 1959 2209 
L 2766 2209 
L 2766 2266 
Q 2766 2663 2505 2880 
Q 2244 3097 1772 3097 
Q 1472 3097 1187 3025 
Q 903 2953 641 2809 
L 641 3341 
Q 956 3463 1253 3523 
Q 1550 3584 1831 3584 
Q 2591 3584 2966 3190 
Q 3341 2797 3341 1997 
z
" transform="scale(0.015625)"/>
      </defs>
      <use xlink:href="#DejaVuSans-53"/>
      <use xlink:href="#DejaVuSans-6f" transform="translate(63.476562 0)"/>
      <use xlink:href="#DejaVuSans-6c" transform="translate(124.658203 0)"/>
      <use xlink:href="#DejaVuSans-61" transform="translate(152.441406 0)"/>
      <use xlink:href="#DejaVuSans-72" transform="translate(213.720703 0)"/>
     </g>
    </g>
   </g>
  </g>
  <g id="axes_3">
   <g id="patch_99">
    <path d="M 227.746429 91.125656 
L 387.175 91.125656 
L 387.175 24.597656 
L 227.746429 24.597656 
z
" style="fill: #ffffff"/>
   </g>
   <g id="patch_100">
    <path d="M 224.794048 91.125656 
L 230.69881 91.125656 
L 230.69881 91.125656 
L 224.794048 91.125656 
z
" clip-path="url(#p08c6fc50f0)" style="fill: #0000cd"/>
   </g>
   <g id="patch_101">
    <path d="M 230.69881 91.125656 
L 236.603571 91.125656 
L 236.603571 91.125656 
L 230.69881 91.125656 
z
" clip-path="url(#p08c6fc50f0)" style="fill: #0000cd"/>
   </g>
   <g id="patch_102">
    <path d="M 236.603571 91.125656 
L 242.508333 91.125656 
L 242.508333 55.894506 
L 236.603571 55.894506 
z
" clip-path="url(#p08c6fc50f0)" style="fill: #0000cd"/>
   </g>
   <g id="patch_103">
    <path d="M 242.508333 91.125656 
L 248.413095 91.125656 
L 248.413095 91.125656 
L 242.508333 91.125656 
z
" clip-path="url(#p08c6fc50f0)" style="fill: #0000cd"/>
   </g>
   <g id="patch_104">
    <path d="M 248.413095 91.125656 
L 254.317857 91.125656 
L 254.317857 80.004948 
L 248.413095 80.004948 
z
" clip-path="url(#p08c6fc50f0)" style="fill: #0000cd"/>
   </g>
   <g id="patch_105">
    <path d="M 254.317857 91.125656 
L 260.222619 91.125656 
L 260.222619 91.125656 
L 254.317857 91.125656 
z
" clip-path="url(#p08c6fc50f0)" style="fill: #0000cd"/>
   </g>
   <g id="patch_106">
    <path d="M 260.222619 91.125656 
L 266.127381 91.125656 
L 266.127381 72.435391 
L 260.222619 72.435391 
z
" clip-path="url(#p08c6fc50f0)" style="fill: #0000cd"/>
   </g>
   <g id="patch_107">
    <path d="M 266.127381 91.125656 
L 272.032143 91.125656 
L 272.032143 53.745125 
L 266.127381 53.745125 
z
" clip-path="url(#p08c6fc50f0)" style="fill: #0000cd"/>
   </g>
   <g id="patch_108">
    <path d="M 272.032143 91.125656 
L 277.936905 91.125656 
L 277.936905 91.125656 
L 272.032143 91.125656 
z
" clip-path="url(#p08c6fc50f0)" style="fill: #0000cd"/>
   </g>
   <g id="patch_109">
    <path d="M 277.936905 91.125656 
L 283.841667 91.125656 
L 283.841667 91.125656 
L 277.936905 91.125656 
z
" clip-path="url(#p08c6fc50f0)" style="fill: #0000cd"/>
   </g>
   <g id="patch_110">
    <path d="M 283.841667 91.125656 
L 289.746429 91.125656 
L 289.746429 91.125656 
L 283.841667 91.125656 
z
" clip-path="url(#p08c6fc50f0)" style="fill: #0000cd"/>
   </g>
   <g id="patch_111">
    <path d="M 289.746429 91.125656 
L 295.65119 91.125656 
L 295.65119 91.125656 
L 289.746429 91.125656 
z
" clip-path="url(#p08c6fc50f0)" style="fill: #0000cd"/>
   </g>
   <g id="patch_112">
    <path d="M 295.65119 91.125656 
L 301.555952 91.125656 
L 301.555952 91.125656 
L 295.65119 91.125656 
z
" clip-path="url(#p08c6fc50f0)" style="fill: #0000cd"/>
   </g>
   <g id="patch_113">
    <path d="M 301.555952 91.125656 
L 307.460714 91.125656 
L 307.460714 91.125656 
L 301.555952 91.125656 
z
" clip-path="url(#p08c6fc50f0)" style="fill: #0000cd"/>
   </g>
   <g id="patch_114">
    <path d="M 307.460714 91.125656 
L 313.365476 91.125656 
L 313.365476 91.125656 
L 307.460714 91.125656 
z
" clip-path="url(#p08c6fc50f0)" style="fill: #0000cd"/>
   </g>
   <g id="patch_115">
    <path d="M 313.365476 91.125656 
L 319.270238 91.125656 
L 319.270238 91.125656 
L 313.365476 91.125656 
z
" clip-path="url(#p08c6fc50f0)" style="fill: #0000cd"/>
   </g>
   <g id="patch_116">
    <path d="M 319.270238 91.125656 
L 325.175 91.125656 
L 325.175 91.125656 
L 319.270238 91.125656 
z
" clip-path="url(#p08c6fc50f0)" style="fill: #0000cd"/>
   </g>
   <g id="patch_117">
    <path d="M 325.175 91.125656 
L 331.079762 91.125656 
L 331.079762 91.125656 
L 325.175 91.125656 
z
" clip-path="url(#p08c6fc50f0)" style="fill: #0000cd"/>
   </g>
   <g id="patch_118">
    <path d="M 331.079762 91.125656 
L 336.984524 91.125656 
L 336.984524 91.125656 
L 331.079762 91.125656 
z
" clip-path="url(#p08c6fc50f0)" style="fill: #0000cd"/>
   </g>
   <g id="patch_119">
    <path d="M 336.984524 91.125656 
L 342.889286 91.125656 
L 342.889286 91.125656 
L 336.984524 91.125656 
z
" clip-path="url(#p08c6fc50f0)" style="fill: #0000cd"/>
   </g>
   <g id="patch_120">
    <path d="M 342.889286 91.125656 
L 348.794048 91.125656 
L 348.794048 91.125656 
L 342.889286 91.125656 
z
" clip-path="url(#p08c6fc50f0)" style="fill: #0000cd"/>
   </g>
   <g id="patch_121">
    <path d="M 348.794048 91.125656 
L 354.69881 91.125656 
L 354.69881 91.125656 
L 348.794048 91.125656 
z
" clip-path="url(#p08c6fc50f0)" style="fill: #0000cd"/>
   </g>
   <g id="patch_122">
    <path d="M 354.69881 91.125656 
L 360.603571 91.125656 
L 360.603571 91.125656 
L 354.69881 91.125656 
z
" clip-path="url(#p08c6fc50f0)" style="fill: #0000cd"/>
   </g>
   <g id="patch_123">
    <path d="M 360.603571 91.125656 
L 366.508333 91.125656 
L 366.508333 91.125656 
L 360.603571 91.125656 
z
" clip-path="url(#p08c6fc50f0)" style="fill: #0000cd"/>
   </g>
   <g id="patch_124">
    <path d="M 366.508333 91.125656 
L 372.413095 91.125656 
L 372.413095 91.125656 
L 366.508333 91.125656 
z
" clip-path="url(#p08c6fc50f0)" style="fill: #0000cd"/>
   </g>
   <g id="patch_125">
    <path d="M 372.413095 91.125656 
L 378.317857 91.125656 
L 378.317857 91.125656 
L 372.413095 91.125656 
z
" clip-path="url(#p08c6fc50f0)" style="fill: #0000cd"/>
   </g>
   <g id="patch_126">
    <path d="M 378.317857 91.125656 
L 384.222619 91.125656 
L 384.222619 91.125656 
L 378.317857 91.125656 
z
" clip-path="url(#p08c6fc50f0)" style="fill: #0000cd"/>
   </g>
   <g id="patch_127">
    <path d="M 384.222619 91.125656 
L 390.127381 91.125656 
L 390.127381 91.125656 
L 384.222619 91.125656 
z
" clip-path="url(#p08c6fc50f0)" style="fill: #0000cd"/>
   </g>
   <g id="patch_128">
    <path d="M 224.794048 91.125656 
L 230.69881 91.125656 
L 230.69881 91.125656 
L 224.794048 91.125656 
z
" clip-path="url(#p08c6fc50f0)" style="fill: #8fc73e"/>
   </g>
   <g id="patch_129">
    <path d="M 230.69881 91.125656 
L 236.603571 91.125656 
L 236.603571 91.125656 
L 230.69881 91.125656 
z
" clip-path="url(#p08c6fc50f0)" style="fill: #8fc73e"/>
   </g>
   <g id="patch_130">
    <path d="M 236.603571 55.894506 
L 242.508333 55.894506 
L 242.508333 40.848842 
L 236.603571 40.848842 
z
" clip-path="url(#p08c6fc50f0)" style="fill: #8fc73e"/>
   </g>
   <g id="patch_131">
    <path d="M 242.508333 91.125656 
L 248.413095 91.125656 
L 248.413095 76.734152 
L 242.508333 76.734152 
z
" clip-path="url(#p08c6fc50f0)" style="fill: #8fc73e"/>
   </g>
   <g id="patch_132">
    <path d="M 248.413095 80.004948 
L 254.317857 80.004948 
L 254.317857 80.004948 
L 248.413095 80.004948 
z
" clip-path="url(#p08c6fc50f0)" style="fill: #8fc73e"/>
   </g>
   <g id="patch_133">
    <path d="M 254.317857 91.125656 
L 260.222619 91.125656 
L 260.222619 86.45309 
L 254.317857 86.45309 
z
" clip-path="url(#p08c6fc50f0)" style="fill: #8fc73e"/>
   </g>
   <g id="patch_134">
    <path d="M 260.222619 72.435391 
L 266.127381 72.435391 
L 266.127381 72.435391 
L 260.222619 72.435391 
z
" clip-path="url(#p08c6fc50f0)" style="fill: #8fc73e"/>
   </g>
   <g id="patch_135">
    <path d="M 266.127381 53.745125 
L 272.032143 53.745125 
L 272.032143 53.745125 
L 266.127381 53.745125 
z
" clip-path="url(#p08c6fc50f0)" style="fill: #8fc73e"/>
   </g>
   <g id="patch_136">
    <path d="M 272.032143 91.125656 
L 277.936905 91.125656 
L 277.936905 88.882824 
L 272.032143 88.882824 
z
" clip-path="url(#p08c6fc50f0)" style="fill: #8fc73e"/>
   </g>
   <g id="patch_137">
    <path d="M 277.936905 91.125656 
L 283.841667 91.125656 
L 283.841667 91.125656 
L 277.936905 91.125656 
z
" clip-path="url(#p08c6fc50f0)" style="fill: #8fc73e"/>
   </g>
   <g id="patch_138">
    <path d="M 283.841667 91.125656 
L 289.746429 91.125656 
L 289.746429 91.125656 
L 283.841667 91.125656 
z
" clip-path="url(#p08c6fc50f0)" style="fill: #8fc73e"/>
   </g>
   <g id="patch_139">
    <path d="M 289.746429 91.125656 
L 295.65119 91.125656 
L 295.65119 86.45309 
L 289.746429 86.45309 
z
" clip-path="url(#p08c6fc50f0)" style="fill: #8fc73e"/>
   </g>
   <g id="patch_140">
    <path d="M 295.65119 91.125656 
L 301.555952 91.125656 
L 301.555952 81.032913 
L 295.65119 81.032913 
z
" clip-path="url(#p08c6fc50f0)" style="fill: #8fc73e"/>
   </g>
   <g id="patch_141">
    <path d="M 301.555952 91.125656 
L 307.460714 91.125656 
L 307.460714 81.50017 
L 301.555952 81.50017 
z
" clip-path="url(#p08c6fc50f0)" style="fill: #8fc73e"/>
   </g>
   <g id="patch_142">
    <path d="M 307.460714 91.125656 
L 313.365476 91.125656 
L 313.365476 91.125656 
L 307.460714 91.125656 
z
" clip-path="url(#p08c6fc50f0)" style="fill: #8fc73e"/>
   </g>
   <g id="patch_143">
    <path d="M 313.365476 91.125656 
L 319.270238 91.125656 
L 319.270238 91.125656 
L 313.365476 91.125656 
z
" clip-path="url(#p08c6fc50f0)" style="fill: #8fc73e"/>
   </g>
   <g id="patch_144">
    <path d="M 319.270238 91.125656 
L 325.175 91.125656 
L 325.175 91.125656 
L 319.270238 91.125656 
z
" clip-path="url(#p08c6fc50f0)" style="fill: #8fc73e"/>
   </g>
   <g id="patch_145">
    <path d="M 325.175 91.125656 
L 331.079762 91.125656 
L 331.079762 91.125656 
L 325.175 91.125656 
z
" clip-path="url(#p08c6fc50f0)" style="fill: #8fc73e"/>
   </g>
   <g id="patch_146">
    <path d="M 331.079762 91.125656 
L 336.984524 91.125656 
L 336.984524 91.125656 
L 331.079762 91.125656 
z
" clip-path="url(#p08c6fc50f0)" style="fill: #8fc73e"/>
   </g>
   <g id="patch_147">
    <path d="M 336.984524 91.125656 
L 342.889286 91.125656 
L 342.889286 91.125656 
L 336.984524 91.125656 
z
" clip-path="url(#p08c6fc50f0)" style="fill: #8fc73e"/>
   </g>
   <g id="patch_148">
    <path d="M 342.889286 91.125656 
L 348.794048 91.125656 
L 348.794048 91.125656 
L 342.889286 91.125656 
z
" clip-path="url(#p08c6fc50f0)" style="fill: #8fc73e"/>
   </g>
   <g id="patch_149">
    <path d="M 348.794048 91.125656 
L 354.69881 91.125656 
L 354.69881 91.125656 
L 348.794048 91.125656 
z
" clip-path="url(#p08c6fc50f0)" style="fill: #8fc73e"/>
   </g>
   <g id="patch_150">
    <path d="M 354.69881 91.125656 
L 360.603571 91.125656 
L 360.603571 91.125656 
L 354.69881 91.125656 
z
" clip-path="url(#p08c6fc50f0)" style="fill: #8fc73e"/>
   </g>
   <g id="patch_151">
    <path d="M 360.603571 91.125656 
L 366.508333 91.125656 
L 366.508333 91.125656 
L 360.603571 91.125656 
z
" clip-path="url(#p08c6fc50f0)" style="fill: #8fc73e"/>
   </g>
   <g id="patch_152">
    <path d="M 366.508333 91.125656 
L 372.413095 91.125656 
L 372.413095 91.125656 
L 366.508333 91.125656 
z
" clip-path="url(#p08c6fc50f0)" style="fill: #8fc73e"/>
   </g>
   <g id="patch_153">
    <path d="M 372.413095 91.125656 
L 378.317857 91.125656 
L 378.317857 87.667957 
L 372.413095 87.667957 
z
" clip-path="url(#p08c6fc50f0)" style="fill: #8fc73e"/>
   </g>
   <g id="patch_154">
    <path d="M 378.317857 91.125656 
L 384.222619 91.125656 
L 384.222619 91.125656 
L 378.317857 91.125656 
z
" clip-path="url(#p08c6fc50f0)" style="fill: #8fc73e"/>
   </g>
   <g id="patch_155">
    <path d="M 384.222619 91.125656 
L 390.127381 91.125656 
L 390.127381 81.313267 
L 384.222619 81.313267 
z
" clip-path="url(#p08c6fc50f0)" style="fill: #8fc73e"/>
   </g>
   <g id="patch_156">
    <path d="M 224.794048 91.125656 
L 230.69881 91.125656 
L 230.69881 91.125656 
L 224.794048 91.125656 
z
" clip-path="url(#p08c6fc50f0)" style="fill: #fbaa1b"/>
   </g>
   <g id="patch_157">
    <path d="M 230.69881 91.125656 
L 236.603571 91.125656 
L 236.603571 90.901373 
L 230.69881 90.901373 
z
" clip-path="url(#p08c6fc50f0)" style="fill: #fbaa1b"/>
   </g>
   <g id="patch_158">
    <path d="M 236.603571 40.848842 
L 242.508333 40.848842 
L 242.508333 27.765656 
L 236.603571 27.765656 
z
" clip-path="url(#p08c6fc50f0)" style="fill: #fbaa1b"/>
   </g>
   <g id="patch_159">
    <path d="M 242.508333 76.734152 
L 248.413095 76.734152 
L 248.413095 55.427249 
L 242.508333 55.427249 
z
" clip-path="url(#p08c6fc50f0)" style="fill: #fbaa1b"/>
   </g>
   <g id="patch_160">
    <path d="M 248.413095 80.004948 
L 254.317857 80.004948 
L 254.317857 80.004948 
L 248.413095 80.004948 
z
" clip-path="url(#p08c6fc50f0)" style="fill: #fbaa1b"/>
   </g>
   <g id="patch_161">
    <path d="M 254.317857 86.45309 
L 260.222619 86.45309 
L 260.222619 64.024771 
L 254.317857 64.024771 
z
" clip-path="url(#p08c6fc50f0)" style="fill: #fbaa1b"/>
   </g>
   <g id="patch_162">
    <path d="M 260.222619 72.435391 
L 266.127381 72.435391 
L 266.127381 61.221231 
L 260.222619 61.221231 
z
" clip-path="url(#p08c6fc50f0)" style="fill: #fbaa1b"/>
   </g>
   <g id="patch_163">
    <path d="M 266.127381 53.745125 
L 272.032143 53.745125 
L 272.032143 31.316807 
L 266.127381 31.316807 
z
" clip-path="url(#p08c6fc50f0)" style="fill: #fbaa1b"/>
   </g>
   <g id="patch_164">
    <path d="M 272.032143 88.882824 
L 277.936905 88.882824 
L 277.936905 44.026187 
L 272.032143 44.026187 
z
" clip-path="url(#p08c6fc50f0)" style="fill: #fbaa1b"/>
   </g>
   <g id="patch_165">
    <path d="M 277.936905 91.125656 
L 283.841667 91.125656 
L 283.841667 91.125656 
L 277.936905 91.125656 
z
" clip-path="url(#p08c6fc50f0)" style="fill: #fbaa1b"/>
   </g>
   <g id="patch_166">
    <path d="M 283.841667 91.125656 
L 289.746429 91.125656 
L 289.746429 91.125656 
L 283.841667 91.125656 
z
" clip-path="url(#p08c6fc50f0)" style="fill: #fbaa1b"/>
   </g>
   <g id="patch_167">
    <path d="M 289.746429 86.45309 
L 295.65119 86.45309 
L 295.65119 76.173444 
L 289.746429 76.173444 
z
" clip-path="url(#p08c6fc50f0)" style="fill: #fbaa1b"/>
   </g>
   <g id="patch_168">
    <path d="M 295.65119 81.032913 
L 301.555952 81.032913 
L 301.555952 81.032913 
L 295.65119 81.032913 
z
" clip-path="url(#p08c6fc50f0)" style="fill: #fbaa1b"/>
   </g>
   <g id="patch_169">
    <path d="M 301.555952 81.50017 
L 307.460714 81.50017 
L 307.460714 81.50017 
L 301.555952 81.50017 
z
" clip-path="url(#p08c6fc50f0)" style="fill: #fbaa1b"/>
   </g>
   <g id="patch_170">
    <path d="M 307.460714 91.125656 
L 313.365476 91.125656 
L 313.365476 91.125656 
L 307.460714 91.125656 
z
" clip-path="url(#p08c6fc50f0)" style="fill: #fbaa1b"/>
   </g>
   <g id="patch_171">
    <path d="M 313.365476 91.125656 
L 319.270238 91.125656 
L 319.270238 91.125656 
L 313.365476 91.125656 
z
" clip-path="url(#p08c6fc50f0)" style="fill: #fbaa1b"/>
   </g>
   <g id="patch_172">
    <path d="M 319.270238 91.125656 
L 325.175 91.125656 
L 325.175 91.125656 
L 319.270238 91.125656 
z
" clip-path="url(#p08c6fc50f0)" style="fill: #fbaa1b"/>
   </g>
   <g id="patch_173">
    <path d="M 325.175 91.125656 
L 331.079762 91.125656 
L 331.079762 91.125656 
L 325.175 91.125656 
z
" clip-path="url(#p08c6fc50f0)" style="fill: #fbaa1b"/>
   </g>
   <g id="patch_174">
    <path d="M 331.079762 91.125656 
L 336.984524 91.125656 
L 336.984524 91.125656 
L 331.079762 91.125656 
z
" clip-path="url(#p08c6fc50f0)" style="fill: #fbaa1b"/>
   </g>
   <g id="patch_175">
    <path d="M 336.984524 91.125656 
L 342.889286 91.125656 
L 342.889286 91.125656 
L 336.984524 91.125656 
z
" clip-path="url(#p08c6fc50f0)" style="fill: #fbaa1b"/>
   </g>
   <g id="patch_176">
    <path d="M 342.889286 91.125656 
L 348.794048 91.125656 
L 348.794048 91.125656 
L 342.889286 91.125656 
z
" clip-path="url(#p08c6fc50f0)" style="fill: #fbaa1b"/>
   </g>
   <g id="patch_177">
    <path d="M 348.794048 91.125656 
L 354.69881 91.125656 
L 354.69881 91.125656 
L 348.794048 91.125656 
z
" clip-path="url(#p08c6fc50f0)" style="fill: #fbaa1b"/>
   </g>
   <g id="patch_178">
    <path d="M 354.69881 91.125656 
L 360.603571 91.125656 
L 360.603571 91.125656 
L 354.69881 91.125656 
z
" clip-path="url(#p08c6fc50f0)" style="fill: #fbaa1b"/>
   </g>
   <g id="patch_179">
    <path d="M 360.603571 91.125656 
L 366.508333 91.125656 
L 366.508333 91.125656 
L 360.603571 91.125656 
z
" clip-path="url(#p08c6fc50f0)" style="fill: #fbaa1b"/>
   </g>
   <g id="patch_180">
    <path d="M 366.508333 91.125656 
L 372.413095 91.125656 
L 372.413095 91.125656 
L 366.508333 91.125656 
z
" clip-path="url(#p08c6fc50f0)" style="fill: #fbaa1b"/>
   </g>
   <g id="patch_181">
    <path d="M 372.413095 87.667957 
L 378.317857 87.667957 
L 378.317857 87.667957 
L 372.413095 87.667957 
z
" clip-path="url(#p08c6fc50f0)" style="fill: #fbaa1b"/>
   </g>
   <g id="patch_182">
    <path d="M 378.317857 91.125656 
L 384.222619 91.125656 
L 384.222619 91.125656 
L 378.317857 91.125656 
z
" clip-path="url(#p08c6fc50f0)" style="fill: #fbaa1b"/>
   </g>
   <g id="patch_183">
    <path d="M 384.222619 81.313267 
L 390.127381 81.313267 
L 390.127381 81.313267 
L 384.222619 81.313267 
z
" clip-path="url(#p08c6fc50f0)" style="fill: #fbaa1b"/>
   </g>
   <g id="matplotlib.axis_5">
    <g id="xtick_10">
     <g id="line2d_18">
      <g>
       <use xlink:href="#m039ca6652c" x="269.079762" y="91.125656" style="stroke: #000000; stroke-width: 0.8"/>
      </g>
     </g>
     <g id="text_22">
      <!-- 2030 -->
      <g transform="translate(249.992262 109.523312) scale(0.15 -0.15)">
       <use xlink:href="#DejaVuSans-32"/>
       <use xlink:href="#DejaVuSans-30" transform="translate(63.623047 0)"/>
       <use xlink:href="#DejaVuSans-33" transform="translate(127.246094 0)"/>
       <use xlink:href="#DejaVuSans-30" transform="translate(190.869141 0)"/>
      </g>
     </g>
    </g>
    <g id="xtick_11">
     <g id="line2d_19">
      <g>
       <use xlink:href="#m039ca6652c" x="328.127381" y="91.125656" style="stroke: #000000; stroke-width: 0.8"/>
      </g>
     </g>
     <g id="text_23">
      <!-- 2040 -->
      <g transform="translate(309.039881 109.523312) scale(0.15 -0.15)">
       <use xlink:href="#DejaVuSans-32"/>
       <use xlink:href="#DejaVuSans-30" transform="translate(63.623047 0)"/>
       <use xlink:href="#DejaVuSans-34" transform="translate(127.246094 0)"/>
       <use xlink:href="#DejaVuSans-30" transform="translate(190.869141 0)"/>
      </g>
     </g>
    </g>
    <g id="xtick_12">
     <g id="line2d_20">
      <g>
       <use xlink:href="#m039ca6652c" x="387.175" y="91.125656" style="stroke: #000000; stroke-width: 0.8"/>
      </g>
     </g>
     <g id="text_24">
      <!-- 2050 -->
      <g transform="translate(368.0875 109.523312) scale(0.15 -0.15)">
       <use xlink:href="#DejaVuSans-32"/>
       <use xlink:href="#DejaVuSans-30" transform="translate(63.623047 0)"/>
       <use xlink:href="#DejaVuSans-35" transform="translate(127.246094 0)"/>
       <use xlink:href="#DejaVuSans-30" transform="translate(190.869141 0)"/>
      </g>
     </g>
    </g>
   </g>
   <g id="matplotlib.axis_6">
    <g id="ytick_9">
     <g id="line2d_21">
      <g>
       <use xlink:href="#mb6310c7506" x="227.746429" y="91.125656" style="stroke: #000000; stroke-width: 0.8"/>
      </g>
     </g>
     <g id="text_25">
      <!-- 0 -->
      <g transform="translate(214.383929 94.924875) scale(0.1 -0.1)">
       <use xlink:href="#DejaVuSans-30"/>
      </g>
     </g>
    </g>
    <g id="ytick_10">
     <g id="line2d_22">
      <g>
       <use xlink:href="#mb6310c7506" x="227.746429" y="67.762824" style="stroke: #000000; stroke-width: 0.8"/>
      </g>
     </g>
     <g id="text_26">
      <!-- 250 -->
      <g transform="translate(201.658929 71.562043) scale(0.1 -0.1)">
       <use xlink:href="#DejaVuSans-32"/>
       <use xlink:href="#DejaVuSans-35" transform="translate(63.623047 0)"/>
       <use xlink:href="#DejaVuSans-30" transform="translate(127.246094 0)"/>
      </g>
     </g>
    </g>
    <g id="ytick_11">
     <g id="line2d_23">
      <g>
       <use xlink:href="#mb6310c7506" x="227.746429" y="44.399993" style="stroke: #000000; stroke-width: 0.8"/>
      </g>
     </g>
     <g id="text_27">
      <!-- 500 -->
      <g transform="translate(201.658929 48.199211) scale(0.1 -0.1)">
       <use xlink:href="#DejaVuSans-35"/>
       <use xlink:href="#DejaVuSans-30" transform="translate(63.623047 0)"/>
       <use xlink:href="#DejaVuSans-30" transform="translate(127.246094 0)"/>
      </g>
     </g>
    </g>
   </g>
   <g id="patch_184">
    <path d="M 227.746429 91.125656 
L 227.746429 24.597656 
" style="fill: none; stroke: #000000; stroke-width: 0.8; stroke-linejoin: miter; stroke-linecap: square"/>
   </g>
   <g id="patch_185">
    <path d="M 387.175 91.125656 
L 387.175 24.597656 
" style="fill: none; stroke: #000000; stroke-width: 0.8; stroke-linejoin: miter; stroke-linecap: square"/>
   </g>
   <g id="patch_186">
    <path d="M 227.746429 91.125656 
L 387.175 91.125656 
" style="fill: none; stroke: #000000; stroke-width: 0.8; stroke-linejoin: miter; stroke-linecap: square"/>
   </g>
   <g id="patch_187">
    <path d="M 227.746429 24.597656 
L 387.175 24.597656 
" style="fill: none; stroke: #000000; stroke-width: 0.8; stroke-linejoin: miter; stroke-linecap: square"/>
   </g>
   <g id="text_28">
    <!-- ALT -->
    <g transform="translate(294.60173 18.597656) scale(0.15 -0.15)">
     <defs>
      <path id="DejaVuSans-41" d="M 2188 4044 
L 1331 1722 
L 3047 1722 
L 2188 4044 
z
M 1831 4666 
L 2547 4666 
L 4325 0 
L 3669 0 
L 3244 1197 
L 1141 1197 
L 716 0 
L 50 0 
L 1831 4666 
z
" transform="scale(0.015625)"/>
      <path id="DejaVuSans-4c" d="M 628 4666 
L 1259 4666 
L 1259 531 
L 3531 531 
L 3531 0 
L 628 0 
L 628 4666 
z
" transform="scale(0.015625)"/>
     </defs>
     <use xlink:href="#DejaVuSans-41"/>
     <use xlink:href="#DejaVuSans-4c" transform="translate(68.408203 0)"/>
     <use xlink:href="#DejaVuSans-54" transform="translate(110.371094 0)"/>
    </g>
   </g>
  </g>
  <g id="axes_4">
   <g id="patch_188">
    <path d="M 52.375 190.917656 
L 387.175 190.917656 
L 387.175 124.389656 
L 52.375 124.389656 
z
" style="fill: #ffffff"/>
   </g>
   <g id="FillBetweenPolyCollection_1">
    <defs>
     <path id="m95d38003bc" d="M 52.375 -29.48391 
L 52.375 -28.717187 
L 64.775 -28.717187 
L 77.175 -28.717187 
L 89.575 -28.717187 
L 101.975 -28.717187 
L 114.375 -28.717187 
L 126.775 -28.717187 
L 139.175 -28.717187 
L 151.575 -28.717187 
L 163.975 -28.717187 
L 176.375 -28.717187 
L 188.775 -28.717187 
L 201.175 -28.717187 
L 213.575 -28.717187 
L 225.975 -28.717187 
L 238.375 -28.717187 
L 250.775 -28.717187 
L 263.175 -28.717187 
L 275.575 -28.717187 
L 287.975 -28.717187 
L 300.375 -28.717187 
L 312.775 -28.717187 
L 325.175 -28.717187 
L 337.575 -28.717187 
L 349.975 -28.717187 
L 362.375 -28.717187 
L 374.775 -28.717187 
L 387.175 -28.717187 
L 387.175 -96.048349 
L 387.175 -96.048349 
L 374.775 -93.965877 
L 362.375 -92.335451 
L 349.975 -91.020742 
L 337.575 -89.898514 
L 325.175 -88.858624 
L 312.775 -87.804017 
L 300.375 -86.650731 
L 287.975 -85.327895 
L 275.575 -83.77773 
L 263.175 -81.955547 
L 250.775 -79.82975 
L 238.375 -77.381831 
L 225.975 -74.606378 
L 213.575 -71.511066 
L 201.175 -68.116663 
L 188.775 -64.457029 
L 176.375 -60.579115 
L 163.975 -56.542962 
L 151.575 -52.421702 
L 139.175 -48.301562 
L 126.775 -44.281855 
L 114.375 -40.47499 
L 101.975 -37.006464 
L 89.575 -34.014866 
L 77.175 -31.651878 
L 64.775 -30.082272 
L 52.375 -29.48391 
z
" style="stroke: #fbaa1b; stroke-opacity: 0.5"/>
    </defs>
    <g clip-path="url(#pe67f64a972)">
     <use xlink:href="#m95d38003bc" x="0" y="219.634844" style="fill: #fbaa1b; fill-opacity: 0.5; stroke: #fbaa1b; stroke-opacity: 0.5"/>
    </g>
   </g>
   <g id="FillBetweenPolyCollection_2">
    <defs>
     <path id="mcb07deb389" d="M 52.375 -28.79386 
L 52.375 -28.717187 
L 64.775 -28.717187 
L 77.175 -28.717187 
L 89.575 -28.717187 
L 101.975 -28.717187 
L 114.375 -28.717187 
L 126.775 -28.717187 
L 139.175 -28.717187 
L 151.575 -28.717187 
L 163.975 -28.717187 
L 176.375 -28.717187 
L 188.775 -28.717187 
L 201.175 -28.717187 
L 213.575 -28.717187 
L 225.975 -28.717187 
L 238.375 -28.717187 
L 250.775 -28.717187 
L 263.175 -28.717187 
L 275.575 -28.717187 
L 287.975 -28.717187 
L 300.375 -28.717187 
L 312.775 -28.717187 
L 325.175 -28.717187 
L 337.575 -28.717187 
L 349.975 -28.717187 
L 362.375 -28.717187 
L 374.775 -28.717187 
L 387.175 -28.717187 
L 387.175 -35.450304 
L 387.175 -35.450304 
L 374.775 -35.242056 
L 362.375 -35.079014 
L 349.975 -34.947543 
L 337.575 -34.83532 
L 325.175 -34.731331 
L 312.775 -34.62587 
L 300.375 -34.510542 
L 287.975 -34.378258 
L 275.575 -34.223242 
L 263.175 -34.041023 
L 250.775 -33.828444 
L 238.375 -33.583652 
L 225.975 -33.306107 
L 213.575 -32.996575 
L 201.175 -32.657135 
L 188.775 -32.291172 
L 176.375 -31.90338 
L 163.975 -31.499765 
L 151.575 -31.087639 
L 139.175 -30.675625 
L 126.775 -30.273654 
L 114.375 -29.892968 
L 101.975 -29.546115 
L 89.575 -29.246955 
L 77.175 -29.010657 
L 64.775 -28.853696 
L 52.375 -28.79386 
z
" style="stroke: #fbaa1b; stroke-opacity: 0.8"/>
    </defs>
    <g clip-path="url(#pe67f64a972)">
     <use xlink:href="#mcb07deb389" x="0" y="219.634844" style="fill: #fbaa1b; fill-opacity: 0.8; stroke: #fbaa1b; stroke-opacity: 0.8"/>
    </g>
   </g>
   <g id="matplotlib.axis_7">
    <g id="xtick_13">
     <g id="line2d_24">
      <g>
       <use xlink:href="#m039ca6652c" x="77.175" y="190.917656" style="stroke: #000000; stroke-width: 0.8"/>
      </g>
     </g>
     <g id="text_29">
      <!-- 2025 -->
      <g transform="translate(58.0875 209.315313) scale(0.15 -0.15)">
       <use xlink:href="#DejaVuSans-32"/>
       <use xlink:href="#DejaVuSans-30" transform="translate(63.623047 0)"/>
       <use xlink:href="#DejaVuSans-32" transform="translate(127.246094 0)"/>
       <use xlink:href="#DejaVuSans-35" transform="translate(190.869141 0)"/>
      </g>
     </g>
    </g>
    <g id="xtick_14">
     <g id="line2d_25">
      <g>
       <use xlink:href="#m039ca6652c" x="139.175" y="190.917656" style="stroke: #000000; stroke-width: 0.8"/>
      </g>
     </g>
     <g id="text_30">
      <!-- 2030 -->
      <g transform="translate(120.0875 209.315313) scale(0.15 -0.15)">
       <use xlink:href="#DejaVuSans-32"/>
       <use xlink:href="#DejaVuSans-30" transform="translate(63.623047 0)"/>
       <use xlink:href="#DejaVuSans-33" transform="translate(127.246094 0)"/>
       <use xlink:href="#DejaVuSans-30" transform="translate(190.869141 0)"/>
      </g>
     </g>
    </g>
    <g id="xtick_15">
     <g id="line2d_26">
      <g>
       <use xlink:href="#m039ca6652c" x="201.175" y="190.917656" style="stroke: #000000; stroke-width: 0.8"/>
      </g>
     </g>
     <g id="text_31">
      <!-- 2035 -->
      <g transform="translate(182.0875 209.315313) scale(0.15 -0.15)">
       <use xlink:href="#DejaVuSans-32"/>
       <use xlink:href="#DejaVuSans-30" transform="translate(63.623047 0)"/>
       <use xlink:href="#DejaVuSans-33" transform="translate(127.246094 0)"/>
       <use xlink:href="#DejaVuSans-35" transform="translate(190.869141 0)"/>
      </g>
     </g>
    </g>
    <g id="xtick_16">
     <g id="line2d_27">
      <g>
       <use xlink:href="#m039ca6652c" x="263.175" y="190.917656" style="stroke: #000000; stroke-width: 0.8"/>
      </g>
     </g>
     <g id="text_32">
      <!-- 2040 -->
      <g transform="translate(244.0875 209.315313) scale(0.15 -0.15)">
       <use xlink:href="#DejaVuSans-32"/>
       <use xlink:href="#DejaVuSans-30" transform="translate(63.623047 0)"/>
       <use xlink:href="#DejaVuSans-34" transform="translate(127.246094 0)"/>
       <use xlink:href="#DejaVuSans-30" transform="translate(190.869141 0)"/>
      </g>
     </g>
    </g>
    <g id="xtick_17">
     <g id="line2d_28">
      <g>
       <use xlink:href="#m039ca6652c" x="325.175" y="190.917656" style="stroke: #000000; stroke-width: 0.8"/>
      </g>
     </g>
     <g id="text_33">
      <!-- 2045 -->
      <g transform="translate(306.0875 209.315313) scale(0.15 -0.15)">
       <use xlink:href="#DejaVuSans-32"/>
       <use xlink:href="#DejaVuSans-30" transform="translate(63.623047 0)"/>
       <use xlink:href="#DejaVuSans-34" transform="translate(127.246094 0)"/>
       <use xlink:href="#DejaVuSans-35" transform="translate(190.869141 0)"/>
      </g>
     </g>
    </g>
    <g id="xtick_18">
     <g id="line2d_29">
      <g>
       <use xlink:href="#m039ca6652c" x="387.175" y="190.917656" style="stroke: #000000; stroke-width: 0.8"/>
      </g>
     </g>
     <g id="text_34">
      <!-- 2050 -->
      <g transform="translate(368.0875 209.315313) scale(0.15 -0.15)">
       <use xlink:href="#DejaVuSans-32"/>
       <use xlink:href="#DejaVuSans-30" transform="translate(63.623047 0)"/>
       <use xlink:href="#DejaVuSans-35" transform="translate(127.246094 0)"/>
       <use xlink:href="#DejaVuSans-30" transform="translate(190.869141 0)"/>
      </g>
     </g>
    </g>
   </g>
   <g id="matplotlib.axis_8">
    <g id="ytick_12">
     <g id="line2d_30">
      <g>
       <use xlink:href="#mb6310c7506" x="52.375" y="190.917656" style="stroke: #000000; stroke-width: 0.8"/>
      </g>
     </g>
     <g id="text_35">
      <!-- 0 -->
      <g transform="translate(35.83125 196.616484) scale(0.15 -0.15)">
       <use xlink:href="#DejaVuSans-30"/>
      </g>
     </g>
    </g>
    <g id="ytick_13">
     <g id="line2d_31">
      <g>
       <use xlink:href="#mb6310c7506" x="52.375" y="157.653656" style="stroke: #000000; stroke-width: 0.8"/>
      </g>
     </g>
     <g id="text_36">
      <!-- 500 -->
      <g transform="translate(16.74375 163.352484) scale(0.15 -0.15)">
       <use xlink:href="#DejaVuSans-35"/>
       <use xlink:href="#DejaVuSans-30" transform="translate(63.623047 0)"/>
       <use xlink:href="#DejaVuSans-30" transform="translate(127.246094 0)"/>
      </g>
     </g>
    </g>
    <g id="ytick_14">
     <g id="line2d_32">
      <g>
       <use xlink:href="#mb6310c7506" x="52.375" y="124.389656" style="stroke: #000000; stroke-width: 0.8"/>
      </g>
     </g>
     <g id="text_37">
      <!-- 1000 -->
      <g transform="translate(7.2 130.088484) scale(0.15 -0.15)">
       <use xlink:href="#DejaVuSans-31"/>
       <use xlink:href="#DejaVuSans-30" transform="translate(63.623047 0)"/>
       <use xlink:href="#DejaVuSans-30" transform="translate(127.246094 0)"/>
       <use xlink:href="#DejaVuSans-30" transform="translate(190.869141 0)"/>
      </g>
     </g>
    </g>
   </g>
   <g id="line2d_33">
    <path d="M 52.375 190.840984 
L 64.775 190.781148 
L 77.175 190.624187 
L 89.575 190.387888 
L 101.975 190.088729 
L 114.375 189.741876 
L 126.775 189.361189 
L 139.175 188.959219 
L 151.575 188.547205 
L 163.975 188.135079 
L 176.375 187.731464 
L 188.775 187.343672 
L 201.175 186.977709 
L 213.575 186.638268 
L 225.975 186.328737 
L 238.375 186.051192 
L 250.775 185.8064 
L 263.175 185.59382 
L 275.575 185.411602 
L 287.975 185.256585 
L 300.375 185.124302 
L 312.775 185.008973 
L 325.175 184.903513 
L 337.575 184.799524 
L 349.975 184.687301 
L 362.375 184.55583 
L 374.775 184.392787 
L 387.175 184.18454 
" clip-path="url(#pe67f64a972)" style="fill: none; stroke: #fbaa1b; stroke-width: 2; stroke-linecap: square"/>
   </g>
   <g id="line2d_34">
    <path d="M 52.375 190.150934 
L 64.775 189.552572 
L 77.175 187.982965 
L 89.575 185.619977 
L 101.975 182.62838 
L 114.375 179.159854 
L 126.775 175.352989 
L 139.175 171.333282 
L 151.575 167.213141 
L 163.975 163.091882 
L 176.375 159.055729 
L 188.775 155.177814 
L 201.175 151.51818 
L 213.575 148.123778 
L 225.975 145.028466 
L 238.375 142.253012 
L 250.775 139.805094 
L 263.175 137.679296 
L 275.575 135.857114 
L 287.975 134.306949 
L 300.375 132.984113 
L 312.775 131.830827 
L 325.175 130.77622 
L 337.575 129.736329 
L 349.975 128.614102 
L 362.375 127.299393 
L 374.775 125.668966 
L 387.175 123.586495 
" clip-path="url(#pe67f64a972)" style="fill: none; stroke: #fbaa1b; stroke-width: 1.5; stroke-linecap: square"/>
   </g>
   <g id="patch_189">
    <path d="M 52.375 190.917656 
L 52.375 124.389656 
" style="fill: none; stroke: #000000; stroke-width: 0.8; stroke-linejoin: miter; stroke-linecap: square"/>
   </g>
   <g id="patch_190">
    <path d="M 387.175 190.917656 
L 387.175 124.389656 
" style="fill: none; stroke: #000000; stroke-width: 0.8; stroke-linejoin: miter; stroke-linecap: square"/>
   </g>
   <g id="patch_191">
    <path d="M 52.375 190.917656 
L 387.175 190.917656 
" style="fill: none; stroke: #000000; stroke-width: 0.8; stroke-linejoin: miter; stroke-linecap: square"/>
   </g>
   <g id="patch_192">
    <path d="M 52.375 124.389656 
L 387.175 124.389656 
" style="fill: none; stroke: #000000; stroke-width: 0.8; stroke-linejoin: miter; stroke-linecap: square"/>
   </g>
   <g id="text_38">
    <!-- GD -->
    <g transform="translate(208.188672 118.389656) scale(0.15 -0.15)">
     <defs>
      <path id="DejaVuSans-47" d="M 3809 666 
L 3809 1919 
L 2778 1919 
L 2778 2438 
L 4434 2438 
L 4434 434 
Q 4069 175 3628 42 
Q 3188 -91 2688 -91 
Q 1594 -91 976 548 
Q 359 1188 359 2328 
Q 359 3472 976 4111 
Q 1594 4750 2688 4750 
Q 3144 4750 3555 4637 
Q 3966 4525 4313 4306 
L 4313 3634 
Q 3963 3931 3569 4081 
Q 3175 4231 2741 4231 
Q 1884 4231 1454 3753 
Q 1025 3275 1025 2328 
Q 1025 1384 1454 906 
Q 1884 428 2741 428 
Q 3075 428 3337 486 
Q 3600 544 3809 666 
z
" transform="scale(0.015625)"/>
      <path id="DejaVuSans-44" d="M 1259 4147 
L 1259 519 
L 2022 519 
Q 2988 519 3436 956 
Q 3884 1394 3884 2338 
Q 3884 3275 3436 3711 
Q 2988 4147 2022 4147 
L 1259 4147 
z
M 628 4666 
L 1925 4666 
Q 3281 4666 3915 4102 
Q 4550 3538 4550 2338 
Q 4550 1131 3912 565 
Q 3275 0 1925 0 
L 628 0 
L 628 4666 
z
" transform="scale(0.015625)"/>
     </defs>
     <use xlink:href="#DejaVuSans-47"/>
     <use xlink:href="#DejaVuSans-44" transform="translate(77.490234 0)"/>
    </g>
   </g>
   <g id="legend_2">
    <g id="patch_193">
     <path d="M 57.8425 139.397081 
L 81.8425 139.397081 
L 81.8425 130.997081 
L 57.8425 130.997081 
z
" style="fill: #fbaa1b; fill-opacity: 0.5; stroke: #fbaa1b; stroke-opacity: 0.5; stroke-linejoin: miter"/>
    </g>
    <g id="text_39">
     <!-- 1000 MW -->
     <g transform="translate(91.4425 139.397081) scale(0.12 -0.12)">
      <defs>
       <path id="DejaVuSans-20" transform="scale(0.015625)"/>
       <path id="DejaVuSans-4d" d="M 628 4666 
L 1569 4666 
L 2759 1491 
L 3956 4666 
L 4897 4666 
L 4897 0 
L 4281 0 
L 4281 4097 
L 3078 897 
L 2444 897 
L 1241 4097 
L 1241 0 
L 628 0 
L 628 4666 
z
" transform="scale(0.015625)"/>
      </defs>
      <use xlink:href="#DejaVuSans-31"/>
      <use xlink:href="#DejaVuSans-30" transform="translate(63.623047 0)"/>
      <use xlink:href="#DejaVuSans-30" transform="translate(127.246094 0)"/>
      <use xlink:href="#DejaVuSans-30" transform="translate(190.869141 0)"/>
      <use xlink:href="#DejaVuSans-20" transform="translate(254.492188 0)"/>
      <use xlink:href="#DejaVuSans-4d" transform="translate(286.279297 0)"/>
      <use xlink:href="#DejaVuSans-57" transform="translate(372.558594 0)"/>
     </g>
    </g>
    <g id="patch_194">
     <path d="M 57.8425 157.010831 
L 81.8425 157.010831 
L 81.8425 148.610831 
L 57.8425 148.610831 
z
" style="fill: #fbaa1b; fill-opacity: 0.8; stroke: #fbaa1b; stroke-opacity: 0.8; stroke-linejoin: miter"/>
    </g>
    <g id="text_40">
     <!-- 100 MW -->
     <g transform="translate(91.4425 157.010831) scale(0.12 -0.12)">
      <use xlink:href="#DejaVuSans-31"/>
      <use xlink:href="#DejaVuSans-30" transform="translate(63.623047 0)"/>
      <use xlink:href="#DejaVuSans-30" transform="translate(127.246094 0)"/>
      <use xlink:href="#DejaVuSans-20" transform="translate(190.869141 0)"/>
      <use xlink:href="#DejaVuSans-4d" transform="translate(222.65625 0)"/>
      <use xlink:href="#DejaVuSans-57" transform="translate(308.935547 0)"/>
     </g>
    </g>
   </g>
  </g>
  <g id="text_41">
   <!-- [MW] -->
   <g transform="translate(27.052656 126.416719) rotate(-90) scale(0.15 -0.15)">
    <defs>
     <path id="DejaVuSans-5b" d="M 550 4863 
L 1875 4863 
L 1875 4416 
L 1125 4416 
L 1125 -397 
L 1875 -397 
L 1875 -844 
L 550 -844 
L 550 4863 
z
" transform="scale(0.015625)"/>
     <path id="DejaVuSans-5d" d="M 1947 4863 
L 1947 -844 
L 622 -844 
L 622 -397 
L 1369 -397 
L 1369 4416 
L 622 4416 
L 622 4863 
L 1947 4863 
z
" transform="scale(0.015625)"/>
    </defs>
    <use xlink:href="#DejaVuSans-5b"/>
    <use xlink:href="#DejaVuSans-4d" transform="translate(39.013672 0)"/>
    <use xlink:href="#DejaVuSans-57" transform="translate(125.292969 0)"/>
    <use xlink:href="#DejaVuSans-5d" transform="translate(224.169922 0)"/>
   </g>
  </g>
 </g>
 <defs>
  <clipPath id="p73299ed45f">
   <rect x="52.375" y="24.597656" width="159.428571" height="66.528"/>
  </clipPath>
  <clipPath id="p08c6fc50f0">
   <rect x="227.746429" y="24.597656" width="159.428571" height="66.528"/>
  </clipPath>
  <clipPath id="pe67f64a972">
   <rect x="52.375" y="124.389656" width="334.8" height="66.528"/>
  </clipPath>
 </defs>
</svg>
