<?xml version="1.0" encoding="utf-8" standalone="no"?>
<!DOCTYPE svg PUBLIC "-//W3C//DTD SVG 1.1//EN"
  "http://www.w3.org/Graphics/SVG/1.1/DTD/svg11.dtd">
<svg xmlns:xlink="http://www.w3.org/1999/xlink" width="552.841082pt" height="265.4575pt" viewBox="0 0 552.841082 265.4575" xmlns="http://www.w3.org/2000/svg" version="1.1">
 <metadata>
  <rdf:RDF xmlns:dc="http://purl.org/dc/elements/1.1/" xmlns:cc="http://creativecommons.org/ns#" xmlns:rdf="http://www.w3.org/1999/02/22-rdf-syntax-ns#">
   <cc:Work>
    <dc:type rdf:resource="http://purl.org/dc/dcmitype/StillImage"/>
    <dc:date>2026-07-03T16:26:37.098970</dc:date>
    <dc:format>image/svg+xml</dc:format>
    <dc:creator>
     <cc:Agent>
      <dc:title>Matplotlib v3.10.3, https://matplotlib.org/</dc:title>
     </cc:Agent>
    </dc:creator>
   </cc:Work>
  </rdf:RDF>
 </metadata>
 <defs>
  <style type="text/css">*{stroke-linejoin: round; stroke-linecap: butt}</style>
 </defs>
 <g id="figure_1">
  <g id="patch_1">
   <path d="M 0 265.4575 
L 552.841082 265.4575 
L 552.841082 0 
L 0 0 
z
" style="fill: #ffffff"/>
  </g>
  <g id="axes_1">
   <g id="patch_2">
    <path d="M 140.574494 88.3575 
C 140.574494 81.649386 139.235244 75.008284 136.635444 68.824448 
C 134.035643 62.640612 130.227234 57.03759 125.434012 52.344636 
C 120.64079 47.651683 114.95852 43.962558 108.721112 41.49405 
C 102.483704 39.025542 95.815777 37.826968 89.109162 37.96876 
L 90.153187 87.349725 
C 90.287319 87.346889 90.420678 87.370861 90.545426 87.420231 
C 90.670174 87.469601 90.78382 87.543384 90.879684 87.637243 
C 90.975549 87.731102 91.051717 87.843162 91.103713 87.966839 
C 91.155709 88.090516 91.182494 88.223338 91.182494 88.3575 
z
" style="fill: #c0c0c0; stroke: #ffffff; stroke-linejoin: miter"/>
   </g>
   <g id="patch_3">
    <path d="M 89.109164 37.968759 
C 85.811777 38.038475 82.529178 38.431687 79.308614 39.142739 
C 76.088051 39.853792 72.94505 40.879253 69.924837 42.204372 
L 89.769501 87.434437 
C 89.829905 87.407935 89.892765 87.387426 89.957176 87.373205 
C 90.021587 87.358984 90.087239 87.351119 90.153187 87.349725 
z
" style="fill: #696969; stroke: #ffffff; stroke-linejoin: miter"/>
   </g>
   <g id="patch_4">
    <path d="M 69.924837 42.204372 
C 63.642577 44.960709 57.988739 48.970934 53.310545 53.988774 
C 48.632352 59.006615 45.027562 64.927202 42.717567 71.386933 
C 40.407572 77.846664 39.440639 84.710536 39.876155 91.557034 
C 40.311667 98.403532 42.140527 105.089572 45.250413 111.204538 
L 89.276012 88.814441 
C 89.213814 88.692141 89.177237 88.558421 89.168527 88.421491 
C 89.159817 88.284561 89.179155 88.147283 89.225355 88.018089 
C 89.271555 87.888894 89.343651 87.770482 89.437215 87.670125 
C 89.530779 87.569769 89.643855 87.489564 89.769501 87.434437 
z
" style="stroke: #ffffff; stroke-linejoin: miter"/>
   </g>
   <g id="patch_5">
    <path d="M 45.250413 111.204538 
C 50.654124 121.829843 59.656045 130.201035 70.645221 134.820039 
C 81.634399 139.43904 93.913726 140.012854 105.285763 136.438781 
L 90.476719 89.319126 
C 90.249278 89.390607 90.003692 89.379131 89.783908 89.286751 
C 89.564125 89.194371 89.384086 89.026947 89.276012 88.814441 
z
" style="fill: #8b4513; stroke: #ffffff; stroke-linejoin: miter"/>
   </g>
   <g id="patch_6">
    <path d="M 105.285763 136.438781 
C 110.71942 134.731058 115.824486 132.114543 120.383652 128.700611 
C 124.942818 125.286679 128.890466 121.124474 132.058545 116.391165 
L 91.012175 88.918173 
C 90.948813 89.012839 90.86986 89.096084 90.778677 89.164362 
C 90.687494 89.232641 90.585392 89.284971 90.476719 89.319126 
z
" style="fill: #daa520; stroke: #ffffff; stroke-linejoin: miter"/>
   </g>
   <g id="patch_7">
    <path d="M 132.058545 116.391165 
C 134.8194 112.266274 136.955816 107.756082 138.398532 103.006806 
C 139.841247 98.25753 140.574494 93.321063 140.574494 88.357491 
L 91.182494 88.3575 
C 91.182494 88.456771 91.167829 88.555501 91.138975 88.650486 
C 91.11012 88.745472 91.067392 88.835675 91.012175 88.918173 
z
" style="fill: #207653; stroke: #ffffff; stroke-linejoin: miter"/>
   </g>
   <g id="matplotlib.axis_1"/>
   <g id="matplotlib.axis_2"/>
   <g id="text_1">
    <!-- NG -->
    <g transform="translate(128.959965 51.502726) scale(0.1 -0.1)">
     <defs>
      <path id="DejaVuSans-4e" d="M 628 4666 
L 1478 4666 
L 3547 763 
L 3547 4666 
L 4159 4666 
L 4159 0 
L 3309 0 
L 1241 3903 
L 1241 0 
L 628 0 
L 628 4666 
z
" transform="scale(0.015625)"/>
      <path id="DejaVuSans-47" d="M 3809 666 
L 3809 1919 
L 2778 1919 
L 2778 2438 
L 4434 2438 
L 4434 434 
Q 4069 175 3628 42 
Q 3188 -91 2688 -91 
Q 1594 -91 976 548 
Q 359 1188 359 2328 
Q 359 3472 976 4111 
Q 1594 4750 2688 4750 
Q 3144 4750 3555 4637 
Q 3966 4525 4313 4306 
L 4313 3634 
Q 3963 3931 3569 4081 
Q 3175 4231 2741 4231 
Q 1884 4231 1454 3753 
Q 1025 3275 1025 2328 
Q 1025 1384 1454 906 
Q 1884 428 2741 428 
Q 3075 428 3337 486 
Q 3600 544 3809 666 
z
" transform="scale(0.015625)"/>
     </defs>
     <use xlink:href="#DejaVuSans-4e"/>
     <use xlink:href="#DejaVuSans-47" transform="translate(74.804688 0)"/>
    </g>
   </g>
   <g id="text_2">
    <!-- 25.3% -->
    <g transform="translate(95.446612 69.509157) scale(0.1 -0.1)">
     <defs>
      <path id="DejaVuSans-32" d="M 1228 531 
L 3431 531 
L 3431 0 
L 469 0 
L 469 531 
Q 828 903 1448 1529 
Q 2069 2156 2228 2338 
Q 2531 2678 2651 2914 
Q 2772 3150 2772 3378 
Q 2772 3750 2511 3984 
Q 2250 4219 1831 4219 
Q 1534 4219 1204 4116 
Q 875 4013 500 3803 
L 500 4441 
Q 881 4594 1212 4672 
Q 1544 4750 1819 4750 
Q 2544 4750 2975 4387 
Q 3406 4025 3406 3419 
Q 3406 3131 3298 2873 
Q 3191 2616 2906 2266 
Q 2828 2175 2409 1742 
Q 1991 1309 1228 531 
z
" transform="scale(0.015625)"/>
      <path id="DejaVuSans-35" d="M 691 4666 
L 3169 4666 
L 3169 4134 
L 1269 4134 
L 1269 2991 
Q 1406 3038 1543 3061 
Q 1681 3084 1819 3084 
Q 2600 3084 3056 2656 
Q 3513 2228 3513 1497 
Q 3513 744 3044 326 
Q 2575 -91 1722 -91 
Q 1428 -91 1123 -41 
Q 819 9 494 109 
L 494 744 
Q 775 591 1075 516 
Q 1375 441 1709 441 
Q 2250 441 2565 725 
Q 2881 1009 2881 1497 
Q 2881 1984 2565 2268 
Q 2250 2553 1709 2553 
Q 1456 2553 1204 2497 
Q 953 2441 691 2322 
L 691 4666 
z
" transform="scale(0.015625)"/>
      <path id="DejaVuSans-2e" d="M 684 794 
L 1344 794 
L 1344 0 
L 684 0 
L 684 794 
z
" transform="scale(0.015625)"/>
      <path id="DejaVuSans-33" d="M 2597 2516 
Q 3050 2419 3304 2112 
Q 3559 1806 3559 1356 
Q 3559 666 3084 287 
Q 2609 -91 1734 -91 
Q 1441 -91 1130 -33 
Q 819 25 488 141 
L 488 750 
Q 750 597 1062 519 
Q 1375 441 1716 441 
Q 2309 441 2620 675 
Q 2931 909 2931 1356 
Q 2931 1769 2642 2001 
Q 2353 2234 1838 2234 
L 1294 2234 
L 1294 2753 
L 1863 2753 
Q 2328 2753 2575 2939 
Q 2822 3125 2822 3475 
Q 2822 3834 2567 4026 
Q 2313 4219 1838 4219 
Q 1578 4219 1281 4162 
Q 984 4106 628 3988 
L 628 4550 
Q 988 4650 1302 4700 
Q 1616 4750 1894 4750 
Q 2613 4750 3031 4423 
Q 3450 4097 3450 3541 
Q 3450 3153 3228 2886 
Q 3006 2619 2597 2516 
z
" transform="scale(0.015625)"/>
      <path id="DejaVuSans-25" d="M 4653 2053 
Q 4381 2053 4226 1822 
Q 4072 1591 4072 1178 
Q 4072 772 4226 539 
Q 4381 306 4653 306 
Q 4919 306 5073 539 
Q 5228 772 5228 1178 
Q 5228 1588 5073 1820 
Q 4919 2053 4653 2053 
z
M 4653 2450 
Q 5147 2450 5437 2106 
Q 5728 1763 5728 1178 
Q 5728 594 5436 251 
Q 5144 -91 4653 -91 
Q 4153 -91 3862 251 
Q 3572 594 3572 1178 
Q 3572 1766 3864 2108 
Q 4156 2450 4653 2450 
z
M 1428 4353 
Q 1159 4353 1004 4120 
Q 850 3888 850 3481 
Q 850 3069 1003 2837 
Q 1156 2606 1428 2606 
Q 1700 2606 1854 2837 
Q 2009 3069 2009 3481 
Q 2009 3884 1853 4118 
Q 1697 4353 1428 4353 
z
M 4250 4750 
L 4750 4750 
L 1831 -91 
L 1331 -91 
L 4250 4750 
z
M 1428 4750 
Q 1922 4750 2215 4408 
Q 2509 4066 2509 3481 
Q 2509 2891 2217 2550 
Q 1925 2209 1428 2209 
Q 931 2209 642 2551 
Q 353 2894 353 3481 
Q 353 4063 643 4406 
Q 934 4750 1428 4750 
z
" transform="scale(0.015625)"/>
     </defs>
     <use xlink:href="#DejaVuSans-32"/>
     <use xlink:href="#DejaVuSans-35" transform="translate(63.623047 0)"/>
     <use xlink:href="#DejaVuSans-2e" transform="translate(127.246094 0)"/>
     <use xlink:href="#DejaVuSans-33" transform="translate(159.033203 0)"/>
     <use xlink:href="#DejaVuSans-25" transform="translate(222.65625 0)"/>
    </g>
   </g>
   <g id="text_3">
    <!-- LPG -->
    <g transform="translate(58.872027 36.980638) scale(0.1 -0.1)">
     <defs>
      <path id="DejaVuSans-4c" d="M 628 4666 
L 1259 4666 
L 1259 531 
L 3531 531 
L 3531 0 
L 628 0 
L 628 4666 
z
" transform="scale(0.015625)"/>
      <path id="DejaVuSans-50" d="M 1259 4147 
L 1259 2394 
L 2053 2394 
Q 2494 2394 2734 2622 
Q 2975 2850 2975 3272 
Q 2975 3691 2734 3919 
Q 2494 4147 2053 4147 
L 1259 4147 
z
M 628 4666 
L 2053 4666 
Q 2838 4666 3239 4311 
Q 3641 3956 3641 3272 
Q 3641 2581 3239 2228 
Q 2838 1875 2053 1875 
L 1259 1875 
L 1259 0 
L 628 0 
L 628 4666 
z
" transform="scale(0.015625)"/>
     </defs>
     <use xlink:href="#DejaVuSans-4c"/>
     <use xlink:href="#DejaVuSans-50" transform="translate(55.712891 0)"/>
     <use xlink:href="#DejaVuSans-47" transform="translate(116.015625 0)"/>
    </g>
   </g>
   <g id="text_4">
    <!-- 6.2% -->
    <g transform="translate(70.952622 61.588019) scale(0.1 -0.1)">
     <defs>
      <path id="DejaVuSans-36" d="M 2113 2584 
Q 1688 2584 1439 2293 
Q 1191 2003 1191 1497 
Q 1191 994 1439 701 
Q 1688 409 2113 409 
Q 2538 409 2786 701 
Q 3034 994 3034 1497 
Q 3034 2003 2786 2293 
Q 2538 2584 2113 2584 
z
M 3366 4563 
L 3366 3988 
Q 3128 4100 2886 4159 
Q 2644 4219 2406 4219 
Q 1781 4219 1451 3797 
Q 1122 3375 1075 2522 
Q 1259 2794 1537 2939 
Q 1816 3084 2150 3084 
Q 2853 3084 3261 2657 
Q 3669 2231 3669 1497 
Q 3669 778 3244 343 
Q 2819 -91 2113 -91 
Q 1303 -91 875 529 
Q 447 1150 447 2328 
Q 447 3434 972 4092 
Q 1497 4750 2381 4750 
Q 2619 4750 2861 4703 
Q 3103 4656 3366 4563 
z
" transform="scale(0.015625)"/>
     </defs>
     <use xlink:href="#DejaVuSans-36"/>
     <use xlink:href="#DejaVuSans-2e" transform="translate(63.623047 0)"/>
     <use xlink:href="#DejaVuSans-32" transform="translate(95.410156 0)"/>
     <use xlink:href="#DejaVuSans-25" transform="translate(159.033203 0)"/>
    </g>
   </g>
   <g id="text_5">
    <!-- Diesel -->
    <g transform="translate(7.2 72.449251) scale(0.1 -0.1)">
     <defs>
      <path id="DejaVuSans-44" d="M 1259 4147 
L 1259 519 
L 2022 519 
Q 2988 519 3436 956 
Q 3884 1394 3884 2338 
Q 3884 3275 3436 3711 
Q 2988 4147 2022 4147 
L 1259 4147 
z
M 628 4666 
L 1925 4666 
Q 3281 4666 3915 4102 
Q 4550 3538 4550 2338 
Q 4550 1131 3912 565 
Q 3275 0 1925 0 
L 628 0 
L 628 4666 
z
" transform="scale(0.015625)"/>
      <path id="DejaVuSans-69" d="M 603 3500 
L 1178 3500 
L 1178 0 
L 603 0 
L 603 3500 
z
M 603 4863 
L 1178 4863 
L 1178 4134 
L 603 4134 
L 603 4863 
z
" transform="scale(0.015625)"/>
      <path id="DejaVuSans-65" d="M 3597 1894 
L 3597 1613 
L 953 1613 
Q 991 1019 1311 708 
Q 1631 397 2203 397 
Q 2534 397 2845 478 
Q 3156 559 3463 722 
L 3463 178 
Q 3153 47 2828 -22 
Q 2503 -91 2169 -91 
Q 1331 -91 842 396 
Q 353 884 353 1716 
Q 353 2575 817 3079 
Q 1281 3584 2069 3584 
Q 2775 3584 3186 3129 
Q 3597 2675 3597 1894 
z
M 3022 2063 
Q 3016 2534 2758 2815 
Q 2500 3097 2075 3097 
Q 1594 3097 1305 2825 
Q 1016 2553 972 2059 
L 3022 2063 
z
" transform="scale(0.015625)"/>
      <path id="DejaVuSans-73" d="M 2834 3397 
L 2834 2853 
Q 2591 2978 2328 3040 
Q 2066 3103 1784 3103 
Q 1356 3103 1142 2972 
Q 928 2841 928 2578 
Q 928 2378 1081 2264 
Q 1234 2150 1697 2047 
L 1894 2003 
Q 2506 1872 2764 1633 
Q 3022 1394 3022 966 
Q 3022 478 2636 193 
Q 2250 -91 1575 -91 
Q 1294 -91 989 -36 
Q 684 19 347 128 
L 347 722 
Q 666 556 975 473 
Q 1284 391 1588 391 
Q 1994 391 2212 530 
Q 2431 669 2431 922 
Q 2431 1156 2273 1281 
Q 2116 1406 1581 1522 
L 1381 1569 
Q 847 1681 609 1914 
Q 372 2147 372 2553 
Q 372 3047 722 3315 
Q 1072 3584 1716 3584 
Q 2034 3584 2315 3537 
Q 2597 3491 2834 3397 
z
" transform="scale(0.015625)"/>
      <path id="DejaVuSans-6c" d="M 603 4863 
L 1178 4863 
L 1178 0 
L 603 0 
L 603 4863 
z
" transform="scale(0.015625)"/>
     </defs>
     <use xlink:href="#DejaVuSans-44"/>
     <use xlink:href="#DejaVuSans-69" transform="translate(77.001953 0)"/>
     <use xlink:href="#DejaVuSans-65" transform="translate(104.785156 0)"/>
     <use xlink:href="#DejaVuSans-73" transform="translate(166.308594 0)"/>
     <use xlink:href="#DejaVuSans-65" transform="translate(218.408203 0)"/>
     <use xlink:href="#DejaVuSans-6c" transform="translate(279.931641 0)"/>
    </g>
   </g>
   <g id="text_6">
    <!-- 25.9% -->
    <g transform="translate(45.816744 80.934535) scale(0.1 -0.1)">
     <defs>
      <path id="DejaVuSans-39" d="M 703 97 
L 703 672 
Q 941 559 1184 500 
Q 1428 441 1663 441 
Q 2288 441 2617 861 
Q 2947 1281 2994 2138 
Q 2813 1869 2534 1725 
Q 2256 1581 1919 1581 
Q 1219 1581 811 2004 
Q 403 2428 403 3163 
Q 403 3881 828 4315 
Q 1253 4750 1959 4750 
Q 2769 4750 3195 4129 
Q 3622 3509 3622 2328 
Q 3622 1225 3098 567 
Q 2575 -91 1691 -91 
Q 1453 -91 1209 -44 
Q 966 3 703 97 
z
M 1959 2075 
Q 2384 2075 2632 2365 
Q 2881 2656 2881 3163 
Q 2881 3666 2632 3958 
Q 2384 4250 1959 4250 
Q 1534 4250 1286 3958 
Q 1038 3666 1038 3163 
Q 1038 2656 1286 2365 
Q 1534 2075 1959 2075 
z
" transform="scale(0.015625)"/>
     </defs>
     <use xlink:href="#DejaVuSans-32"/>
     <use xlink:href="#DejaVuSans-35" transform="translate(63.623047 0)"/>
     <use xlink:href="#DejaVuSans-2e" transform="translate(127.246094 0)"/>
     <use xlink:href="#DejaVuSans-39" transform="translate(159.033203 0)"/>
     <use xlink:href="#DejaVuSans-25" transform="translate(222.65625 0)"/>
    </g>
   </g>
   <g id="text_7">
    <!-- Gasoline -->
    <g transform="translate(25.440733 142.225668) scale(0.1 -0.1)">
     <defs>
      <path id="DejaVuSans-61" d="M 2194 1759 
Q 1497 1759 1228 1600 
Q 959 1441 959 1056 
Q 959 750 1161 570 
Q 1363 391 1709 391 
Q 2188 391 2477 730 
Q 2766 1069 2766 1631 
L 2766 1759 
L 2194 1759 
z
M 3341 1997 
L 3341 0 
L 2766 0 
L 2766 531 
Q 2569 213 2275 61 
Q 1981 -91 1556 -91 
Q 1019 -91 701 211 
Q 384 513 384 1019 
Q 384 1609 779 1909 
Q 1175 2209 1959 2209 
L 2766 2209 
L 2766 2266 
Q 2766 2663 2505 2880 
Q 2244 3097 1772 3097 
Q 1472 3097 1187 3025 
Q 903 2953 641 2809 
L 641 3341 
Q 956 3463 1253 3523 
Q 1550 3584 1831 3584 
Q 2591 3584 2966 3190 
Q 3341 2797 3341 1997 
z
" transform="scale(0.015625)"/>
      <path id="DejaVuSans-6f" d="M 1959 3097 
Q 1497 3097 1228 2736 
Q 959 2375 959 1747 
Q 959 1119 1226 758 
Q 1494 397 1959 397 
Q 2419 397 2687 759 
Q 2956 1122 2956 1747 
Q 2956 2369 2687 2733 
Q 2419 3097 1959 3097 
z
M 1959 3584 
Q 2709 3584 3137 3096 
Q 3566 2609 3566 1747 
Q 3566 888 3137 398 
Q 2709 -91 1959 -91 
Q 1206 -91 779 398 
Q 353 888 353 1747 
Q 353 2609 779 3096 
Q 1206 3584 1959 3584 
z
" transform="scale(0.015625)"/>
      <path id="DejaVuSans-6e" d="M 3513 2113 
L 3513 0 
L 2938 0 
L 2938 2094 
Q 2938 2591 2744 2837 
Q 2550 3084 2163 3084 
Q 1697 3084 1428 2787 
Q 1159 2491 1159 1978 
L 1159 0 
L 581 0 
L 581 3500 
L 1159 3500 
L 1159 2956 
Q 1366 3272 1645 3428 
Q 1925 3584 2291 3584 
Q 2894 3584 3203 3211 
Q 3513 2838 3513 2113 
z
" transform="scale(0.015625)"/>
     </defs>
     <use xlink:href="#DejaVuSans-47"/>
     <use xlink:href="#DejaVuSans-61" transform="translate(77.490234 0)"/>
     <use xlink:href="#DejaVuSans-73" transform="translate(138.769531 0)"/>
     <use xlink:href="#DejaVuSans-6f" transform="translate(190.869141 0)"/>
     <use xlink:href="#DejaVuSans-6c" transform="translate(252.050781 0)"/>
     <use xlink:href="#DejaVuSans-69" transform="translate(279.833984 0)"/>
     <use xlink:href="#DejaVuSans-6e" transform="translate(307.617188 0)"/>
     <use xlink:href="#DejaVuSans-65" transform="translate(370.996094 0)"/>
    </g>
   </g>
   <g id="text_8">
    <!-- 22.4% -->
    <g transform="translate(62.573337 118.994399) scale(0.1 -0.1)">
     <defs>
      <path id="DejaVuSans-34" d="M 2419 4116 
L 825 1625 
L 2419 1625 
L 2419 4116 
z
M 2253 4666 
L 3047 4666 
L 3047 1625 
L 3713 1625 
L 3713 1100 
L 3047 1100 
L 3047 0 
L 2419 0 
L 2419 1100 
L 313 1100 
L 313 1709 
L 2253 4666 
z
" transform="scale(0.015625)"/>
     </defs>
     <use xlink:href="#DejaVuSans-32"/>
     <use xlink:href="#DejaVuSans-32" transform="translate(63.623047 0)"/>
     <use xlink:href="#DejaVuSans-2e" transform="translate(127.246094 0)"/>
     <use xlink:href="#DejaVuSans-34" transform="translate(159.033203 0)"/>
     <use xlink:href="#DejaVuSans-25" transform="translate(222.65625 0)"/>
    </g>
   </g>
   <g id="text_9">
    <!-- Elec. -->
    <g transform="translate(123.40457 135.494298) scale(0.1 -0.1)">
     <defs>
      <path id="DejaVuSans-45" d="M 628 4666 
L 3578 4666 
L 3578 4134 
L 1259 4134 
L 1259 2753 
L 3481 2753 
L 3481 2222 
L 1259 2222 
L 1259 531 
L 3634 531 
L 3634 0 
L 628 0 
L 628 4666 
z
" transform="scale(0.015625)"/>
      <path id="DejaVuSans-63" d="M 3122 3366 
L 3122 2828 
Q 2878 2963 2633 3030 
Q 2388 3097 2138 3097 
Q 1578 3097 1268 2742 
Q 959 2388 959 1747 
Q 959 1106 1268 751 
Q 1578 397 2138 397 
Q 2388 397 2633 464 
Q 2878 531 3122 666 
L 3122 134 
Q 2881 22 2623 -34 
Q 2366 -91 2075 -91 
Q 1284 -91 818 406 
Q 353 903 353 1747 
Q 353 2603 823 3093 
Q 1294 3584 2113 3584 
Q 2378 3584 2631 3529 
Q 2884 3475 3122 3366 
z
" transform="scale(0.015625)"/>
     </defs>
     <use xlink:href="#DejaVuSans-45"/>
     <use xlink:href="#DejaVuSans-6c" transform="translate(63.183594 0)"/>
     <use xlink:href="#DejaVuSans-65" transform="translate(90.966797 0)"/>
     <use xlink:href="#DejaVuSans-63" transform="translate(152.490234 0)"/>
     <use xlink:href="#DejaVuSans-2e" transform="translate(207.470703 0)"/>
    </g>
   </g>
   <g id="text_10">
    <!-- 10.8% -->
    <g transform="translate(92.416396 115.322742) scale(0.1 -0.1)">
     <defs>
      <path id="DejaVuSans-31" d="M 794 531 
L 1825 531 
L 1825 4091 
L 703 3866 
L 703 4441 
L 1819 4666 
L 2450 4666 
L 2450 531 
L 3481 531 
L 3481 0 
L 794 0 
L 794 531 
z
" transform="scale(0.015625)"/>
      <path id="DejaVuSans-30" d="M 2034 4250 
Q 1547 4250 1301 3770 
Q 1056 3291 1056 2328 
Q 1056 1369 1301 889 
Q 1547 409 2034 409 
Q 2525 409 2770 889 
Q 3016 1369 3016 2328 
Q 3016 3291 2770 3770 
Q 2525 4250 2034 4250 
z
M 2034 4750 
Q 2819 4750 3233 4129 
Q 3647 3509 3647 2328 
Q 3647 1150 3233 529 
Q 2819 -91 2034 -91 
Q 1250 -91 836 529 
Q 422 1150 422 2328 
Q 422 3509 836 4129 
Q 1250 4750 2034 4750 
z
" transform="scale(0.015625)"/>
      <path id="DejaVuSans-38" d="M 2034 2216 
Q 1584 2216 1326 1975 
Q 1069 1734 1069 1313 
Q 1069 891 1326 650 
Q 1584 409 2034 409 
Q 2484 409 2743 651 
Q 3003 894 3003 1313 
Q 3003 1734 2745 1975 
Q 2488 2216 2034 2216 
z
M 1403 2484 
Q 997 2584 770 2862 
Q 544 3141 544 3541 
Q 544 4100 942 4425 
Q 1341 4750 2034 4750 
Q 2731 4750 3128 4425 
Q 3525 4100 3525 3541 
Q 3525 3141 3298 2862 
Q 3072 2584 2669 2484 
Q 3125 2378 3379 2068 
Q 3634 1759 3634 1313 
Q 3634 634 3220 271 
Q 2806 -91 2034 -91 
Q 1263 -91 848 271 
Q 434 634 434 1313 
Q 434 1759 690 2068 
Q 947 2378 1403 2484 
z
M 1172 3481 
Q 1172 3119 1398 2916 
Q 1625 2713 2034 2713 
Q 2441 2713 2670 2916 
Q 2900 3119 2900 3481 
Q 2900 3844 2670 4047 
Q 2441 4250 2034 4250 
Q 1625 4250 1398 4047 
Q 1172 3844 1172 3481 
z
" transform="scale(0.015625)"/>
     </defs>
     <use xlink:href="#DejaVuSans-31"/>
     <use xlink:href="#DejaVuSans-30" transform="translate(63.623047 0)"/>
     <use xlink:href="#DejaVuSans-2e" transform="translate(127.246094 0)"/>
     <use xlink:href="#DejaVuSans-38" transform="translate(159.033203 0)"/>
     <use xlink:href="#DejaVuSans-25" transform="translate(222.65625 0)"/>
    </g>
   </g>
   <g id="text_11">
    <!-- Biomass -->
    <g transform="translate(143.220943 107.231086) scale(0.1 -0.1)">
     <defs>
      <path id="DejaVuSans-42" d="M 1259 2228 
L 1259 519 
L 2272 519 
Q 2781 519 3026 730 
Q 3272 941 3272 1375 
Q 3272 1813 3026 2020 
Q 2781 2228 2272 2228 
L 1259 2228 
z
M 1259 4147 
L 1259 2741 
L 2194 2741 
Q 2656 2741 2882 2914 
Q 3109 3088 3109 3444 
Q 3109 3797 2882 3972 
Q 2656 4147 2194 4147 
L 1259 4147 
z
M 628 4666 
L 2241 4666 
Q 2963 4666 3353 4366 
Q 3744 4066 3744 3513 
Q 3744 3084 3544 2831 
Q 3344 2578 2956 2516 
Q 3422 2416 3680 2098 
Q 3938 1781 3938 1306 
Q 3938 681 3513 340 
Q 3088 0 2303 0 
L 628 0 
L 628 4666 
z
" transform="scale(0.015625)"/>
      <path id="DejaVuSans-6d" d="M 3328 2828 
Q 3544 3216 3844 3400 
Q 4144 3584 4550 3584 
Q 5097 3584 5394 3201 
Q 5691 2819 5691 2113 
L 5691 0 
L 5113 0 
L 5113 2094 
Q 5113 2597 4934 2840 
Q 4756 3084 4391 3084 
Q 3944 3084 3684 2787 
Q 3425 2491 3425 1978 
L 3425 0 
L 2847 0 
L 2847 2094 
Q 2847 2600 2669 2842 
Q 2491 3084 2119 3084 
Q 1678 3084 1418 2786 
Q 1159 2488 1159 1978 
L 1159 0 
L 581 0 
L 581 3500 
L 1159 3500 
L 1159 2956 
Q 1356 3278 1631 3431 
Q 1906 3584 2284 3584 
Q 2666 3584 2933 3390 
Q 3200 3197 3328 2828 
z
" transform="scale(0.015625)"/>
     </defs>
     <use xlink:href="#DejaVuSans-42"/>
     <use xlink:href="#DejaVuSans-69" transform="translate(68.603516 0)"/>
     <use xlink:href="#DejaVuSans-6f" transform="translate(96.386719 0)"/>
     <use xlink:href="#DejaVuSans-6d" transform="translate(157.568359 0)"/>
     <use xlink:href="#DejaVuSans-61" transform="translate(254.980469 0)"/>
     <use xlink:href="#DejaVuSans-73" transform="translate(316.259766 0)"/>
     <use xlink:href="#DejaVuSans-73" transform="translate(368.359375 0)"/>
    </g>
   </g>
   <g id="text_12">
    <!-- 9.4% -->
    <g transform="translate(106.406577 99.906445) scale(0.1 -0.1)">
     <use xlink:href="#DejaVuSans-39"/>
     <use xlink:href="#DejaVuSans-2e" transform="translate(63.623047 0)"/>
     <use xlink:href="#DejaVuSans-34" transform="translate(95.410156 0)"/>
     <use xlink:href="#DejaVuSans-25" transform="translate(159.033203 0)"/>
    </g>
   </g>
   <g id="text_13">
    <!-- Source -->
    <g transform="translate(59.108244 19.3575) scale(0.16 -0.16)">
     <defs>
      <path id="DejaVuSans-Bold-53" d="M 3834 4519 
L 3834 3531 
Q 3450 3703 3084 3790 
Q 2719 3878 2394 3878 
Q 1963 3878 1756 3759 
Q 1550 3641 1550 3391 
Q 1550 3203 1689 3098 
Q 1828 2994 2194 2919 
L 2706 2816 
Q 3484 2659 3812 2340 
Q 4141 2022 4141 1434 
Q 4141 663 3683 286 
Q 3225 -91 2284 -91 
Q 1841 -91 1394 -6 
Q 947 78 500 244 
L 500 1259 
Q 947 1022 1364 901 
Q 1781 781 2169 781 
Q 2563 781 2772 912 
Q 2981 1044 2981 1288 
Q 2981 1506 2839 1625 
Q 2697 1744 2272 1838 
L 1806 1941 
Q 1106 2091 782 2419 
Q 459 2747 459 3303 
Q 459 4000 909 4375 
Q 1359 4750 2203 4750 
Q 2588 4750 2994 4692 
Q 3400 4634 3834 4519 
z
" transform="scale(0.015625)"/>
      <path id="DejaVuSans-Bold-6f" d="M 2203 2784 
Q 1831 2784 1636 2517 
Q 1441 2250 1441 1747 
Q 1441 1244 1636 976 
Q 1831 709 2203 709 
Q 2569 709 2762 976 
Q 2956 1244 2956 1747 
Q 2956 2250 2762 2517 
Q 2569 2784 2203 2784 
z
M 2203 3584 
Q 3106 3584 3614 3096 
Q 4122 2609 4122 1747 
Q 4122 884 3614 396 
Q 3106 -91 2203 -91 
Q 1297 -91 786 396 
Q 275 884 275 1747 
Q 275 2609 786 3096 
Q 1297 3584 2203 3584 
z
" transform="scale(0.015625)"/>
      <path id="DejaVuSans-Bold-75" d="M 500 1363 
L 500 3500 
L 1625 3500 
L 1625 3150 
Q 1625 2866 1622 2436 
Q 1619 2006 1619 1863 
Q 1619 1441 1641 1255 
Q 1663 1069 1716 984 
Q 1784 875 1895 815 
Q 2006 756 2150 756 
Q 2500 756 2700 1025 
Q 2900 1294 2900 1772 
L 2900 3500 
L 4019 3500 
L 4019 0 
L 2900 0 
L 2900 506 
Q 2647 200 2364 54 
Q 2081 -91 1741 -91 
Q 1134 -91 817 281 
Q 500 653 500 1363 
z
" transform="scale(0.015625)"/>
      <path id="DejaVuSans-Bold-72" d="M 3138 2547 
Q 2991 2616 2845 2648 
Q 2700 2681 2553 2681 
Q 2122 2681 1889 2404 
Q 1656 2128 1656 1613 
L 1656 0 
L 538 0 
L 538 3500 
L 1656 3500 
L 1656 2925 
Q 1872 3269 2151 3426 
Q 2431 3584 2822 3584 
Q 2878 3584 2943 3579 
Q 3009 3575 3134 3559 
L 3138 2547 
z
" transform="scale(0.015625)"/>
      <path id="DejaVuSans-Bold-63" d="M 3366 3391 
L 3366 2478 
Q 3138 2634 2908 2709 
Q 2678 2784 2431 2784 
Q 1963 2784 1702 2511 
Q 1441 2238 1441 1747 
Q 1441 1256 1702 982 
Q 1963 709 2431 709 
Q 2694 709 2930 787 
Q 3166 866 3366 1019 
L 3366 103 
Q 3103 6 2833 -42 
Q 2563 -91 2291 -91 
Q 1344 -91 809 395 
Q 275 881 275 1747 
Q 275 2613 809 3098 
Q 1344 3584 2291 3584 
Q 2566 3584 2833 3536 
Q 3100 3488 3366 3391 
z
" transform="scale(0.015625)"/>
      <path id="DejaVuSans-Bold-65" d="M 4031 1759 
L 4031 1441 
L 1416 1441 
Q 1456 1047 1700 850 
Q 1944 653 2381 653 
Q 2734 653 3104 758 
Q 3475 863 3866 1075 
L 3866 213 
Q 3469 63 3072 -14 
Q 2675 -91 2278 -91 
Q 1328 -91 801 392 
Q 275 875 275 1747 
Q 275 2603 792 3093 
Q 1309 3584 2216 3584 
Q 3041 3584 3536 3087 
Q 4031 2591 4031 1759 
z
M 2881 2131 
Q 2881 2450 2695 2645 
Q 2509 2841 2209 2841 
Q 1884 2841 1681 2658 
Q 1478 2475 1428 2131 
L 2881 2131 
z
" transform="scale(0.015625)"/>
     </defs>
     <use xlink:href="#DejaVuSans-Bold-53"/>
     <use xlink:href="#DejaVuSans-Bold-6f" transform="translate(72.021484 0)"/>
     <use xlink:href="#DejaVuSans-Bold-75" transform="translate(140.722656 0)"/>
     <use xlink:href="#DejaVuSans-Bold-72" transform="translate(211.914062 0)"/>
     <use xlink:href="#DejaVuSans-Bold-63" transform="translate(261.230469 0)"/>
     <use xlink:href="#DejaVuSans-Bold-65" transform="translate(320.507812 0)"/>
    </g>
   </g>
   <g id="legend_1">
    <g id="patch_8">
     <path d="M 75.360978 154.946094 
L 101.360978 154.946094 
L 101.360978 145.846094 
L 75.360978 145.846094 
z
" style="fill: #c0c0c0; stroke: #ffffff; stroke-linejoin: miter"/>
    </g>
    <g id="text_14">
     <!-- NG -->
     <g transform="translate(111.760978 154.946094) scale(0.13 -0.13)">
      <use xlink:href="#DejaVuSans-4e"/>
      <use xlink:href="#DejaVuSans-47" transform="translate(74.804688 0)"/>
     </g>
    </g>
    <g id="patch_9">
     <path d="M 75.360978 174.027656 
L 101.360978 174.027656 
L 101.360978 164.927656 
L 75.360978 164.927656 
z
" style="fill: #696969; stroke: #ffffff; stroke-linejoin: miter"/>
    </g>
    <g id="text_15">
     <!-- LPG -->
     <g transform="translate(111.760978 174.027656) scale(0.13 -0.13)">
      <use xlink:href="#DejaVuSans-4c"/>
      <use xlink:href="#DejaVuSans-50" transform="translate(55.712891 0)"/>
      <use xlink:href="#DejaVuSans-47" transform="translate(116.015625 0)"/>
     </g>
    </g>
    <g id="patch_10">
     <path d="M 75.360978 193.109219 
L 101.360978 193.109219 
L 101.360978 184.009219 
L 75.360978 184.009219 
z
" style="stroke: #ffffff; stroke-linejoin: miter"/>
    </g>
    <g id="text_16">
     <!-- Diesel -->
     <g transform="translate(111.760978 193.109219) scale(0.13 -0.13)">
      <use xlink:href="#DejaVuSans-44"/>
      <use xlink:href="#DejaVuSans-69" transform="translate(77.001953 0)"/>
      <use xlink:href="#DejaVuSans-65" transform="translate(104.785156 0)"/>
      <use xlink:href="#DejaVuSans-73" transform="translate(166.308594 0)"/>
      <use xlink:href="#DejaVuSans-65" transform="translate(218.408203 0)"/>
      <use xlink:href="#DejaVuSans-6c" transform="translate(279.931641 0)"/>
     </g>
    </g>
    <g id="patch_11">
     <path d="M 75.360978 212.190781 
L 101.360978 212.190781 
L 101.360978 203.090781 
L 75.360978 203.090781 
z
" style="fill: #8b4513; stroke: #ffffff; stroke-linejoin: miter"/>
    </g>
    <g id="text_17">
     <!-- Gasoline -->
     <g transform="translate(111.760978 212.190781) scale(0.13 -0.13)">
      <use xlink:href="#DejaVuSans-47"/>
      <use xlink:href="#DejaVuSans-61" transform="translate(77.490234 0)"/>
      <use xlink:href="#DejaVuSans-73" transform="translate(138.769531 0)"/>
      <use xlink:href="#DejaVuSans-6f" transform="translate(190.869141 0)"/>
      <use xlink:href="#DejaVuSans-6c" transform="translate(252.050781 0)"/>
      <use xlink:href="#DejaVuSans-69" transform="translate(279.833984 0)"/>
      <use xlink:href="#DejaVuSans-6e" transform="translate(307.617188 0)"/>
      <use xlink:href="#DejaVuSans-65" transform="translate(370.996094 0)"/>
     </g>
    </g>
    <g id="patch_12">
     <path d="M 75.360978 231.272344 
L 101.360978 231.272344 
L 101.360978 222.172344 
L 75.360978 222.172344 
z
" style="fill: #daa520; stroke: #ffffff; stroke-linejoin: miter"/>
    </g>
    <g id="text_18">
     <!-- Elec. -->
     <g transform="translate(111.760978 231.272344) scale(0.13 -0.13)">
      <use xlink:href="#DejaVuSans-45"/>
      <use xlink:href="#DejaVuSans-6c" transform="translate(63.183594 0)"/>
      <use xlink:href="#DejaVuSans-65" transform="translate(90.966797 0)"/>
      <use xlink:href="#DejaVuSans-63" transform="translate(152.490234 0)"/>
      <use xlink:href="#DejaVuSans-2e" transform="translate(207.470703 0)"/>
     </g>
    </g>
    <g id="patch_13">
     <path d="M 75.360978 250.353906 
L 101.360978 250.353906 
L 101.360978 241.253906 
L 75.360978 241.253906 
z
" style="fill: #207653; stroke: #ffffff; stroke-linejoin: miter"/>
    </g>
    <g id="text_19">
     <!-- Biomass -->
     <g transform="translate(111.760978 250.353906) scale(0.13 -0.13)">
      <use xlink:href="#DejaVuSans-42"/>
      <use xlink:href="#DejaVuSans-69" transform="translate(68.603516 0)"/>
      <use xlink:href="#DejaVuSans-6f" transform="translate(96.386719 0)"/>
      <use xlink:href="#DejaVuSans-6d" transform="translate(157.568359 0)"/>
      <use xlink:href="#DejaVuSans-61" transform="translate(254.980469 0)"/>
      <use xlink:href="#DejaVuSans-73" transform="translate(316.259766 0)"/>
      <use xlink:href="#DejaVuSans-73" transform="translate(368.359375 0)"/>
     </g>
    </g>
   </g>
  </g>
  <g id="axes_2">
   <g id="patch_14">
    <path d="M 272.874494 88.3575 
C 272.874494 76.909792 268.974196 65.796744 261.819932 56.859937 
C 254.665669 47.92313 244.675731 41.685077 233.505586 39.179507 
L 222.695116 87.37394 
C 222.918519 87.424052 223.118317 87.548813 223.261403 87.727549 
C 223.404488 87.906285 223.482494 88.128546 223.482494 88.3575 
z
" style="fill: #fbaa1b; stroke: #ffffff; stroke-linejoin: miter"/>
   </g>
   <g id="patch_15">
    <path d="M 233.505588 39.179506 
C 222.445775 36.698685 210.866003 38.019871 200.649253 42.928227 
C 190.432502 47.836584 182.164298 56.05081 177.189134 66.235196 
L 221.568787 87.915054 
C 221.66829 87.711366 221.833654 87.547082 222.037989 87.448915 
C 222.242324 87.350747 222.473919 87.324324 222.695116 87.37394 
z
" style="fill: #8fc73e; stroke: #ffffff; stroke-linejoin: miter"/>
   </g>
   <g id="patch_16">
    <path d="M 177.189134 66.235196 
C 172.577814 75.67478 171.031371 86.324046 172.767281 96.68535 
C 174.503195 107.046653 179.436095 116.610396 186.872235 124.031568 
C 194.308376 131.452739 203.882039 136.366359 214.24682 138.081391 
C 224.611601 139.796423 235.257727 138.228525 244.688001 133.598192 
L 222.918764 89.262314 
C 222.730158 89.35492 222.517236 89.386278 222.30994 89.351978 
C 222.102645 89.317677 221.911171 89.219405 221.762449 89.070981 
C 221.613726 88.922558 221.515068 88.731283 221.48035 88.524057 
C 221.445631 88.316831 221.47656 88.103846 221.568787 87.915054 
z
" style="fill: #207653; stroke: #ffffff; stroke-linejoin: miter"/>
   </g>
   <g id="patch_17">
    <path d="M 244.688001 133.598192 
C 252.85812 129.586606 259.79097 123.435758 264.74717 115.801639 
C 269.703369 108.167521 272.500234 99.331522 272.839475 90.235996 
L 223.481793 88.39507 
C 223.475009 88.57698 223.419071 88.7537 223.319947 88.906383 
C 223.220823 89.059065 223.082166 89.182082 222.918764 89.262314 
z
" style="fill: #a1140b; stroke: #ffffff; stroke-linejoin: miter"/>
   </g>
   <g id="patch_18">
    <path d="M 272.839475 90.235996 
C 272.851146 89.923063 272.8599 89.610039 272.865737 89.296943 
C 272.871574 88.983846 272.874494 88.67069 272.874494 88.357539 
L 223.482494 88.357501 
C 223.482494 88.363764 223.482435 88.370027 223.482319 88.376289 
C 223.482202 88.382551 223.482027 88.388811 223.481793 88.39507 
z
" style="fill: #36495a; stroke: #ffffff; stroke-linejoin: miter"/>
   </g>
   <g id="matplotlib.axis_3"/>
   <g id="matplotlib.axis_4"/>
   <g id="text_20">
    <!-- Norte -->
    <g transform="translate(265.754475 56.469554) scale(0.1 -0.1)">
     <defs>
      <path id="DejaVuSans-72" d="M 2631 2963 
Q 2534 3019 2420 3045 
Q 2306 3072 2169 3072 
Q 1681 3072 1420 2755 
Q 1159 2438 1159 1844 
L 1159 0 
L 581 0 
L 581 3500 
L 1159 3500 
L 1159 2956 
Q 1341 3275 1631 3429 
Q 1922 3584 2338 3584 
Q 2397 3584 2469 3576 
Q 2541 3569 2628 3553 
L 2631 2963 
z
" transform="scale(0.015625)"/>
      <path id="DejaVuSans-74" d="M 1172 4494 
L 1172 3500 
L 2356 3500 
L 2356 3053 
L 1172 3053 
L 1172 1153 
Q 1172 725 1289 603 
Q 1406 481 1766 481 
L 2356 481 
L 2356 0 
L 1766 0 
Q 1100 0 847 248 
Q 594 497 594 1153 
L 594 3053 
L 172 3053 
L 172 3500 
L 594 3500 
L 594 4494 
L 1172 4494 
z
" transform="scale(0.015625)"/>
     </defs>
     <use xlink:href="#DejaVuSans-4e"/>
     <use xlink:href="#DejaVuSans-6f" transform="translate(74.804688 0)"/>
     <use xlink:href="#DejaVuSans-72" transform="translate(135.986328 0)"/>
     <use xlink:href="#DejaVuSans-74" transform="translate(177.099609 0)"/>
     <use xlink:href="#DejaVuSans-65" transform="translate(216.308594 0)"/>
    </g>
   </g>
   <g id="text_21">
    <!-- 21.5% -->
    <g transform="translate(230.198162 72.218336) scale(0.1 -0.1)">
     <use xlink:href="#DejaVuSans-32"/>
     <use xlink:href="#DejaVuSans-31" transform="translate(63.623047 0)"/>
     <use xlink:href="#DejaVuSans-2e" transform="translate(127.246094 0)"/>
     <use xlink:href="#DejaVuSans-35" transform="translate(159.033203 0)"/>
     <use xlink:href="#DejaVuSans-25" transform="translate(222.65625 0)"/>
    </g>
   </g>
   <g id="text_22">
    <!-- Centro -->
    <g transform="translate(165.06829 41.144675) scale(0.1 -0.1)">
     <defs>
      <path id="DejaVuSans-43" d="M 4122 4306 
L 4122 3641 
Q 3803 3938 3442 4084 
Q 3081 4231 2675 4231 
Q 1875 4231 1450 3742 
Q 1025 3253 1025 2328 
Q 1025 1406 1450 917 
Q 1875 428 2675 428 
Q 3081 428 3442 575 
Q 3803 722 4122 1019 
L 4122 359 
Q 3791 134 3420 21 
Q 3050 -91 2638 -91 
Q 1578 -91 968 557 
Q 359 1206 359 2328 
Q 359 3453 968 4101 
Q 1578 4750 2638 4750 
Q 3056 4750 3426 4639 
Q 3797 4528 4122 4306 
z
" transform="scale(0.015625)"/>
     </defs>
     <use xlink:href="#DejaVuSans-43"/>
     <use xlink:href="#DejaVuSans-65" transform="translate(69.824219 0)"/>
     <use xlink:href="#DejaVuSans-6e" transform="translate(131.347656 0)"/>
     <use xlink:href="#DejaVuSans-74" transform="translate(194.726562 0)"/>
     <use xlink:href="#DejaVuSans-72" transform="translate(233.935547 0)"/>
     <use xlink:href="#DejaVuSans-6f" transform="translate(272.798828 0)"/>
    </g>
   </g>
   <g id="text_23">
    <!-- 21.3% -->
    <g transform="translate(193.495755 63.859312) scale(0.1 -0.1)">
     <use xlink:href="#DejaVuSans-32"/>
     <use xlink:href="#DejaVuSans-31" transform="translate(63.623047 0)"/>
     <use xlink:href="#DejaVuSans-2e" transform="translate(127.246094 0)"/>
     <use xlink:href="#DejaVuSans-33" transform="translate(159.033203 0)"/>
     <use xlink:href="#DejaVuSans-25" transform="translate(222.65625 0)"/>
    </g>
   </g>
   <g id="text_24">
    <!-- Oriente -->
    <g transform="translate(145.987009 130.358351) scale(0.1 -0.1)">
     <defs>
      <path id="DejaVuSans-4f" d="M 2522 4238 
Q 1834 4238 1429 3725 
Q 1025 3213 1025 2328 
Q 1025 1447 1429 934 
Q 1834 422 2522 422 
Q 3209 422 3611 934 
Q 4013 1447 4013 2328 
Q 4013 3213 3611 3725 
Q 3209 4238 2522 4238 
z
M 2522 4750 
Q 3503 4750 4090 4092 
Q 4678 3434 4678 2328 
Q 4678 1225 4090 567 
Q 3503 -91 2522 -91 
Q 1538 -91 948 565 
Q 359 1222 359 2328 
Q 359 3434 948 4092 
Q 1538 4750 2522 4750 
z
" transform="scale(0.015625)"/>
     </defs>
     <use xlink:href="#DejaVuSans-4f"/>
     <use xlink:href="#DejaVuSans-72" transform="translate(78.710938 0)"/>
     <use xlink:href="#DejaVuSans-69" transform="translate(119.824219 0)"/>
     <use xlink:href="#DejaVuSans-65" transform="translate(147.607422 0)"/>
     <use xlink:href="#DejaVuSans-6e" transform="translate(209.130859 0)"/>
     <use xlink:href="#DejaVuSans-74" transform="translate(272.509766 0)"/>
     <use xlink:href="#DejaVuSans-65" transform="translate(311.71875 0)"/>
    </g>
   </g>
   <g id="text_25">
    <!-- 39.5% -->
    <g transform="translate(185.229545 112.521316) scale(0.1 -0.1)">
     <use xlink:href="#DejaVuSans-33"/>
     <use xlink:href="#DejaVuSans-39" transform="translate(63.623047 0)"/>
     <use xlink:href="#DejaVuSans-2e" transform="translate(127.246094 0)"/>
     <use xlink:href="#DejaVuSans-35" transform="translate(159.033203 0)"/>
     <use xlink:href="#DejaVuSans-25" transform="translate(222.65625 0)"/>
    </g>
   </g>
   <g id="text_26">
    <!-- Sur -->
    <g transform="translate(268.974438 121.305428) scale(0.1 -0.1)">
     <defs>
      <path id="DejaVuSans-53" d="M 3425 4513 
L 3425 3897 
Q 3066 4069 2747 4153 
Q 2428 4238 2131 4238 
Q 1616 4238 1336 4038 
Q 1056 3838 1056 3469 
Q 1056 3159 1242 3001 
Q 1428 2844 1947 2747 
L 2328 2669 
Q 3034 2534 3370 2195 
Q 3706 1856 3706 1288 
Q 3706 609 3251 259 
Q 2797 -91 1919 -91 
Q 1588 -91 1214 -16 
Q 841 59 441 206 
L 441 856 
Q 825 641 1194 531 
Q 1563 422 1919 422 
Q 2459 422 2753 634 
Q 3047 847 3047 1241 
Q 3047 1584 2836 1778 
Q 2625 1972 2144 2069 
L 1759 2144 
Q 1053 2284 737 2584 
Q 422 2884 422 3419 
Q 422 4038 858 4394 
Q 1294 4750 2059 4750 
Q 2388 4750 2728 4690 
Q 3069 4631 3425 4513 
z
" transform="scale(0.015625)"/>
      <path id="DejaVuSans-75" d="M 544 1381 
L 544 3500 
L 1119 3500 
L 1119 1403 
Q 1119 906 1312 657 
Q 1506 409 1894 409 
Q 2359 409 2629 706 
Q 2900 1003 2900 1516 
L 2900 3500 
L 3475 3500 
L 3475 0 
L 2900 0 
L 2900 538 
Q 2691 219 2414 64 
Q 2138 -91 1772 -91 
Q 1169 -91 856 284 
Q 544 659 544 1381 
z
M 1991 3584 
L 1991 3584 
z
" transform="scale(0.015625)"/>
     </defs>
     <use xlink:href="#DejaVuSans-53"/>
     <use xlink:href="#DejaVuSans-75" transform="translate(63.476562 0)"/>
     <use xlink:href="#DejaVuSans-72" transform="translate(126.855469 0)"/>
    </g>
   </g>
   <g id="text_27">
    <!-- 17.1% -->
    <g transform="translate(231.954506 107.583359) scale(0.1 -0.1)">
     <defs>
      <path id="DejaVuSans-37" d="M 525 4666 
L 3525 4666 
L 3525 4397 
L 1831 0 
L 1172 0 
L 2766 4134 
L 525 4134 
L 525 4666 
z
" transform="scale(0.015625)"/>
     </defs>
     <use xlink:href="#DejaVuSans-31"/>
     <use xlink:href="#DejaVuSans-37" transform="translate(63.623047 0)"/>
     <use xlink:href="#DejaVuSans-2e" transform="translate(127.246094 0)"/>
     <use xlink:href="#DejaVuSans-31" transform="translate(159.033203 0)"/>
     <use xlink:href="#DejaVuSans-25" transform="translate(222.65625 0)"/>
    </g>
   </g>
   <g id="text_28">
    <!-- Pando -->
    <g transform="translate(277.904862 92.150236) scale(0.1 -0.1)">
     <defs>
      <path id="DejaVuSans-64" d="M 2906 2969 
L 2906 4863 
L 3481 4863 
L 3481 0 
L 2906 0 
L 2906 525 
Q 2725 213 2448 61 
Q 2172 -91 1784 -91 
Q 1150 -91 751 415 
Q 353 922 353 1747 
Q 353 2572 751 3078 
Q 1150 3584 1784 3584 
Q 2172 3584 2448 3432 
Q 2725 3281 2906 2969 
z
M 947 1747 
Q 947 1113 1208 752 
Q 1469 391 1925 391 
Q 2381 391 2643 752 
Q 2906 1113 2906 1747 
Q 2906 2381 2643 2742 
Q 2381 3103 1925 3103 
Q 1469 3103 1208 2742 
Q 947 2381 947 1747 
z
" transform="scale(0.015625)"/>
     </defs>
     <use xlink:href="#DejaVuSans-50"/>
     <use xlink:href="#DejaVuSans-61" transform="translate(55.802734 0)"/>
     <use xlink:href="#DejaVuSans-6e" transform="translate(117.082031 0)"/>
     <use xlink:href="#DejaVuSans-64" transform="translate(180.460938 0)"/>
     <use xlink:href="#DejaVuSans-6f" transform="translate(243.9375 0)"/>
    </g>
   </g>
   <g id="text_29">
    <!-- 0.6% -->
    <g transform="translate(240.006897 91.680526) scale(0.1 -0.1)">
     <use xlink:href="#DejaVuSans-30"/>
     <use xlink:href="#DejaVuSans-2e" transform="translate(63.623047 0)"/>
     <use xlink:href="#DejaVuSans-36" transform="translate(95.410156 0)"/>
     <use xlink:href="#DejaVuSans-25" transform="translate(159.033203 0)"/>
    </g>
   </g>
   <g id="text_30">
    <!-- Region -->
    <g transform="translate(191.228244 19.3575) scale(0.16 -0.16)">
     <defs>
      <path id="DejaVuSans-Bold-52" d="M 2297 2597 
Q 2675 2597 2839 2737 
Q 3003 2878 3003 3200 
Q 3003 3519 2839 3656 
Q 2675 3794 2297 3794 
L 1791 3794 
L 1791 2597 
L 2297 2597 
z
M 1791 1766 
L 1791 0 
L 588 0 
L 588 4666 
L 2425 4666 
Q 3347 4666 3776 4356 
Q 4206 4047 4206 3378 
Q 4206 2916 3982 2619 
Q 3759 2322 3309 2181 
Q 3556 2125 3751 1926 
Q 3947 1728 4147 1325 
L 4800 0 
L 3519 0 
L 2950 1159 
Q 2778 1509 2601 1637 
Q 2425 1766 2131 1766 
L 1791 1766 
z
" transform="scale(0.015625)"/>
      <path id="DejaVuSans-Bold-67" d="M 2919 594 
Q 2688 288 2409 144 
Q 2131 0 1766 0 
Q 1125 0 706 504 
Q 288 1009 288 1791 
Q 288 2575 706 3076 
Q 1125 3578 1766 3578 
Q 2131 3578 2409 3434 
Q 2688 3291 2919 2981 
L 2919 3500 
L 4044 3500 
L 4044 353 
Q 4044 -491 3511 -936 
Q 2978 -1381 1966 -1381 
Q 1638 -1381 1331 -1331 
Q 1025 -1281 716 -1178 
L 716 -306 
Q 1009 -475 1290 -558 
Q 1572 -641 1856 -641 
Q 2406 -641 2662 -400 
Q 2919 -159 2919 353 
L 2919 594 
z
M 2181 2772 
Q 1834 2772 1640 2515 
Q 1447 2259 1447 1791 
Q 1447 1309 1634 1061 
Q 1822 813 2181 813 
Q 2531 813 2725 1069 
Q 2919 1325 2919 1791 
Q 2919 2259 2725 2515 
Q 2531 2772 2181 2772 
z
" transform="scale(0.015625)"/>
      <path id="DejaVuSans-Bold-69" d="M 538 3500 
L 1656 3500 
L 1656 0 
L 538 0 
L 538 3500 
z
M 538 4863 
L 1656 4863 
L 1656 3950 
L 538 3950 
L 538 4863 
z
" transform="scale(0.015625)"/>
      <path id="DejaVuSans-Bold-6e" d="M 4056 2131 
L 4056 0 
L 2931 0 
L 2931 347 
L 2931 1631 
Q 2931 2084 2911 2256 
Q 2891 2428 2841 2509 
Q 2775 2619 2662 2680 
Q 2550 2741 2406 2741 
Q 2056 2741 1856 2470 
Q 1656 2200 1656 1722 
L 1656 0 
L 538 0 
L 538 3500 
L 1656 3500 
L 1656 2988 
Q 1909 3294 2193 3439 
Q 2478 3584 2822 3584 
Q 3428 3584 3742 3212 
Q 4056 2841 4056 2131 
z
" transform="scale(0.015625)"/>
     </defs>
     <use xlink:href="#DejaVuSans-Bold-52"/>
     <use xlink:href="#DejaVuSans-Bold-65" transform="translate(77.001953 0)"/>
     <use xlink:href="#DejaVuSans-Bold-67" transform="translate(144.824219 0)"/>
     <use xlink:href="#DejaVuSans-Bold-69" transform="translate(216.40625 0)"/>
     <use xlink:href="#DejaVuSans-Bold-6f" transform="translate(250.683594 0)"/>
     <use xlink:href="#DejaVuSans-Bold-6e" transform="translate(319.384766 0)"/>
    </g>
   </g>
   <g id="legend_2">
    <g id="patch_19">
     <path d="M 198.913244 161.427656 
L 224.913244 161.427656 
L 224.913244 152.327656 
L 198.913244 152.327656 
z
" style="fill: #fbaa1b; stroke: #ffffff; stroke-linejoin: miter"/>
    </g>
    <g id="text_31">
     <!-- Norte -->
     <g transform="translate(235.313244 161.427656) scale(0.13 -0.13)">
      <use xlink:href="#DejaVuSans-4e"/>
      <use xlink:href="#DejaVuSans-6f" transform="translate(74.804688 0)"/>
      <use xlink:href="#DejaVuSans-72" transform="translate(135.986328 0)"/>
      <use xlink:href="#DejaVuSans-74" transform="translate(177.099609 0)"/>
      <use xlink:href="#DejaVuSans-65" transform="translate(216.308594 0)"/>
     </g>
    </g>
    <g id="patch_20">
     <path d="M 198.913244 180.509219 
L 224.913244 180.509219 
L 224.913244 171.409219 
L 198.913244 171.409219 
z
" style="fill: #8fc73e; stroke: #ffffff; stroke-linejoin: miter"/>
    </g>
    <g id="text_32">
     <!-- Centro -->
     <g transform="translate(235.313244 180.509219) scale(0.13 -0.13)">
      <use xlink:href="#DejaVuSans-43"/>
      <use xlink:href="#DejaVuSans-65" transform="translate(69.824219 0)"/>
      <use xlink:href="#DejaVuSans-6e" transform="translate(131.347656 0)"/>
      <use xlink:href="#DejaVuSans-74" transform="translate(194.726562 0)"/>
      <use xlink:href="#DejaVuSans-72" transform="translate(233.935547 0)"/>
      <use xlink:href="#DejaVuSans-6f" transform="translate(272.798828 0)"/>
     </g>
    </g>
    <g id="patch_21">
     <path d="M 198.913244 199.590781 
L 224.913244 199.590781 
L 224.913244 190.490781 
L 198.913244 190.490781 
z
" style="fill: #207653; stroke: #ffffff; stroke-linejoin: miter"/>
    </g>
    <g id="text_33">
     <!-- Oriente -->
     <g transform="translate(235.313244 199.590781) scale(0.13 -0.13)">
      <use xlink:href="#DejaVuSans-4f"/>
      <use xlink:href="#DejaVuSans-72" transform="translate(78.710938 0)"/>
      <use xlink:href="#DejaVuSans-69" transform="translate(119.824219 0)"/>
      <use xlink:href="#DejaVuSans-65" transform="translate(147.607422 0)"/>
      <use xlink:href="#DejaVuSans-6e" transform="translate(209.130859 0)"/>
      <use xlink:href="#DejaVuSans-74" transform="translate(272.509766 0)"/>
      <use xlink:href="#DejaVuSans-65" transform="translate(311.71875 0)"/>
     </g>
    </g>
    <g id="patch_22">
     <path d="M 198.913244 218.672344 
L 224.913244 218.672344 
L 224.913244 209.572344 
L 198.913244 209.572344 
z
" style="fill: #a1140b; stroke: #ffffff; stroke-linejoin: miter"/>
    </g>
    <g id="text_34">
     <!-- Sur -->
     <g transform="translate(235.313244 218.672344) scale(0.13 -0.13)">
      <use xlink:href="#DejaVuSans-53"/>
      <use xlink:href="#DejaVuSans-75" transform="translate(63.476562 0)"/>
      <use xlink:href="#DejaVuSans-72" transform="translate(126.855469 0)"/>
     </g>
    </g>
    <g id="patch_23">
     <path d="M 198.913244 237.753906 
L 224.913244 237.753906 
L 224.913244 228.653906 
L 198.913244 228.653906 
z
" style="fill: #36495a; stroke: #ffffff; stroke-linejoin: miter"/>
    </g>
    <g id="text_35">
     <!-- Pando -->
     <g transform="translate(235.313244 237.753906) scale(0.13 -0.13)">
      <use xlink:href="#DejaVuSans-50"/>
      <use xlink:href="#DejaVuSans-61" transform="translate(55.802734 0)"/>
      <use xlink:href="#DejaVuSans-6e" transform="translate(117.082031 0)"/>
      <use xlink:href="#DejaVuSans-64" transform="translate(180.460938 0)"/>
      <use xlink:href="#DejaVuSans-6f" transform="translate(243.9375 0)"/>
     </g>
    </g>
   </g>
  </g>
  <g id="axes_3">
   <g id="patch_24">
    <path d="M 405.174494 88.3575 
C 405.174494 78.187411 402.096199 68.251606 396.34635 59.862926 
C 390.596502 51.474245 382.440014 45.019183 372.954622 41.350661 
C 363.469231 37.682138 353.091957 36.969177 343.193975 39.30598 
C 333.295992 41.642784 324.333332 46.92169 317.490251 54.445183 
L 354.028809 87.679254 
C 354.165671 87.528784 354.344924 87.423206 354.542883 87.37647 
C 354.740843 87.329734 354.948389 87.343993 355.138096 87.417363 
C 355.327804 87.490734 355.490934 87.619835 355.605931 87.787609 
C 355.720928 87.955382 355.782494 88.154098 355.782494 88.3575 
z
" style="fill: #36495a; stroke: #ffffff; stroke-linejoin: miter"/>
   </g>
   <g id="patch_25">
    <path d="M 317.490254 54.44518 
C 317.393505 54.551549 317.297212 54.658329 317.201376 54.765523 
C 317.105541 54.872717 317.010164 54.980323 316.91525 55.088332 
L 354.017309 87.692117 
C 354.019207 87.689956 354.021115 87.687804 354.023031 87.68566 
C 354.024948 87.683517 354.026874 87.681381 354.028809 87.679254 
z
" style="fill: #207653; stroke: #ffffff; stroke-linejoin: miter"/>
   </g>
   <g id="patch_26">
    <path d="M 316.91525 55.088332 
C 308.459554 64.710642 303.98236 77.20373 304.401479 90.006543 
C 304.820599 102.809355 310.105294 114.982873 319.172217 124.031553 
L 354.062448 89.070981 
C 353.88111 88.890007 353.775416 88.646537 353.767033 88.390481 
C 353.758651 88.134425 353.848195 87.884563 354.017309 87.692117 
z
" style="fill: #fbaa1b; stroke: #ffffff; stroke-linejoin: miter"/>
   </g>
   <g id="patch_27">
    <path d="M 319.172217 124.031553 
C 327.929748 132.771462 339.606162 137.987754 351.959412 138.67882 
C 364.312662 139.369887 376.498011 135.488479 386.175708 127.779877 
L 355.402518 89.145948 
C 355.208964 89.30012 354.965257 89.377748 354.718192 89.363926 
C 354.471127 89.350105 354.237599 89.245779 354.062448 89.070981 
z
" style="fill: #8fc73e; stroke: #ffffff; stroke-linejoin: miter"/>
   </g>
   <g id="patch_28">
    <path d="M 386.175708 127.779877 
C 390.798765 124.097462 394.738229 119.630377 397.81371 114.583172 
C 400.889191 109.535969 403.053011 103.986883 404.206073 98.190047 
L 355.763125 88.554151 
C 355.740064 88.670088 355.696788 88.781069 355.635278 88.882013 
C 355.573768 88.982958 355.494979 89.072299 355.402518 89.145948 
z
" style="fill: #a1140b; stroke: #ffffff; stroke-linejoin: miter"/>
   </g>
   <g id="patch_29">
    <path d="M 404.206073 98.190047 
C 404.527909 96.572077 404.770112 94.939269 404.931807 93.297545 
C 405.093501 91.655821 405.174494 90.007159 405.174494 88.357491 
L 355.782494 88.3575 
C 355.782494 88.390493 355.780874 88.423466 355.77764 88.456301 
C 355.774406 88.489135 355.769562 88.521792 355.763125 88.554151 
z
" style="fill: #6d6f70; stroke: #ffffff; stroke-linejoin: miter"/>
   </g>
   <g id="matplotlib.axis_5"/>
   <g id="matplotlib.axis_6"/>
   <g id="text_36">
    <!-- Residential -->
    <g transform="translate(374.772637 39.409353) scale(0.1 -0.1)">
     <defs>
      <path id="DejaVuSans-52" d="M 2841 2188 
Q 3044 2119 3236 1894 
Q 3428 1669 3622 1275 
L 4263 0 
L 3584 0 
L 2988 1197 
Q 2756 1666 2539 1819 
Q 2322 1972 1947 1972 
L 1259 1972 
L 1259 0 
L 628 0 
L 628 4666 
L 2053 4666 
Q 2853 4666 3247 4331 
Q 3641 3997 3641 3322 
Q 3641 2881 3436 2590 
Q 3231 2300 2841 2188 
z
M 1259 4147 
L 1259 2491 
L 2053 2491 
Q 2509 2491 2742 2702 
Q 2975 2913 2975 3322 
Q 2975 3731 2742 3939 
Q 2509 4147 2053 4147 
L 1259 4147 
z
" transform="scale(0.015625)"/>
     </defs>
     <use xlink:href="#DejaVuSans-52"/>
     <use xlink:href="#DejaVuSans-65" transform="translate(64.982422 0)"/>
     <use xlink:href="#DejaVuSans-73" transform="translate(126.505859 0)"/>
     <use xlink:href="#DejaVuSans-69" transform="translate(178.605469 0)"/>
     <use xlink:href="#DejaVuSans-64" transform="translate(206.388672 0)"/>
     <use xlink:href="#DejaVuSans-65" transform="translate(269.865234 0)"/>
     <use xlink:href="#DejaVuSans-6e" transform="translate(331.388672 0)"/>
     <use xlink:href="#DejaVuSans-74" transform="translate(394.767578 0)"/>
     <use xlink:href="#DejaVuSans-69" transform="translate(433.976562 0)"/>
     <use xlink:href="#DejaVuSans-61" transform="translate(461.759766 0)"/>
     <use xlink:href="#DejaVuSans-6c" transform="translate(523.039062 0)"/>
    </g>
   </g>
   <g id="text_37">
    <!-- 38.3% -->
    <g transform="translate(349.798978 62.912772) scale(0.1 -0.1)">
     <use xlink:href="#DejaVuSans-33"/>
     <use xlink:href="#DejaVuSans-38" transform="translate(63.623047 0)"/>
     <use xlink:href="#DejaVuSans-2e" transform="translate(127.246094 0)"/>
     <use xlink:href="#DejaVuSans-33" transform="translate(159.033203 0)"/>
     <use xlink:href="#DejaVuSans-25" transform="translate(222.65625 0)"/>
    </g>
   </g>
   <g id="text_38">
    <!-- Transport -->
    <g transform="translate(266.526876 54.165703) scale(0.1 -0.1)">
     <defs>
      <path id="DejaVuSans-54" d="M -19 4666 
L 3928 4666 
L 3928 4134 
L 2272 4134 
L 2272 0 
L 1638 0 
L 1638 4134 
L -19 4134 
L -19 4666 
z
" transform="scale(0.015625)"/>
      <path id="DejaVuSans-70" d="M 1159 525 
L 1159 -1331 
L 581 -1331 
L 581 3500 
L 1159 3500 
L 1159 2969 
Q 1341 3281 1617 3432 
Q 1894 3584 2278 3584 
Q 2916 3584 3314 3078 
Q 3713 2572 3713 1747 
Q 3713 922 3314 415 
Q 2916 -91 2278 -91 
Q 1894 -91 1617 61 
Q 1341 213 1159 525 
z
M 3116 1747 
Q 3116 2381 2855 2742 
Q 2594 3103 2138 3103 
Q 1681 3103 1420 2742 
Q 1159 2381 1159 1747 
Q 1159 1113 1420 752 
Q 1681 391 2138 391 
Q 2594 391 2855 752 
Q 3116 1113 3116 1747 
z
" transform="scale(0.015625)"/>
     </defs>
     <use xlink:href="#DejaVuSans-54"/>
     <use xlink:href="#DejaVuSans-72" transform="translate(46.333984 0)"/>
     <use xlink:href="#DejaVuSans-61" transform="translate(87.447266 0)"/>
     <use xlink:href="#DejaVuSans-6e" transform="translate(148.726562 0)"/>
     <use xlink:href="#DejaVuSans-73" transform="translate(212.105469 0)"/>
     <use xlink:href="#DejaVuSans-70" transform="translate(264.205078 0)"/>
     <use xlink:href="#DejaVuSans-6f" transform="translate(327.681641 0)"/>
     <use xlink:href="#DejaVuSans-72" transform="translate(388.863281 0)"/>
     <use xlink:href="#DejaVuSans-74" transform="translate(429.976562 0)"/>
    </g>
   </g>
   <g id="text_39">
    <!-- 0.3% -->
    <g transform="translate(319.528279 70.96169) scale(0.1 -0.1)">
     <use xlink:href="#DejaVuSans-30"/>
     <use xlink:href="#DejaVuSans-2e" transform="translate(63.623047 0)"/>
     <use xlink:href="#DejaVuSans-33" transform="translate(95.410156 0)"/>
     <use xlink:href="#DejaVuSans-25" transform="translate(159.033203 0)"/>
    </g>
   </g>
   <g id="text_40">
    <!-- Industry -->
    <g transform="translate(258.231365 92.930835) scale(0.1 -0.1)">
     <defs>
      <path id="DejaVuSans-49" d="M 628 4666 
L 1259 4666 
L 1259 0 
L 628 0 
L 628 4666 
z
" transform="scale(0.015625)"/>
      <path id="DejaVuSans-79" d="M 2059 -325 
Q 1816 -950 1584 -1140 
Q 1353 -1331 966 -1331 
L 506 -1331 
L 506 -850 
L 844 -850 
Q 1081 -850 1212 -737 
Q 1344 -625 1503 -206 
L 1606 56 
L 191 3500 
L 800 3500 
L 1894 763 
L 2988 3500 
L 3597 3500 
L 2059 -325 
z
" transform="scale(0.015625)"/>
     </defs>
     <use xlink:href="#DejaVuSans-49"/>
     <use xlink:href="#DejaVuSans-6e" transform="translate(29.492188 0)"/>
     <use xlink:href="#DejaVuSans-64" transform="translate(92.871094 0)"/>
     <use xlink:href="#DejaVuSans-75" transform="translate(156.347656 0)"/>
     <use xlink:href="#DejaVuSans-73" transform="translate(219.726562 0)"/>
     <use xlink:href="#DejaVuSans-74" transform="translate(271.826172 0)"/>
     <use xlink:href="#DejaVuSans-72" transform="translate(311.035156 0)"/>
     <use xlink:href="#DejaVuSans-79" transform="translate(352.148438 0)"/>
    </g>
   </g>
   <g id="text_41">
    <!-- 24.0% -->
    <g transform="translate(308.667091 92.106308) scale(0.1 -0.1)">
     <use xlink:href="#DejaVuSans-32"/>
     <use xlink:href="#DejaVuSans-34" transform="translate(63.623047 0)"/>
     <use xlink:href="#DejaVuSans-2e" transform="translate(127.246094 0)"/>
     <use xlink:href="#DejaVuSans-30" transform="translate(159.033203 0)"/>
     <use xlink:href="#DejaVuSans-25" transform="translate(222.65625 0)"/>
    </g>
   </g>
   <g id="text_42">
    <!-- Commercial &amp; Public -->
    <g transform="translate(248.123217 146.470328) scale(0.1 -0.1)">
     <defs>
      <path id="DejaVuSans-20" transform="scale(0.015625)"/>
      <path id="DejaVuSans-26" d="M 1556 2509 
Q 1272 2256 1139 2004 
Q 1006 1753 1006 1478 
Q 1006 1022 1337 719 
Q 1669 416 2169 416 
Q 2466 416 2725 514 
Q 2984 613 3213 813 
L 1556 2509 
z
M 1997 2859 
L 3584 1234 
Q 3769 1513 3872 1830 
Q 3975 2147 3994 2503 
L 4575 2503 
Q 4538 2091 4375 1687 
Q 4213 1284 3922 891 
L 4794 0 
L 4006 0 
L 3559 459 
Q 3234 181 2878 45 
Q 2522 -91 2113 -91 
Q 1359 -91 881 339 
Q 403 769 403 1441 
Q 403 1841 612 2192 
Q 822 2544 1241 2853 
Q 1091 3050 1012 3245 
Q 934 3441 934 3628 
Q 934 4134 1281 4442 
Q 1628 4750 2203 4750 
Q 2463 4750 2720 4694 
Q 2978 4638 3244 4525 
L 3244 3956 
Q 2972 4103 2725 4179 
Q 2478 4256 2266 4256 
Q 1938 4256 1733 4082 
Q 1528 3909 1528 3634 
Q 1528 3475 1620 3314 
Q 1713 3153 1997 2859 
z
" transform="scale(0.015625)"/>
      <path id="DejaVuSans-62" d="M 3116 1747 
Q 3116 2381 2855 2742 
Q 2594 3103 2138 3103 
Q 1681 3103 1420 2742 
Q 1159 2381 1159 1747 
Q 1159 1113 1420 752 
Q 1681 391 2138 391 
Q 2594 391 2855 752 
Q 3116 1113 3116 1747 
z
M 1159 2969 
Q 1341 3281 1617 3432 
Q 1894 3584 2278 3584 
Q 2916 3584 3314 3078 
Q 3713 2572 3713 1747 
Q 3713 922 3314 415 
Q 2916 -91 2278 -91 
Q 1894 -91 1617 61 
Q 1341 213 1159 525 
L 1159 0 
L 581 0 
L 581 4863 
L 1159 4863 
L 1159 2969 
z
" transform="scale(0.015625)"/>
     </defs>
     <use xlink:href="#DejaVuSans-43"/>
     <use xlink:href="#DejaVuSans-6f" transform="translate(69.824219 0)"/>
     <use xlink:href="#DejaVuSans-6d" transform="translate(131.005859 0)"/>
     <use xlink:href="#DejaVuSans-6d" transform="translate(228.417969 0)"/>
     <use xlink:href="#DejaVuSans-65" transform="translate(325.830078 0)"/>
     <use xlink:href="#DejaVuSans-72" transform="translate(387.353516 0)"/>
     <use xlink:href="#DejaVuSans-63" transform="translate(426.216797 0)"/>
     <use xlink:href="#DejaVuSans-69" transform="translate(481.197266 0)"/>
     <use xlink:href="#DejaVuSans-61" transform="translate(508.980469 0)"/>
     <use xlink:href="#DejaVuSans-6c" transform="translate(570.259766 0)"/>
     <use xlink:href="#DejaVuSans-20" transform="translate(598.042969 0)"/>
     <use xlink:href="#DejaVuSans-26" transform="translate(629.830078 0)"/>
     <use xlink:href="#DejaVuSans-20" transform="translate(707.808594 0)"/>
     <use xlink:href="#DejaVuSans-50" transform="translate(739.595703 0)"/>
     <use xlink:href="#DejaVuSans-75" transform="translate(798.148438 0)"/>
     <use xlink:href="#DejaVuSans-62" transform="translate(861.527344 0)"/>
     <use xlink:href="#DejaVuSans-6c" transform="translate(925.003906 0)"/>
     <use xlink:href="#DejaVuSans-69" transform="translate(952.787109 0)"/>
     <use xlink:href="#DejaVuSans-63" transform="translate(980.570312 0)"/>
    </g>
   </g>
   <g id="text_43">
    <!-- 23.2% -->
    <g transform="translate(337.201851 121.309667) scale(0.1 -0.1)">
     <use xlink:href="#DejaVuSans-32"/>
     <use xlink:href="#DejaVuSans-33" transform="translate(63.623047 0)"/>
     <use xlink:href="#DejaVuSans-2e" transform="translate(127.246094 0)"/>
     <use xlink:href="#DejaVuSans-32" transform="translate(159.033203 0)"/>
     <use xlink:href="#DejaVuSans-25" transform="translate(222.65625 0)"/>
    </g>
   </g>
   <g id="text_44">
    <!-- Agriculture, Fishing &amp; Mining -->
    <g transform="translate(402.117644 119.965093) scale(0.1 -0.1)">
     <defs>
      <path id="DejaVuSans-41" d="M 2188 4044 
L 1331 1722 
L 3047 1722 
L 2188 4044 
z
M 1831 4666 
L 2547 4666 
L 4325 0 
L 3669 0 
L 3244 1197 
L 1141 1197 
L 716 0 
L 50 0 
L 1831 4666 
z
" transform="scale(0.015625)"/>
      <path id="DejaVuSans-67" d="M 2906 1791 
Q 2906 2416 2648 2759 
Q 2391 3103 1925 3103 
Q 1463 3103 1205 2759 
Q 947 2416 947 1791 
Q 947 1169 1205 825 
Q 1463 481 1925 481 
Q 2391 481 2648 825 
Q 2906 1169 2906 1791 
z
M 3481 434 
Q 3481 -459 3084 -895 
Q 2688 -1331 1869 -1331 
Q 1566 -1331 1297 -1286 
Q 1028 -1241 775 -1147 
L 775 -588 
Q 1028 -725 1275 -790 
Q 1522 -856 1778 -856 
Q 2344 -856 2625 -561 
Q 2906 -266 2906 331 
L 2906 616 
Q 2728 306 2450 153 
Q 2172 0 1784 0 
Q 1141 0 747 490 
Q 353 981 353 1791 
Q 353 2603 747 3093 
Q 1141 3584 1784 3584 
Q 2172 3584 2450 3431 
Q 2728 3278 2906 2969 
L 2906 3500 
L 3481 3500 
L 3481 434 
z
" transform="scale(0.015625)"/>
      <path id="DejaVuSans-2c" d="M 750 794 
L 1409 794 
L 1409 256 
L 897 -744 
L 494 -744 
L 750 256 
L 750 794 
z
" transform="scale(0.015625)"/>
      <path id="DejaVuSans-46" d="M 628 4666 
L 3309 4666 
L 3309 4134 
L 1259 4134 
L 1259 2759 
L 3109 2759 
L 3109 2228 
L 1259 2228 
L 1259 0 
L 628 0 
L 628 4666 
z
" transform="scale(0.015625)"/>
      <path id="DejaVuSans-68" d="M 3513 2113 
L 3513 0 
L 2938 0 
L 2938 2094 
Q 2938 2591 2744 2837 
Q 2550 3084 2163 3084 
Q 1697 3084 1428 2787 
Q 1159 2491 1159 1978 
L 1159 0 
L 581 0 
L 581 4863 
L 1159 4863 
L 1159 2956 
Q 1366 3272 1645 3428 
Q 1925 3584 2291 3584 
Q 2894 3584 3203 3211 
Q 3513 2838 3513 2113 
z
" transform="scale(0.015625)"/>
      <path id="DejaVuSans-4d" d="M 628 4666 
L 1569 4666 
L 2759 1491 
L 3956 4666 
L 4897 4666 
L 4897 0 
L 4281 0 
L 4281 4097 
L 3078 897 
L 2444 897 
L 1241 4097 
L 1241 0 
L 628 0 
L 628 4666 
z
" transform="scale(0.015625)"/>
     </defs>
     <use xlink:href="#DejaVuSans-41"/>
     <use xlink:href="#DejaVuSans-67" transform="translate(68.408203 0)"/>
     <use xlink:href="#DejaVuSans-72" transform="translate(131.884766 0)"/>
     <use xlink:href="#DejaVuSans-69" transform="translate(172.998047 0)"/>
     <use xlink:href="#DejaVuSans-63" transform="translate(200.78125 0)"/>
     <use xlink:href="#DejaVuSans-75" transform="translate(255.761719 0)"/>
     <use xlink:href="#DejaVuSans-6c" transform="translate(319.140625 0)"/>
     <use xlink:href="#DejaVuSans-74" transform="translate(346.923828 0)"/>
     <use xlink:href="#DejaVuSans-75" transform="translate(386.132812 0)"/>
     <use xlink:href="#DejaVuSans-72" transform="translate(449.511719 0)"/>
     <use xlink:href="#DejaVuSans-65" transform="translate(488.375 0)"/>
     <use xlink:href="#DejaVuSans-2c" transform="translate(549.898438 0)"/>
     <use xlink:href="#DejaVuSans-20" transform="translate(581.685547 0)"/>
     <use xlink:href="#DejaVuSans-46" transform="translate(613.472656 0)"/>
     <use xlink:href="#DejaVuSans-69" transform="translate(663.742188 0)"/>
     <use xlink:href="#DejaVuSans-73" transform="translate(691.525391 0)"/>
     <use xlink:href="#DejaVuSans-68" transform="translate(743.625 0)"/>
     <use xlink:href="#DejaVuSans-69" transform="translate(807.003906 0)"/>
     <use xlink:href="#DejaVuSans-6e" transform="translate(834.787109 0)"/>
     <use xlink:href="#DejaVuSans-67" transform="translate(898.166016 0)"/>
     <use xlink:href="#DejaVuSans-20" transform="translate(961.642578 0)"/>
     <use xlink:href="#DejaVuSans-26" transform="translate(993.429688 0)"/>
     <use xlink:href="#DejaVuSans-20" transform="translate(1071.408203 0)"/>
     <use xlink:href="#DejaVuSans-4d" transform="translate(1103.195312 0)"/>
     <use xlink:href="#DejaVuSans-69" transform="translate(1189.474609 0)"/>
     <use xlink:href="#DejaVuSans-6e" transform="translate(1217.257812 0)"/>
     <use xlink:href="#DejaVuSans-69" transform="translate(1280.636719 0)"/>
     <use xlink:href="#DejaVuSans-6e" transform="translate(1308.419922 0)"/>
     <use xlink:href="#DejaVuSans-67" transform="translate(1371.798828 0)"/>
    </g>
   </g>
   <g id="text_45">
    <!-- 11.2% -->
    <g transform="translate(364.714437 106.852267) scale(0.1 -0.1)">
     <use xlink:href="#DejaVuSans-31"/>
     <use xlink:href="#DejaVuSans-31" transform="translate(63.623047 0)"/>
     <use xlink:href="#DejaVuSans-2e" transform="translate(127.246094 0)"/>
     <use xlink:href="#DejaVuSans-32" transform="translate(159.033203 0)"/>
     <use xlink:href="#DejaVuSans-25" transform="translate(222.65625 0)"/>
    </g>
   </g>
   <g id="text_46">
    <!-- Construction -->
    <g transform="translate(409.947537 96.550925) scale(0.1 -0.1)">
     <use xlink:href="#DejaVuSans-43"/>
     <use xlink:href="#DejaVuSans-6f" transform="translate(69.824219 0)"/>
     <use xlink:href="#DejaVuSans-6e" transform="translate(131.005859 0)"/>
     <use xlink:href="#DejaVuSans-73" transform="translate(194.384766 0)"/>
     <use xlink:href="#DejaVuSans-74" transform="translate(246.484375 0)"/>
     <use xlink:href="#DejaVuSans-72" transform="translate(285.693359 0)"/>
     <use xlink:href="#DejaVuSans-75" transform="translate(326.806641 0)"/>
     <use xlink:href="#DejaVuSans-63" transform="translate(390.185547 0)"/>
     <use xlink:href="#DejaVuSans-74" transform="translate(445.166016 0)"/>
     <use xlink:href="#DejaVuSans-69" transform="translate(484.375 0)"/>
     <use xlink:href="#DejaVuSans-6f" transform="translate(512.158203 0)"/>
     <use xlink:href="#DejaVuSans-6e" transform="translate(573.339844 0)"/>
    </g>
   </g>
   <g id="text_47">
    <!-- 3.1% -->
    <g transform="translate(372.166537 94.080902) scale(0.1 -0.1)">
     <use xlink:href="#DejaVuSans-33"/>
     <use xlink:href="#DejaVuSans-2e" transform="translate(63.623047 0)"/>
     <use xlink:href="#DejaVuSans-31" transform="translate(95.410156 0)"/>
     <use xlink:href="#DejaVuSans-25" transform="translate(159.033203 0)"/>
    </g>
   </g>
   <g id="text_48">
    <!-- Sector -->
    <g transform="translate(325.579494 19.3575) scale(0.16 -0.16)">
     <defs>
      <path id="DejaVuSans-Bold-74" d="M 1759 4494 
L 1759 3500 
L 2913 3500 
L 2913 2700 
L 1759 2700 
L 1759 1216 
Q 1759 972 1856 886 
Q 1953 800 2241 800 
L 2816 800 
L 2816 0 
L 1856 0 
Q 1194 0 917 276 
Q 641 553 641 1216 
L 641 2700 
L 84 2700 
L 84 3500 
L 641 3500 
L 641 4494 
L 1759 4494 
z
" transform="scale(0.015625)"/>
     </defs>
     <use xlink:href="#DejaVuSans-Bold-53"/>
     <use xlink:href="#DejaVuSans-Bold-65" transform="translate(72.021484 0)"/>
     <use xlink:href="#DejaVuSans-Bold-63" transform="translate(139.84375 0)"/>
     <use xlink:href="#DejaVuSans-Bold-74" transform="translate(199.121094 0)"/>
     <use xlink:href="#DejaVuSans-Bold-6f" transform="translate(246.923828 0)"/>
     <use xlink:href="#DejaVuSans-Bold-72" transform="translate(315.625 0)"/>
    </g>
   </g>
   <g id="legend_3">
    <g id="patch_30">
     <path d="M 306.284259 154.946094 
L 332.284259 154.946094 
L 332.284259 145.846094 
L 306.284259 145.846094 
z
" style="fill: #36495a; stroke: #ffffff; stroke-linejoin: miter"/>
    </g>
    <g id="text_49">
     <!-- Residential -->
     <g transform="translate(342.684259 154.946094) scale(0.13 -0.13)">
      <use xlink:href="#DejaVuSans-52"/>
      <use xlink:href="#DejaVuSans-65" transform="translate(64.982422 0)"/>
      <use xlink:href="#DejaVuSans-73" transform="translate(126.505859 0)"/>
      <use xlink:href="#DejaVuSans-69" transform="translate(178.605469 0)"/>
      <use xlink:href="#DejaVuSans-64" transform="translate(206.388672 0)"/>
      <use xlink:href="#DejaVuSans-65" transform="translate(269.865234 0)"/>
      <use xlink:href="#DejaVuSans-6e" transform="translate(331.388672 0)"/>
      <use xlink:href="#DejaVuSans-74" transform="translate(394.767578 0)"/>
      <use xlink:href="#DejaVuSans-69" transform="translate(433.976562 0)"/>
      <use xlink:href="#DejaVuSans-61" transform="translate(461.759766 0)"/>
      <use xlink:href="#DejaVuSans-6c" transform="translate(523.039062 0)"/>
     </g>
    </g>
    <g id="patch_31">
     <path d="M 306.284259 174.027656 
L 332.284259 174.027656 
L 332.284259 164.927656 
L 306.284259 164.927656 
z
" style="fill: #207653; stroke: #ffffff; stroke-linejoin: miter"/>
    </g>
    <g id="text_50">
     <!-- Transport -->
     <g transform="translate(342.684259 174.027656) scale(0.13 -0.13)">
      <use xlink:href="#DejaVuSans-54"/>
      <use xlink:href="#DejaVuSans-72" transform="translate(46.333984 0)"/>
      <use xlink:href="#DejaVuSans-61" transform="translate(87.447266 0)"/>
      <use xlink:href="#DejaVuSans-6e" transform="translate(148.726562 0)"/>
      <use xlink:href="#DejaVuSans-73" transform="translate(212.105469 0)"/>
      <use xlink:href="#DejaVuSans-70" transform="translate(264.205078 0)"/>
      <use xlink:href="#DejaVuSans-6f" transform="translate(327.681641 0)"/>
      <use xlink:href="#DejaVuSans-72" transform="translate(388.863281 0)"/>
      <use xlink:href="#DejaVuSans-74" transform="translate(429.976562 0)"/>
     </g>
    </g>
    <g id="patch_32">
     <path d="M 306.284259 193.109219 
L 332.284259 193.109219 
L 332.284259 184.009219 
L 306.284259 184.009219 
z
" style="fill: #fbaa1b; stroke: #ffffff; stroke-linejoin: miter"/>
    </g>
    <g id="text_51">
     <!-- Industry -->
     <g transform="translate(342.684259 193.109219) scale(0.13 -0.13)">
      <use xlink:href="#DejaVuSans-49"/>
      <use xlink:href="#DejaVuSans-6e" transform="translate(29.492188 0)"/>
      <use xlink:href="#DejaVuSans-64" transform="translate(92.871094 0)"/>
      <use xlink:href="#DejaVuSans-75" transform="translate(156.347656 0)"/>
      <use xlink:href="#DejaVuSans-73" transform="translate(219.726562 0)"/>
      <use xlink:href="#DejaVuSans-74" transform="translate(271.826172 0)"/>
      <use xlink:href="#DejaVuSans-72" transform="translate(311.035156 0)"/>
      <use xlink:href="#DejaVuSans-79" transform="translate(352.148438 0)"/>
     </g>
    </g>
    <g id="patch_33">
     <path d="M 306.284259 212.190781 
L 332.284259 212.190781 
L 332.284259 203.090781 
L 306.284259 203.090781 
z
" style="fill: #8fc73e; stroke: #ffffff; stroke-linejoin: miter"/>
    </g>
    <g id="text_52">
     <!-- Commercial &amp; Public -->
     <g transform="translate(342.684259 212.190781) scale(0.13 -0.13)">
      <use xlink:href="#DejaVuSans-43"/>
      <use xlink:href="#DejaVuSans-6f" transform="translate(69.824219 0)"/>
      <use xlink:href="#DejaVuSans-6d" transform="translate(131.005859 0)"/>
      <use xlink:href="#DejaVuSans-6d" transform="translate(228.417969 0)"/>
      <use xlink:href="#DejaVuSans-65" transform="translate(325.830078 0)"/>
      <use xlink:href="#DejaVuSans-72" transform="translate(387.353516 0)"/>
      <use xlink:href="#DejaVuSans-63" transform="translate(426.216797 0)"/>
      <use xlink:href="#DejaVuSans-69" transform="translate(481.197266 0)"/>
      <use xlink:href="#DejaVuSans-61" transform="translate(508.980469 0)"/>
      <use xlink:href="#DejaVuSans-6c" transform="translate(570.259766 0)"/>
      <use xlink:href="#DejaVuSans-20" transform="translate(598.042969 0)"/>
      <use xlink:href="#DejaVuSans-26" transform="translate(629.830078 0)"/>
      <use xlink:href="#DejaVuSans-20" transform="translate(707.808594 0)"/>
      <use xlink:href="#DejaVuSans-50" transform="translate(739.595703 0)"/>
      <use xlink:href="#DejaVuSans-75" transform="translate(798.148438 0)"/>
      <use xlink:href="#DejaVuSans-62" transform="translate(861.527344 0)"/>
      <use xlink:href="#DejaVuSans-6c" transform="translate(925.003906 0)"/>
      <use xlink:href="#DejaVuSans-69" transform="translate(952.787109 0)"/>
      <use xlink:href="#DejaVuSans-63" transform="translate(980.570312 0)"/>
     </g>
    </g>
    <g id="patch_34">
     <path d="M 306.284259 231.272344 
L 332.284259 231.272344 
L 332.284259 222.172344 
L 306.284259 222.172344 
z
" style="fill: #a1140b; stroke: #ffffff; stroke-linejoin: miter"/>
    </g>
    <g id="text_53">
     <!-- Agriculture, Fishing &amp; Mining -->
     <g transform="translate(342.684259 231.272344) scale(0.13 -0.13)">
      <use xlink:href="#DejaVuSans-41"/>
      <use xlink:href="#DejaVuSans-67" transform="translate(68.408203 0)"/>
      <use xlink:href="#DejaVuSans-72" transform="translate(131.884766 0)"/>
      <use xlink:href="#DejaVuSans-69" transform="translate(172.998047 0)"/>
      <use xlink:href="#DejaVuSans-63" transform="translate(200.78125 0)"/>
      <use xlink:href="#DejaVuSans-75" transform="translate(255.761719 0)"/>
      <use xlink:href="#DejaVuSans-6c" transform="translate(319.140625 0)"/>
      <use xlink:href="#DejaVuSans-74" transform="translate(346.923828 0)"/>
      <use xlink:href="#DejaVuSans-75" transform="translate(386.132812 0)"/>
      <use xlink:href="#DejaVuSans-72" transform="translate(449.511719 0)"/>
      <use xlink:href="#DejaVuSans-65" transform="translate(488.375 0)"/>
      <use xlink:href="#DejaVuSans-2c" transform="translate(549.898438 0)"/>
      <use xlink:href="#DejaVuSans-20" transform="translate(581.685547 0)"/>
      <use xlink:href="#DejaVuSans-46" transform="translate(613.472656 0)"/>
      <use xlink:href="#DejaVuSans-69" transform="translate(663.742188 0)"/>
      <use xlink:href="#DejaVuSans-73" transform="translate(691.525391 0)"/>
      <use xlink:href="#DejaVuSans-68" transform="translate(743.625 0)"/>
      <use xlink:href="#DejaVuSans-69" transform="translate(807.003906 0)"/>
      <use xlink:href="#DejaVuSans-6e" transform="translate(834.787109 0)"/>
      <use xlink:href="#DejaVuSans-67" transform="translate(898.166016 0)"/>
      <use xlink:href="#DejaVuSans-20" transform="translate(961.642578 0)"/>
      <use xlink:href="#DejaVuSans-26" transform="translate(993.429688 0)"/>
      <use xlink:href="#DejaVuSans-20" transform="translate(1071.408203 0)"/>
      <use xlink:href="#DejaVuSans-4d" transform="translate(1103.195312 0)"/>
      <use xlink:href="#DejaVuSans-69" transform="translate(1189.474609 0)"/>
      <use xlink:href="#DejaVuSans-6e" transform="translate(1217.257812 0)"/>
      <use xlink:href="#DejaVuSans-69" transform="translate(1280.636719 0)"/>
      <use xlink:href="#DejaVuSans-6e" transform="translate(1308.419922 0)"/>
      <use xlink:href="#DejaVuSans-67" transform="translate(1371.798828 0)"/>
     </g>
    </g>
    <g id="patch_35">
     <path d="M 306.284259 250.353906 
L 332.284259 250.353906 
L 332.284259 241.253906 
L 306.284259 241.253906 
z
" style="fill: #6d6f70; stroke: #ffffff; stroke-linejoin: miter"/>
    </g>
    <g id="text_54">
     <!-- Construction -->
     <g transform="translate(342.684259 250.353906) scale(0.13 -0.13)">
      <use xlink:href="#DejaVuSans-43"/>
      <use xlink:href="#DejaVuSans-6f" transform="translate(69.824219 0)"/>
      <use xlink:href="#DejaVuSans-6e" transform="translate(131.005859 0)"/>
      <use xlink:href="#DejaVuSans-73" transform="translate(194.384766 0)"/>
      <use xlink:href="#DejaVuSans-74" transform="translate(246.484375 0)"/>
      <use xlink:href="#DejaVuSans-72" transform="translate(285.693359 0)"/>
      <use xlink:href="#DejaVuSans-75" transform="translate(326.806641 0)"/>
      <use xlink:href="#DejaVuSans-63" transform="translate(390.185547 0)"/>
      <use xlink:href="#DejaVuSans-74" transform="translate(445.166016 0)"/>
      <use xlink:href="#DejaVuSans-69" transform="translate(484.375 0)"/>
      <use xlink:href="#DejaVuSans-6f" transform="translate(512.158203 0)"/>
      <use xlink:href="#DejaVuSans-6e" transform="translate(573.339844 0)"/>
     </g>
    </g>
   </g>
  </g>
 </g>
</svg>
