<?xml version="1.0" encoding="utf-8" standalone="no"?>
<!DOCTYPE svg PUBLIC "-//W3C//DTD SVG 1.1//EN"
  "http://www.w3.org/Graphics/SVG/1.1/DTD/svg11.dtd">
<svg xmlns:xlink="http://www.w3.org/1999/xlink" width="451.540313pt" height="209.266312pt" viewBox="0 0 451.540313 209.266312" xmlns="http://www.w3.org/2000/svg" version="1.1">
 <metadata>
  <rdf:RDF xmlns:dc="http://purl.org/dc/elements/1.1/" xmlns:cc="http://creativecommons.org/ns#" xmlns:rdf="http://www.w3.org/1999/02/22-rdf-syntax-ns#">
   <cc:Work>
    <dc:type rdf:resource="http://purl.org/dc/dcmitype/StillImage"/>
    <dc:date>2026-07-17T21:44:34.499025</dc:date>
    <dc:format>image/svg+xml</dc:format>
    <dc:creator>
     <cc:Agent>
      <dc:title>Matplotlib v3.10.3, https://matplotlib.org/</dc:title>
     </cc:Agent>
    </dc:creator>
   </cc:Work>
  </rdf:RDF>
 </metadata>
 <defs>
  <style type="text/css">*{stroke-linejoin: round; stroke-linecap: butt}</style>
 </defs>
 <g id="figure_1">
  <g id="patch_1">
   <path d="M 0 209.266312 
L 451.540313 209.266312 
L 451.540313 0 
L 0 0 
z
" style="fill: #ffffff"/>
  </g>
  <g id="axes_1">
   <g id="patch_2">
    <path d="M 48.90125 150.39475 
L 239.437835 150.39475 
L 239.437835 39.51475 
L 48.90125 39.51475 
z
" style="fill: #ffffff"/>
   </g>
   <g id="matplotlib.axis_1">
    <g id="xtick_1">
     <g id="line2d_1">
      <defs>
       <path id="m6b4738f4a1" d="M 0 0 
L 0 3.5 
" style="stroke: #000000; stroke-width: 0.8"/>
      </defs>
      <g>
       <use xlink:href="#m6b4738f4a1" x="48.90125" y="150.39475" style="stroke: #000000; stroke-width: 0.8"/>
      </g>
     </g>
     <g id="text_1">
      <!-- 1-2 -->
      <g transform="translate(51.660625 173.727562) rotate(-90) scale(0.1 -0.1)">
       <defs>
        <path id="DejaVuSans-31" d="M 794 531 
L 1825 531 
L 1825 4091 
L 703 3866 
L 703 4441 
L 1819 4666 
L 2450 4666 
L 2450 531 
L 3481 531 
L 3481 0 
L 794 0 
L 794 531 
z
" transform="scale(0.015625)"/>
        <path id="DejaVuSans-2d" d="M 313 2009 
L 1997 2009 
L 1997 1497 
L 313 1497 
L 313 2009 
z
" transform="scale(0.015625)"/>
        <path id="DejaVuSans-32" d="M 1228 531 
L 3431 531 
L 3431 0 
L 469 0 
L 469 531 
Q 828 903 1448 1529 
Q 2069 2156 2228 2338 
Q 2531 2678 2651 2914 
Q 2772 3150 2772 3378 
Q 2772 3750 2511 3984 
Q 2250 4219 1831 4219 
Q 1534 4219 1204 4116 
Q 875 4013 500 3803 
L 500 4441 
Q 881 4594 1212 4672 
Q 1544 4750 1819 4750 
Q 2544 4750 2975 4387 
Q 3406 4025 3406 3419 
Q 3406 3131 3298 2873 
Q 3191 2616 2906 2266 
Q 2828 2175 2409 1742 
Q 1991 1309 1228 531 
z
" transform="scale(0.015625)"/>
       </defs>
       <use xlink:href="#DejaVuSans-31"/>
       <use xlink:href="#DejaVuSans-2d" transform="translate(63.623047 0)"/>
       <use xlink:href="#DejaVuSans-32" transform="translate(99.707031 0)"/>
      </g>
     </g>
    </g>
    <g id="xtick_2">
     <g id="line2d_2">
      <g>
       <use xlink:href="#m6b4738f4a1" x="66.222758" y="150.39475" style="stroke: #000000; stroke-width: 0.8"/>
      </g>
     </g>
     <g id="text_2">
      <!-- 3-4 -->
      <g transform="translate(68.982133 173.727562) rotate(-90) scale(0.1 -0.1)">
       <defs>
        <path id="DejaVuSans-33" d="M 2597 2516 
Q 3050 2419 3304 2112 
Q 3559 1806 3559 1356 
Q 3559 666 3084 287 
Q 2609 -91 1734 -91 
Q 1441 -91 1130 -33 
Q 819 25 488 141 
L 488 750 
Q 750 597 1062 519 
Q 1375 441 1716 441 
Q 2309 441 2620 675 
Q 2931 909 2931 1356 
Q 2931 1769 2642 2001 
Q 2353 2234 1838 2234 
L 1294 2234 
L 1294 2753 
L 1863 2753 
Q 2328 2753 2575 2939 
Q 2822 3125 2822 3475 
Q 2822 3834 2567 4026 
Q 2313 4219 1838 4219 
Q 1578 4219 1281 4162 
Q 984 4106 628 3988 
L 628 4550 
Q 988 4650 1302 4700 
Q 1616 4750 1894 4750 
Q 2613 4750 3031 4423 
Q 3450 4097 3450 3541 
Q 3450 3153 3228 2886 
Q 3006 2619 2597 2516 
z
" transform="scale(0.015625)"/>
        <path id="DejaVuSans-34" d="M 2419 4116 
L 825 1625 
L 2419 1625 
L 2419 4116 
z
M 2253 4666 
L 3047 4666 
L 3047 1625 
L 3713 1625 
L 3713 1100 
L 3047 1100 
L 3047 0 
L 2419 0 
L 2419 1100 
L 313 1100 
L 313 1709 
L 2253 4666 
z
" transform="scale(0.015625)"/>
       </defs>
       <use xlink:href="#DejaVuSans-33"/>
       <use xlink:href="#DejaVuSans-2d" transform="translate(63.623047 0)"/>
       <use xlink:href="#DejaVuSans-34" transform="translate(99.707031 0)"/>
      </g>
     </g>
    </g>
    <g id="xtick_3">
     <g id="line2d_3">
      <g>
       <use xlink:href="#m6b4738f4a1" x="83.544266" y="150.39475" style="stroke: #000000; stroke-width: 0.8"/>
      </g>
     </g>
     <g id="text_3">
      <!-- 5-6 -->
      <g transform="translate(86.303641 173.727562) rotate(-90) scale(0.1 -0.1)">
       <defs>
        <path id="DejaVuSans-35" d="M 691 4666 
L 3169 4666 
L 3169 4134 
L 1269 4134 
L 1269 2991 
Q 1406 3038 1543 3061 
Q 1681 3084 1819 3084 
Q 2600 3084 3056 2656 
Q 3513 2228 3513 1497 
Q 3513 744 3044 326 
Q 2575 -91 1722 -91 
Q 1428 -91 1123 -41 
Q 819 9 494 109 
L 494 744 
Q 775 591 1075 516 
Q 1375 441 1709 441 
Q 2250 441 2565 725 
Q 2881 1009 2881 1497 
Q 2881 1984 2565 2268 
Q 2250 2553 1709 2553 
Q 1456 2553 1204 2497 
Q 953 2441 691 2322 
L 691 4666 
z
" transform="scale(0.015625)"/>
        <path id="DejaVuSans-36" d="M 2113 2584 
Q 1688 2584 1439 2293 
Q 1191 2003 1191 1497 
Q 1191 994 1439 701 
Q 1688 409 2113 409 
Q 2538 409 2786 701 
Q 3034 994 3034 1497 
Q 3034 2003 2786 2293 
Q 2538 2584 2113 2584 
z
M 3366 4563 
L 3366 3988 
Q 3128 4100 2886 4159 
Q 2644 4219 2406 4219 
Q 1781 4219 1451 3797 
Q 1122 3375 1075 2522 
Q 1259 2794 1537 2939 
Q 1816 3084 2150 3084 
Q 2853 3084 3261 2657 
Q 3669 2231 3669 1497 
Q 3669 778 3244 343 
Q 2819 -91 2113 -91 
Q 1303 -91 875 529 
Q 447 1150 447 2328 
Q 447 3434 972 4092 
Q 1497 4750 2381 4750 
Q 2619 4750 2861 4703 
Q 3103 4656 3366 4563 
z
" transform="scale(0.015625)"/>
       </defs>
       <use xlink:href="#DejaVuSans-35"/>
       <use xlink:href="#DejaVuSans-2d" transform="translate(63.623047 0)"/>
       <use xlink:href="#DejaVuSans-36" transform="translate(99.707031 0)"/>
      </g>
     </g>
    </g>
    <g id="xtick_4">
     <g id="line2d_4">
      <g>
       <use xlink:href="#m6b4738f4a1" x="100.865773" y="150.39475" style="stroke: #000000; stroke-width: 0.8"/>
      </g>
     </g>
     <g id="text_4">
      <!-- 7-8 -->
      <g transform="translate(103.625148 173.727562) rotate(-90) scale(0.1 -0.1)">
       <defs>
        <path id="DejaVuSans-37" d="M 525 4666 
L 3525 4666 
L 3525 4397 
L 1831 0 
L 1172 0 
L 2766 4134 
L 525 4134 
L 525 4666 
z
" transform="scale(0.015625)"/>
        <path id="DejaVuSans-38" d="M 2034 2216 
Q 1584 2216 1326 1975 
Q 1069 1734 1069 1313 
Q 1069 891 1326 650 
Q 1584 409 2034 409 
Q 2484 409 2743 651 
Q 3003 894 3003 1313 
Q 3003 1734 2745 1975 
Q 2488 2216 2034 2216 
z
M 1403 2484 
Q 997 2584 770 2862 
Q 544 3141 544 3541 
Q 544 4100 942 4425 
Q 1341 4750 2034 4750 
Q 2731 4750 3128 4425 
Q 3525 4100 3525 3541 
Q 3525 3141 3298 2862 
Q 3072 2584 2669 2484 
Q 3125 2378 3379 2068 
Q 3634 1759 3634 1313 
Q 3634 634 3220 271 
Q 2806 -91 2034 -91 
Q 1263 -91 848 271 
Q 434 634 434 1313 
Q 434 1759 690 2068 
Q 947 2378 1403 2484 
z
M 1172 3481 
Q 1172 3119 1398 2916 
Q 1625 2713 2034 2713 
Q 2441 2713 2670 2916 
Q 2900 3119 2900 3481 
Q 2900 3844 2670 4047 
Q 2441 4250 2034 4250 
Q 1625 4250 1398 4047 
Q 1172 3844 1172 3481 
z
" transform="scale(0.015625)"/>
       </defs>
       <use xlink:href="#DejaVuSans-37"/>
       <use xlink:href="#DejaVuSans-2d" transform="translate(63.623047 0)"/>
       <use xlink:href="#DejaVuSans-38" transform="translate(99.707031 0)"/>
      </g>
     </g>
    </g>
    <g id="xtick_5">
     <g id="line2d_5">
      <g>
       <use xlink:href="#m6b4738f4a1" x="118.187281" y="150.39475" style="stroke: #000000; stroke-width: 0.8"/>
      </g>
     </g>
     <g id="text_5">
      <!-- 9-10 -->
      <g transform="translate(120.946656 180.090062) rotate(-90) scale(0.1 -0.1)">
       <defs>
        <path id="DejaVuSans-39" d="M 703 97 
L 703 672 
Q 941 559 1184 500 
Q 1428 441 1663 441 
Q 2288 441 2617 861 
Q 2947 1281 2994 2138 
Q 2813 1869 2534 1725 
Q 2256 1581 1919 1581 
Q 1219 1581 811 2004 
Q 403 2428 403 3163 
Q 403 3881 828 4315 
Q 1253 4750 1959 4750 
Q 2769 4750 3195 4129 
Q 3622 3509 3622 2328 
Q 3622 1225 3098 567 
Q 2575 -91 1691 -91 
Q 1453 -91 1209 -44 
Q 966 3 703 97 
z
M 1959 2075 
Q 2384 2075 2632 2365 
Q 2881 2656 2881 3163 
Q 2881 3666 2632 3958 
Q 2384 4250 1959 4250 
Q 1534 4250 1286 3958 
Q 1038 3666 1038 3163 
Q 1038 2656 1286 2365 
Q 1534 2075 1959 2075 
z
" transform="scale(0.015625)"/>
        <path id="DejaVuSans-30" d="M 2034 4250 
Q 1547 4250 1301 3770 
Q 1056 3291 1056 2328 
Q 1056 1369 1301 889 
Q 1547 409 2034 409 
Q 2525 409 2770 889 
Q 3016 1369 3016 2328 
Q 3016 3291 2770 3770 
Q 2525 4250 2034 4250 
z
M 2034 4750 
Q 2819 4750 3233 4129 
Q 3647 3509 3647 2328 
Q 3647 1150 3233 529 
Q 2819 -91 2034 -91 
Q 1250 -91 836 529 
Q 422 1150 422 2328 
Q 422 3509 836 4129 
Q 1250 4750 2034 4750 
z
" transform="scale(0.015625)"/>
       </defs>
       <use xlink:href="#DejaVuSans-39"/>
       <use xlink:href="#DejaVuSans-2d" transform="translate(63.623047 0)"/>
       <use xlink:href="#DejaVuSans-31" transform="translate(99.707031 0)"/>
       <use xlink:href="#DejaVuSans-30" transform="translate(163.330078 0)"/>
      </g>
     </g>
    </g>
    <g id="xtick_6">
     <g id="line2d_6">
      <g>
       <use xlink:href="#m6b4738f4a1" x="135.508789" y="150.39475" style="stroke: #000000; stroke-width: 0.8"/>
      </g>
     </g>
     <g id="text_6">
      <!-- 11-12 -->
      <g transform="translate(138.268164 186.452562) rotate(-90) scale(0.1 -0.1)">
       <use xlink:href="#DejaVuSans-31"/>
       <use xlink:href="#DejaVuSans-31" transform="translate(63.623047 0)"/>
       <use xlink:href="#DejaVuSans-2d" transform="translate(127.246094 0)"/>
       <use xlink:href="#DejaVuSans-31" transform="translate(163.330078 0)"/>
       <use xlink:href="#DejaVuSans-32" transform="translate(226.953125 0)"/>
      </g>
     </g>
    </g>
    <g id="xtick_7">
     <g id="line2d_7">
      <g>
       <use xlink:href="#m6b4738f4a1" x="152.830297" y="150.39475" style="stroke: #000000; stroke-width: 0.8"/>
      </g>
     </g>
     <g id="text_7">
      <!-- 13-14 -->
      <g transform="translate(155.589672 186.452562) rotate(-90) scale(0.1 -0.1)">
       <use xlink:href="#DejaVuSans-31"/>
       <use xlink:href="#DejaVuSans-33" transform="translate(63.623047 0)"/>
       <use xlink:href="#DejaVuSans-2d" transform="translate(127.246094 0)"/>
       <use xlink:href="#DejaVuSans-31" transform="translate(163.330078 0)"/>
       <use xlink:href="#DejaVuSans-34" transform="translate(226.953125 0)"/>
      </g>
     </g>
    </g>
    <g id="xtick_8">
     <g id="line2d_8">
      <g>
       <use xlink:href="#m6b4738f4a1" x="170.151804" y="150.39475" style="stroke: #000000; stroke-width: 0.8"/>
      </g>
     </g>
     <g id="text_8">
      <!-- 15-16 -->
      <g transform="translate(172.911179 186.452562) rotate(-90) scale(0.1 -0.1)">
       <use xlink:href="#DejaVuSans-31"/>
       <use xlink:href="#DejaVuSans-35" transform="translate(63.623047 0)"/>
       <use xlink:href="#DejaVuSans-2d" transform="translate(127.246094 0)"/>
       <use xlink:href="#DejaVuSans-31" transform="translate(163.330078 0)"/>
       <use xlink:href="#DejaVuSans-36" transform="translate(226.953125 0)"/>
      </g>
     </g>
    </g>
    <g id="xtick_9">
     <g id="line2d_9">
      <g>
       <use xlink:href="#m6b4738f4a1" x="187.473312" y="150.39475" style="stroke: #000000; stroke-width: 0.8"/>
      </g>
     </g>
     <g id="text_9">
      <!-- 17-18 -->
      <g transform="translate(190.232687 186.452562) rotate(-90) scale(0.1 -0.1)">
       <use xlink:href="#DejaVuSans-31"/>
       <use xlink:href="#DejaVuSans-37" transform="translate(63.623047 0)"/>
       <use xlink:href="#DejaVuSans-2d" transform="translate(127.246094 0)"/>
       <use xlink:href="#DejaVuSans-31" transform="translate(163.330078 0)"/>
       <use xlink:href="#DejaVuSans-38" transform="translate(226.953125 0)"/>
      </g>
     </g>
    </g>
    <g id="xtick_10">
     <g id="line2d_10">
      <g>
       <use xlink:href="#m6b4738f4a1" x="204.79482" y="150.39475" style="stroke: #000000; stroke-width: 0.8"/>
      </g>
     </g>
     <g id="text_10">
      <!-- 19-20 -->
      <g transform="translate(207.554195 186.452562) rotate(-90) scale(0.1 -0.1)">
       <use xlink:href="#DejaVuSans-31"/>
       <use xlink:href="#DejaVuSans-39" transform="translate(63.623047 0)"/>
       <use xlink:href="#DejaVuSans-2d" transform="translate(127.246094 0)"/>
       <use xlink:href="#DejaVuSans-32" transform="translate(163.330078 0)"/>
       <use xlink:href="#DejaVuSans-30" transform="translate(226.953125 0)"/>
      </g>
     </g>
    </g>
    <g id="xtick_11">
     <g id="line2d_11">
      <g>
       <use xlink:href="#m6b4738f4a1" x="222.116328" y="150.39475" style="stroke: #000000; stroke-width: 0.8"/>
      </g>
     </g>
     <g id="text_11">
      <!-- 21-22 -->
      <g transform="translate(224.875703 186.452562) rotate(-90) scale(0.1 -0.1)">
       <use xlink:href="#DejaVuSans-32"/>
       <use xlink:href="#DejaVuSans-31" transform="translate(63.623047 0)"/>
       <use xlink:href="#DejaVuSans-2d" transform="translate(127.246094 0)"/>
       <use xlink:href="#DejaVuSans-32" transform="translate(163.330078 0)"/>
       <use xlink:href="#DejaVuSans-32" transform="translate(226.953125 0)"/>
      </g>
     </g>
    </g>
    <g id="xtick_12">
     <g id="line2d_12">
      <g>
       <use xlink:href="#m6b4738f4a1" x="239.437835" y="150.39475" style="stroke: #000000; stroke-width: 0.8"/>
      </g>
     </g>
     <g id="text_12">
      <!-- 23-24 -->
      <g transform="translate(242.19721 186.452562) rotate(-90) scale(0.1 -0.1)">
       <use xlink:href="#DejaVuSans-32"/>
       <use xlink:href="#DejaVuSans-33" transform="translate(63.623047 0)"/>
       <use xlink:href="#DejaVuSans-2d" transform="translate(127.246094 0)"/>
       <use xlink:href="#DejaVuSans-32" transform="translate(163.330078 0)"/>
       <use xlink:href="#DejaVuSans-34" transform="translate(226.953125 0)"/>
      </g>
     </g>
    </g>
    <g id="text_13">
     <!-- hours -->
     <g transform="translate(127.301105 199.570687) scale(0.12 -0.12)">
      <defs>
       <path id="DejaVuSans-68" d="M 3513 2113 
L 3513 0 
L 2938 0 
L 2938 2094 
Q 2938 2591 2744 2837 
Q 2550 3084 2163 3084 
Q 1697 3084 1428 2787 
Q 1159 2491 1159 1978 
L 1159 0 
L 581 0 
L 581 4863 
L 1159 4863 
L 1159 2956 
Q 1366 3272 1645 3428 
Q 1925 3584 2291 3584 
Q 2894 3584 3203 3211 
Q 3513 2838 3513 2113 
z
" transform="scale(0.015625)"/>
       <path id="DejaVuSans-6f" d="M 1959 3097 
Q 1497 3097 1228 2736 
Q 959 2375 959 1747 
Q 959 1119 1226 758 
Q 1494 397 1959 397 
Q 2419 397 2687 759 
Q 2956 1122 2956 1747 
Q 2956 2369 2687 2733 
Q 2419 3097 1959 3097 
z
M 1959 3584 
Q 2709 3584 3137 3096 
Q 3566 2609 3566 1747 
Q 3566 888 3137 398 
Q 2709 -91 1959 -91 
Q 1206 -91 779 398 
Q 353 888 353 1747 
Q 353 2609 779 3096 
Q 1206 3584 1959 3584 
z
" transform="scale(0.015625)"/>
       <path id="DejaVuSans-75" d="M 544 1381 
L 544 3500 
L 1119 3500 
L 1119 1403 
Q 1119 906 1312 657 
Q 1506 409 1894 409 
Q 2359 409 2629 706 
Q 2900 1003 2900 1516 
L 2900 3500 
L 3475 3500 
L 3475 0 
L 2900 0 
L 2900 538 
Q 2691 219 2414 64 
Q 2138 -91 1772 -91 
Q 1169 -91 856 284 
Q 544 659 544 1381 
z
M 1991 3584 
L 1991 3584 
z
" transform="scale(0.015625)"/>
       <path id="DejaVuSans-72" d="M 2631 2963 
Q 2534 3019 2420 3045 
Q 2306 3072 2169 3072 
Q 1681 3072 1420 2755 
Q 1159 2438 1159 1844 
L 1159 0 
L 581 0 
L 581 3500 
L 1159 3500 
L 1159 2956 
Q 1341 3275 1631 3429 
Q 1922 3584 2338 3584 
Q 2397 3584 2469 3576 
Q 2541 3569 2628 3553 
L 2631 2963 
z
" transform="scale(0.015625)"/>
       <path id="DejaVuSans-73" d="M 2834 3397 
L 2834 2853 
Q 2591 2978 2328 3040 
Q 2066 3103 1784 3103 
Q 1356 3103 1142 2972 
Q 928 2841 928 2578 
Q 928 2378 1081 2264 
Q 1234 2150 1697 2047 
L 1894 2003 
Q 2506 1872 2764 1633 
Q 3022 1394 3022 966 
Q 3022 478 2636 193 
Q 2250 -91 1575 -91 
Q 1294 -91 989 -36 
Q 684 19 347 128 
L 347 722 
Q 666 556 975 473 
Q 1284 391 1588 391 
Q 1994 391 2212 530 
Q 2431 669 2431 922 
Q 2431 1156 2273 1281 
Q 2116 1406 1581 1522 
L 1381 1569 
Q 847 1681 609 1914 
Q 372 2147 372 2553 
Q 372 3047 722 3315 
Q 1072 3584 1716 3584 
Q 2034 3584 2315 3537 
Q 2597 3491 2834 3397 
z
" transform="scale(0.015625)"/>
      </defs>
      <use xlink:href="#DejaVuSans-68"/>
      <use xlink:href="#DejaVuSans-6f" transform="translate(63.378906 0)"/>
      <use xlink:href="#DejaVuSans-75" transform="translate(124.560547 0)"/>
      <use xlink:href="#DejaVuSans-72" transform="translate(187.939453 0)"/>
      <use xlink:href="#DejaVuSans-73" transform="translate(229.052734 0)"/>
     </g>
    </g>
   </g>
   <g id="matplotlib.axis_2">
    <g id="ytick_1">
     <g id="line2d_13">
      <defs>
       <path id="m3f1db72f81" d="M 0 0 
L -3.5 0 
" style="stroke: #000000; stroke-width: 0.8"/>
      </defs>
      <g>
       <use xlink:href="#m3f1db72f81" x="48.90125" y="149.036507" style="stroke: #000000; stroke-width: 0.8"/>
      </g>
     </g>
     <g id="text_14">
      <!-- 20 -->
      <g transform="translate(29.17625 152.835726) scale(0.1 -0.1)">
       <use xlink:href="#DejaVuSans-32"/>
       <use xlink:href="#DejaVuSans-30" transform="translate(63.623047 0)"/>
      </g>
     </g>
    </g>
    <g id="ytick_2">
     <g id="line2d_14">
      <g>
       <use xlink:href="#m3f1db72f81" x="48.90125" y="122.642467" style="stroke: #000000; stroke-width: 0.8"/>
      </g>
     </g>
     <g id="text_15">
      <!-- 40 -->
      <g transform="translate(29.17625 126.441686) scale(0.1 -0.1)">
       <use xlink:href="#DejaVuSans-34"/>
       <use xlink:href="#DejaVuSans-30" transform="translate(63.623047 0)"/>
      </g>
     </g>
    </g>
    <g id="ytick_3">
     <g id="line2d_15">
      <g>
       <use xlink:href="#m3f1db72f81" x="48.90125" y="96.248427" style="stroke: #000000; stroke-width: 0.8"/>
      </g>
     </g>
     <g id="text_16">
      <!-- 60 -->
      <g transform="translate(29.17625 100.047646) scale(0.1 -0.1)">
       <use xlink:href="#DejaVuSans-36"/>
       <use xlink:href="#DejaVuSans-30" transform="translate(63.623047 0)"/>
      </g>
     </g>
    </g>
    <g id="ytick_4">
     <g id="line2d_16">
      <g>
       <use xlink:href="#m3f1db72f81" x="48.90125" y="69.854388" style="stroke: #000000; stroke-width: 0.8"/>
      </g>
     </g>
     <g id="text_17">
      <!-- 80 -->
      <g transform="translate(29.17625 73.653606) scale(0.1 -0.1)">
       <use xlink:href="#DejaVuSans-38"/>
       <use xlink:href="#DejaVuSans-30" transform="translate(63.623047 0)"/>
      </g>
     </g>
    </g>
    <g id="ytick_5">
     <g id="line2d_17">
      <g>
       <use xlink:href="#m3f1db72f81" x="48.90125" y="43.460348" style="stroke: #000000; stroke-width: 0.8"/>
      </g>
     </g>
     <g id="text_18">
      <!-- 100 -->
      <g transform="translate(22.81375 47.259566) scale(0.1 -0.1)">
       <use xlink:href="#DejaVuSans-31"/>
       <use xlink:href="#DejaVuSans-30" transform="translate(63.623047 0)"/>
       <use xlink:href="#DejaVuSans-30" transform="translate(127.246094 0)"/>
      </g>
     </g>
    </g>
    <g id="text_19">
     <!-- availability [%] -->
     <g transform="translate(16.318125 139.873187) rotate(-90) scale(0.12 -0.12)">
      <defs>
       <path id="DejaVuSans-61" d="M 2194 1759 
Q 1497 1759 1228 1600 
Q 959 1441 959 1056 
Q 959 750 1161 570 
Q 1363 391 1709 391 
Q 2188 391 2477 730 
Q 2766 1069 2766 1631 
L 2766 1759 
L 2194 1759 
z
M 3341 1997 
L 3341 0 
L 2766 0 
L 2766 531 
Q 2569 213 2275 61 
Q 1981 -91 1556 -91 
Q 1019 -91 701 211 
Q 384 513 384 1019 
Q 384 1609 779 1909 
Q 1175 2209 1959 2209 
L 2766 2209 
L 2766 2266 
Q 2766 2663 2505 2880 
Q 2244 3097 1772 3097 
Q 1472 3097 1187 3025 
Q 903 2953 641 2809 
L 641 3341 
Q 956 3463 1253 3523 
Q 1550 3584 1831 3584 
Q 2591 3584 2966 3190 
Q 3341 2797 3341 1997 
z
" transform="scale(0.015625)"/>
       <path id="DejaVuSans-76" d="M 191 3500 
L 800 3500 
L 1894 563 
L 2988 3500 
L 3597 3500 
L 2284 0 
L 1503 0 
L 191 3500 
z
" transform="scale(0.015625)"/>
       <path id="DejaVuSans-69" d="M 603 3500 
L 1178 3500 
L 1178 0 
L 603 0 
L 603 3500 
z
M 603 4863 
L 1178 4863 
L 1178 4134 
L 603 4134 
L 603 4863 
z
" transform="scale(0.015625)"/>
       <path id="DejaVuSans-6c" d="M 603 4863 
L 1178 4863 
L 1178 0 
L 603 0 
L 603 4863 
z
" transform="scale(0.015625)"/>
       <path id="DejaVuSans-62" d="M 3116 1747 
Q 3116 2381 2855 2742 
Q 2594 3103 2138 3103 
Q 1681 3103 1420 2742 
Q 1159 2381 1159 1747 
Q 1159 1113 1420 752 
Q 1681 391 2138 391 
Q 2594 391 2855 752 
Q 3116 1113 3116 1747 
z
M 1159 2969 
Q 1341 3281 1617 3432 
Q 1894 3584 2278 3584 
Q 2916 3584 3314 3078 
Q 3713 2572 3713 1747 
Q 3713 922 3314 415 
Q 2916 -91 2278 -91 
Q 1894 -91 1617 61 
Q 1341 213 1159 525 
L 1159 0 
L 581 0 
L 581 4863 
L 1159 4863 
L 1159 2969 
z
" transform="scale(0.015625)"/>
       <path id="DejaVuSans-74" d="M 1172 4494 
L 1172 3500 
L 2356 3500 
L 2356 3053 
L 1172 3053 
L 1172 1153 
Q 1172 725 1289 603 
Q 1406 481 1766 481 
L 2356 481 
L 2356 0 
L 1766 0 
Q 1100 0 847 248 
Q 594 497 594 1153 
L 594 3053 
L 172 3053 
L 172 3500 
L 594 3500 
L 594 4494 
L 1172 4494 
z
" transform="scale(0.015625)"/>
       <path id="DejaVuSans-79" d="M 2059 -325 
Q 1816 -950 1584 -1140 
Q 1353 -1331 966 -1331 
L 506 -1331 
L 506 -850 
L 844 -850 
Q 1081 -850 1212 -737 
Q 1344 -625 1503 -206 
L 1606 56 
L 191 3500 
L 800 3500 
L 1894 763 
L 2988 3500 
L 3597 3500 
L 2059 -325 
z
" transform="scale(0.015625)"/>
       <path id="DejaVuSans-20" transform="scale(0.015625)"/>
       <path id="DejaVuSans-5b" d="M 550 4863 
L 1875 4863 
L 1875 4416 
L 1125 4416 
L 1125 -397 
L 1875 -397 
L 1875 -844 
L 550 -844 
L 550 4863 
z
" transform="scale(0.015625)"/>
       <path id="DejaVuSans-25" d="M 4653 2053 
Q 4381 2053 4226 1822 
Q 4072 1591 4072 1178 
Q 4072 772 4226 539 
Q 4381 306 4653 306 
Q 4919 306 5073 539 
Q 5228 772 5228 1178 
Q 5228 1588 5073 1820 
Q 4919 2053 4653 2053 
z
M 4653 2450 
Q 5147 2450 5437 2106 
Q 5728 1763 5728 1178 
Q 5728 594 5436 251 
Q 5144 -91 4653 -91 
Q 4153 -91 3862 251 
Q 3572 594 3572 1178 
Q 3572 1766 3864 2108 
Q 4156 2450 4653 2450 
z
M 1428 4353 
Q 1159 4353 1004 4120 
Q 850 3888 850 3481 
Q 850 3069 1003 2837 
Q 1156 2606 1428 2606 
Q 1700 2606 1854 2837 
Q 2009 3069 2009 3481 
Q 2009 3884 1853 4118 
Q 1697 4353 1428 4353 
z
M 4250 4750 
L 4750 4750 
L 1831 -91 
L 1331 -91 
L 4250 4750 
z
M 1428 4750 
Q 1922 4750 2215 4408 
Q 2509 4066 2509 3481 
Q 2509 2891 2217 2550 
Q 1925 2209 1428 2209 
Q 931 2209 642 2551 
Q 353 2894 353 3481 
Q 353 4063 643 4406 
Q 934 4750 1428 4750 
z
" transform="scale(0.015625)"/>
       <path id="DejaVuSans-5d" d="M 1947 4863 
L 1947 -844 
L 622 -844 
L 622 -397 
L 1369 -397 
L 1369 4416 
L 622 4416 
L 622 4863 
L 1947 4863 
z
" transform="scale(0.015625)"/>
      </defs>
      <use xlink:href="#DejaVuSans-61"/>
      <use xlink:href="#DejaVuSans-76" transform="translate(61.279297 0)"/>
      <use xlink:href="#DejaVuSans-61" transform="translate(120.458984 0)"/>
      <use xlink:href="#DejaVuSans-69" transform="translate(181.738281 0)"/>
      <use xlink:href="#DejaVuSans-6c" transform="translate(209.521484 0)"/>
      <use xlink:href="#DejaVuSans-61" transform="translate(237.304688 0)"/>
      <use xlink:href="#DejaVuSans-62" transform="translate(298.583984 0)"/>
      <use xlink:href="#DejaVuSans-69" transform="translate(362.060547 0)"/>
      <use xlink:href="#DejaVuSans-6c" transform="translate(389.84375 0)"/>
      <use xlink:href="#DejaVuSans-69" transform="translate(417.626953 0)"/>
      <use xlink:href="#DejaVuSans-74" transform="translate(445.410156 0)"/>
      <use xlink:href="#DejaVuSans-79" transform="translate(484.619141 0)"/>
      <use xlink:href="#DejaVuSans-20" transform="translate(543.798828 0)"/>
      <use xlink:href="#DejaVuSans-5b" transform="translate(575.585938 0)"/>
      <use xlink:href="#DejaVuSans-25" transform="translate(614.599609 0)"/>
      <use xlink:href="#DejaVuSans-5d" transform="translate(709.619141 0)"/>
     </g>
    </g>
   </g>
   <g id="line2d_18">
    <path d="M 48.90125 135.043496 
L 66.222758 145.35475 
L 83.544266 145.072017 
L 100.865773 129.238892 
L 118.187281 114.733375 
L 135.508789 109.363296 
L 152.830297 116.904905 
L 170.151804 110.700286 
L 187.473312 110.423677 
L 204.79482 81.651032 
L 222.116328 84.443812 
L 239.437835 112.743831 
" clip-path="url(#p2ffb0a374b)" style="fill: none; stroke: #a1150b; stroke-opacity: 0.8; stroke-width: 2.5; stroke-linecap: square"/>
   </g>
   <g id="line2d_19">
    <path d="M 48.90125 135.043496 
L 66.222758 145.05399 
L 83.544266 144.768433 
L 100.865773 120.000556 
L 118.187281 126.872812 
L 135.508789 135.790197 
L 152.830297 128.610028 
L 170.151804 117.173319 
L 187.473312 113.674023 
L 204.79482 55.392763 
L 222.116328 57.147795 
L 239.437835 103.340823 
" clip-path="url(#p2ffb0a374b)" style="fill: none; stroke: #0000cd; stroke-opacity: 0.8; stroke-width: 2.5; stroke-linecap: square"/>
   </g>
   <g id="text_20">
    <path d="M 98.701017 127.138719 
L 99.34867 127.912103 
Q 98.835401 128.011769 98.402554 128.210391 
Q 97.969707 128.409012 97.610328 128.709966 
Q 96.805319 129.384103 96.787044 130.267604 
Q 96.769003 131.148464 97.540649 132.069912 
Q 98.312295 132.991359 99.183842 133.129698 
Q 100.055623 133.265396 100.860632 132.591259 
Q 101.220011 132.290305 101.491546 131.899056 
Q 101.763082 131.507808 101.951321 131.020012 
L 102.591751 131.78477 
Q 102.380137 132.235892 102.076672 132.626977 
Q 101.775848 133.018297 101.357531 133.368607 
Q 100.220456 134.320826 98.952277 134.167359 
Q 97.685535 134.012688 96.669514 132.799424 
Q 95.639048 131.568911 95.72481 130.298735 
Q 95.810806 129.025917 96.988132 128.039991 
Q 97.369074 127.72098 97.798975 127.495478 
Q 98.227673 127.268538 98.701017 127.138719 
z
M 102.442935 128.859698 
L 99.892049 125.813602 
L 100.71862 125.121408 
L 103.243023 128.135879 
Q 103.84132 128.850324 104.41851 128.975929 
Q 104.995935 129.098892 105.553691 128.631812 
Q 106.222136 128.072037 106.252732 127.320065 
Q 106.284765 126.566888 105.667207 125.829443 
L 103.278836 122.977411 
L 104.105408 122.285217 
L 108.318764 127.316522 
L 107.492193 128.008717 
L 106.84454 127.235333 
Q 106.928116 127.945498 106.716516 128.50177 
Q 106.506353 129.056839 105.980222 129.497435 
Q 105.1134 130.223336 104.212027 130.061062 
Q 103.312091 129.897585 102.442935 128.859698 
z
M 101.871014 123.950929 
L 101.871014 123.950929 
z
M 109.369517 119.190205 
Q 109.162664 119.226474 108.967488 119.326334 
Q 108.771108 119.424756 108.574169 119.589678 
Q 107.872661 120.177141 107.879079 120.947029 
Q 107.885497 121.716918 108.600564 122.570802 
L 110.820401 125.221581 
L 109.989517 125.917387 
L 105.77616 120.886082 
L 106.607045 120.190276 
L 107.261921 120.972285 
Q 107.139531 120.294623 107.371023 119.724138 
Q 107.602749 119.151013 108.200755 118.650225 
Q 108.285569 118.5792 108.3987 118.504026 
Q 108.510628 118.427414 108.654953 118.345682 
L 109.369517 119.190205 
z
M 112.990979 116.157491 
Q 112.784126 116.19376 112.58895 116.29362 
Q 112.39257 116.392042 112.19563 116.556965 
Q 111.494123 117.144427 111.500541 117.914315 
Q 111.506959 118.684204 112.222026 119.538088 
L 114.441863 122.188867 
L 113.610979 122.884673 
L 109.397622 117.853368 
L 110.228506 117.157562 
L 110.883382 117.939571 
Q 110.760993 117.261909 110.992485 116.691425 
Q 111.22421 116.118299 111.822217 115.617512 
Q 111.90703 115.546486 112.020162 115.471312 
Q 112.13209 115.3947 112.276415 115.312968 
L 112.990979 116.157491 
z
M 119.24196 113.537117 
L 119.580232 113.941059 
L 115.77944 117.123949 
Q 116.549133 117.932088 117.383524 117.993935 
Q 118.217916 118.055781 119.040175 117.367198 
Q 119.515993 116.968735 119.865551 116.477909 
Q 120.21511 115.987084 120.460205 115.383197 
L 121.115081 116.165206 
Q 120.827151 116.726703 120.443022 117.217132 
Q 120.058892 117.707561 119.578762 118.109635 
Q 118.374124 119.118433 117.08492 119.007029 
Q 115.794513 118.894188 114.792938 117.698174 
Q 113.75886 116.463348 113.819144 115.18027 
Q 113.878224 113.895754 115.010986 112.947146 
Q 116.025872 112.097252 117.164428 112.256553 
Q 118.301779 112.414417 119.24196 113.537117 
z
M 118.211943 113.986371 
Q 117.636321 113.316524 116.927169 113.223167 
Q 116.216814 113.128372 115.60587 113.639994 
Q 114.914425 114.219029 114.826421 114.957936 
Q 114.738417 115.696844 115.269851 116.459944 
L 118.211943 113.986371 
z
M 124.517791 108.583396 
L 127.061455 111.620866 
L 126.234883 112.313061 
L 123.714092 109.302903 
Q 123.115795 108.588457 122.540778 108.468369 
Q 121.964558 108.346843 121.408239 108.81272 
Q 120.738357 109.373698 120.709198 110.124467 
Q 120.678836 110.873798 121.296394 111.611243 
L 123.677542 114.45465 
L 122.846658 115.150455 
L 118.633302 110.11915 
L 119.464186 109.423344 
L 120.119062 110.205353 
Q 120.036222 109.501908 120.249493 108.941791 
Q 120.464202 108.38047 120.990333 107.939873 
Q 121.857155 107.213972 122.750371 107.378186 
Q 123.645024 107.541197 124.517791 108.583396 
z
M 124.117204 103.095825 
L 125.313797 104.524715 
L 127.015816 103.099397 
L 127.553921 103.741967 
L 125.851903 105.167285 
L 128.139153 107.898565 
Q 128.654387 108.513822 128.969442 108.548352 
Q 129.284497 108.582883 129.802002 108.149509 
L 130.650137 107.439257 
L 131.229172 108.130702 
L 130.381038 108.840954 
Q 129.423652 109.642696 128.761414 109.590757 
Q 128.097973 109.537381 127.308269 108.594371 
L 125.021019 105.863091 
L 124.414387 106.371101 
L 123.876281 105.728532 
L 124.482913 105.220521 
L 123.28632 103.791631 
L 124.117204 103.095825 
z
" clip-path="url(#p2ffb0a374b)" style="fill: #a1150b; stroke: #ffffff; stroke-width: 5"/>
    <path d="M 98.701017 127.138719 
L 99.34867 127.912103 
Q 98.835401 128.011769 98.402554 128.210391 
Q 97.969707 128.409012 97.610328 128.709966 
Q 96.805319 129.384103 96.787044 130.267604 
Q 96.769003 131.148464 97.540649 132.069912 
Q 98.312295 132.991359 99.183842 133.129698 
Q 100.055623 133.265396 100.860632 132.591259 
Q 101.220011 132.290305 101.491546 131.899056 
Q 101.763082 131.507808 101.951321 131.020012 
L 102.591751 131.78477 
Q 102.380137 132.235892 102.076672 132.626977 
Q 101.775848 133.018297 101.357531 133.368607 
Q 100.220456 134.320826 98.952277 134.167359 
Q 97.685535 134.012688 96.669514 132.799424 
Q 95.639048 131.568911 95.72481 130.298735 
Q 95.810806 129.025917 96.988132 128.039991 
Q 97.369074 127.72098 97.798975 127.495478 
Q 98.227673 127.268538 98.701017 127.138719 
z
M 102.442935 128.859698 
L 99.892049 125.813602 
L 100.71862 125.121408 
L 103.243023 128.135879 
Q 103.84132 128.850324 104.41851 128.975929 
Q 104.995935 129.098892 105.553691 128.631812 
Q 106.222136 128.072037 106.252732 127.320065 
Q 106.284765 126.566888 105.667207 125.829443 
L 103.278836 122.977411 
L 104.105408 122.285217 
L 108.318764 127.316522 
L 107.492193 128.008717 
L 106.84454 127.235333 
Q 106.928116 127.945498 106.716516 128.50177 
Q 106.506353 129.056839 105.980222 129.497435 
Q 105.1134 130.223336 104.212027 130.061062 
Q 103.312091 129.897585 102.442935 128.859698 
z
M 101.871014 123.950929 
L 101.871014 123.950929 
z
M 109.369517 119.190205 
Q 109.162664 119.226474 108.967488 119.326334 
Q 108.771108 119.424756 108.574169 119.589678 
Q 107.872661 120.177141 107.879079 120.947029 
Q 107.885497 121.716918 108.600564 122.570802 
L 110.820401 125.221581 
L 109.989517 125.917387 
L 105.77616 120.886082 
L 106.607045 120.190276 
L 107.261921 120.972285 
Q 107.139531 120.294623 107.371023 119.724138 
Q 107.602749 119.151013 108.200755 118.650225 
Q 108.285569 118.5792 108.3987 118.504026 
Q 108.510628 118.427414 108.654953 118.345682 
L 109.369517 119.190205 
z
M 112.990979 116.157491 
Q 112.784126 116.19376 112.58895 116.29362 
Q 112.39257 116.392042 112.19563 116.556965 
Q 111.494123 117.144427 111.500541 117.914315 
Q 111.506959 118.684204 112.222026 119.538088 
L 114.441863 122.188867 
L 113.610979 122.884673 
L 109.397622 117.853368 
L 110.228506 117.157562 
L 110.883382 117.939571 
Q 110.760993 117.261909 110.992485 116.691425 
Q 111.22421 116.118299 111.822217 115.617512 
Q 111.90703 115.546486 112.020162 115.471312 
Q 112.13209 115.3947 112.276415 115.312968 
L 112.990979 116.157491 
z
M 119.24196 113.537117 
L 119.580232 113.941059 
L 115.77944 117.123949 
Q 116.549133 117.932088 117.383524 117.993935 
Q 118.217916 118.055781 119.040175 117.367198 
Q 119.515993 116.968735 119.865551 116.477909 
Q 120.21511 115.987084 120.460205 115.383197 
L 121.115081 116.165206 
Q 120.827151 116.726703 120.443022 117.217132 
Q 120.058892 117.707561 119.578762 118.109635 
Q 118.374124 119.118433 117.08492 119.007029 
Q 115.794513 118.894188 114.792938 117.698174 
Q 113.75886 116.463348 113.819144 115.18027 
Q 113.878224 113.895754 115.010986 112.947146 
Q 116.025872 112.097252 117.164428 112.256553 
Q 118.301779 112.414417 119.24196 113.537117 
z
M 118.211943 113.986371 
Q 117.636321 113.316524 116.927169 113.223167 
Q 116.216814 113.128372 115.60587 113.639994 
Q 114.914425 114.219029 114.826421 114.957936 
Q 114.738417 115.696844 115.269851 116.459944 
L 118.211943 113.986371 
z
M 124.517791 108.583396 
L 127.061455 111.620866 
L 126.234883 112.313061 
L 123.714092 109.302903 
Q 123.115795 108.588457 122.540778 108.468369 
Q 121.964558 108.346843 121.408239 108.81272 
Q 120.738357 109.373698 120.709198 110.124467 
Q 120.678836 110.873798 121.296394 111.611243 
L 123.677542 114.45465 
L 122.846658 115.150455 
L 118.633302 110.11915 
L 119.464186 109.423344 
L 120.119062 110.205353 
Q 120.036222 109.501908 120.249493 108.941791 
Q 120.464202 108.38047 120.990333 107.939873 
Q 121.857155 107.213972 122.750371 107.378186 
Q 123.645024 107.541197 124.517791 108.583396 
z
M 124.117204 103.095825 
L 125.313797 104.524715 
L 127.015816 103.099397 
L 127.553921 103.741967 
L 125.851903 105.167285 
L 128.139153 107.898565 
Q 128.654387 108.513822 128.969442 108.548352 
Q 129.284497 108.582883 129.802002 108.149509 
L 130.650137 107.439257 
L 131.229172 108.130702 
L 130.381038 108.840954 
Q 129.423652 109.642696 128.761414 109.590757 
Q 128.097973 109.537381 127.308269 108.594371 
L 125.021019 105.863091 
L 124.414387 106.371101 
L 123.876281 105.728532 
L 124.482913 105.220521 
L 123.28632 103.791631 
L 124.117204 103.095825 
z
" clip-path="url(#p2ffb0a374b)" style="fill: #a1150b"/>
   </g>
   <g id="text_21">
    <path d="M 153.58019 118.489643 
Q 153.83311 117.696351 154.316155 117.246797 
Q 154.799199 116.797242 155.545375 116.6465 
Q 156.550691 116.443406 157.238741 117.037038 
Q 157.926421 117.628833 158.18855 118.92637 
L 158.97308 122.809792 
L 157.91079 123.024396 
L 157.133315 119.175893 
Q 156.946557 118.251444 156.527355 117.871302 
Q 156.10962 117.48895 155.438797 117.62447 
Q 154.617269 117.790435 154.249694 118.432818 
Q 153.883587 119.072991 154.074057 120.015819 
L 154.808463 123.651128 
L 153.746174 123.865732 
L 152.968698 120.01723 
Q 152.780827 119.087267 152.363834 118.708591 
Q 151.946842 118.329916 151.263154 118.468035 
Q 150.452652 118.631772 150.085449 119.275993 
Q 149.720084 119.919842 149.909441 120.857156 
L 150.643847 124.492465 
L 149.581557 124.707069 
L 148.282052 118.27452 
L 149.344342 118.059916 
L 149.546322 119.059718 
Q 149.788828 118.39478 150.237436 118.011481 
Q 150.686043 117.628183 151.380759 117.487837 
Q 152.082826 117.346005 152.645567 117.603418 
Q 153.207937 117.858994 153.58019 118.489643 
z
M 163.350928 118.560624 
Q 162.069932 118.819411 161.634579 119.211509 
Q 161.199227 119.603606 161.342172 120.311187 
Q 161.455786 120.873576 161.893868 121.129392 
Q 162.331578 121.383371 162.967482 121.254906 
Q 163.847822 121.077059 164.2531 120.346719 
Q 164.658379 119.616379 164.449715 118.583495 
L 164.402191 118.348247 
L 163.350928 118.560624 
z
M 165.3706 117.697344 
L 166.112061 121.367573 
L 165.055285 121.581063 
L 164.858131 120.605153 
Q 164.61414 121.26274 164.130242 121.651255 
Q 163.646343 122.03977 162.865248 122.197567 
Q 161.878311 122.396948 161.181739 121.95998 
Q 160.487005 121.522641 160.299134 120.592678 
Q 160.080074 119.508334 160.694647 118.810314 
Q 161.311058 118.111923 162.751949 117.820834 
L 164.235111 117.521205 
L 164.213948 117.416447 
Q 164.066547 116.686812 163.506293 116.3849 
Q 162.94604 116.082988 162.078564 116.258235 
Q 161.527203 116.369621 161.030142 116.607765 
Q 160.53492 116.845537 160.106863 117.207468 
L 159.909338 116.22972 
Q 160.44297 115.888545 160.966541 115.668 
Q 161.48974 115.445618 162.006182 115.341286 
Q 163.402964 115.059108 164.238453 115.643996 
Q 165.07357 116.227047 165.3706 117.697344 
z
M 172.851546 115.964147 
L 173.636076 119.847569 
L 172.5793 120.061059 
L 171.801825 116.212557 
Q 171.617295 115.299135 171.169411 114.919048 
Q 170.721156 114.537124 170.0099 114.680812 
Q 169.153452 114.853832 168.769337 115.499556 
Q 168.384851 116.143442 168.575321 117.08627 
L 169.309727 120.721579 
L 168.247438 120.936183 
L 166.947932 114.503634 
L 168.010222 114.28903 
L 168.212202 115.288832 
Q 168.475315 114.631208 168.93016 114.240911 
Q 169.386843 113.850243 170.059504 113.714352 
Q 171.16774 113.490466 171.874133 114.061264 
Q 172.582363 114.631691 172.851546 115.964147 
z
M 178.013695 115.598448 
Q 176.732699 115.857235 176.297346 116.249333 
Q 175.861993 116.641431 176.004939 117.349011 
Q 176.118553 117.9114 176.556634 118.167216 
Q 176.994345 118.421195 177.630248 118.29273 
Q 178.510589 118.114883 178.915867 117.384543 
Q 179.321146 116.654203 179.112482 115.621319 
L 179.064957 115.386072 
L 178.013695 115.598448 
z
M 180.033367 114.735168 
L 180.774828 118.405397 
L 179.718052 118.618887 
L 179.520898 117.642977 
Q 179.276907 118.300564 178.793008 118.689079 
Q 178.30911 119.077594 177.528014 119.235391 
Q 176.541078 119.434772 175.844506 118.997804 
Q 175.149772 118.560465 174.961901 117.630502 
Q 174.742841 116.546158 175.357414 115.848139 
Q 175.973825 115.149747 177.414716 114.858658 
L 178.897878 114.559029 
L 178.876715 114.454271 
Q 178.729314 113.724636 178.16906 113.422724 
Q 177.608806 113.120812 176.741331 113.296059 
Q 176.18997 113.407445 175.692909 113.645589 
Q 175.197686 113.883361 174.769629 114.245292 
L 174.572104 113.267545 
Q 175.105737 112.926369 175.629307 112.705824 
Q 176.152507 112.483442 176.668949 112.37911 
Q 178.065731 112.096932 178.90122 112.68182 
Q 179.736337 113.264871 180.033367 114.735168 
z
M 186.518279 113.819137 
Q 186.286225 112.670468 185.684703 112.13587 
Q 185.084647 111.599063 184.228199 111.772083 
Q 183.379102 111.943618 183.032654 112.671638 
Q 182.685835 113.397819 182.91789 114.546489 
Q 183.14883 115.689645 183.750724 116.226081 
Q 184.352618 116.762516 185.201714 116.590981 
Q 186.058162 116.417962 186.402772 115.690313 
Q 186.74922 114.962293 186.518279 113.819137 
z
M 188.078892 116.099639 
Q 188.410452 117.740858 187.842698 118.68957 
Q 187.276782 119.637912 185.771566 119.941996 
Q 185.214691 120.054496 184.703595 120.071668 
Q 184.1925 120.08884 183.692618 120.010016 
L 183.485068 118.982646 
Q 184.000916 119.140499 184.479004 119.168253 
Q 184.957463 119.197844 185.427958 119.102795 
Q 186.468193 118.892646 186.875105 118.246142 
Q 187.282017 117.599639 187.060359 116.502429 
L 186.954542 115.978636 
Q 186.7425 116.614465 186.288379 116.998877 
Q 185.834257 117.38329 185.121163 117.527349 
Q 183.939412 117.766087 183.03336 117.011817 
Q 182.126937 116.255709 181.826194 114.767034 
Q 181.524709 113.274682 182.066899 112.227838 
Q 182.608719 111.179156 183.79047 110.940418 
Q 184.503564 110.796359 185.071299 110.974335 
Q 185.639034 111.152312 186.080903 111.654125 
L 185.88375 110.678215 
L 186.940526 110.464725 
L 188.078892 116.099639 
z
M 195.216358 111.864923 
L 195.32069 112.381365 
L 190.461358 113.363048 
Q 190.751742 114.440635 191.455331 114.893401 
Q 192.15892 115.346167 193.210182 115.13379 
Q 193.818518 115.010894 194.360021 114.746557 
Q 194.901525 114.482219 195.405232 114.06866 
L 195.607212 115.068462 
Q 195.086111 115.424323 194.514421 115.671804 
Q 193.942732 115.919286 193.328883 116.043295 
Q 191.788747 116.354434 190.709211 115.64095 
Q 189.629304 114.925629 189.320393 113.39652 
Q 189.001457 111.817788 189.6671 110.719224 
Q 190.332373 109.618822 191.780615 109.326247 
Q 193.078152 109.064118 194.002453 109.747751 
Q 194.926383 110.429545 195.216358 111.864923 
z
M 194.096834 111.767813 
Q 193.910931 110.904403 193.332428 110.483753 
Q 192.753555 110.061266 191.972459 110.219063 
Q 191.088443 110.397652 190.658289 111.004855 
Q 190.228134 111.612058 190.330684 112.536303 
L 194.096834 111.767813 
z
M 200.783873 108.683827 
L 200.080655 105.202899 
L 201.137431 104.989409 
L 202.943001 113.926977 
L 201.886225 114.140467 
L 201.691299 113.175585 
Q 201.474486 113.816203 201.021831 114.198406 
Q 200.571015 114.580238 199.857921 114.724298 
Q 198.69271 114.959694 197.771528 114.177874 
Q 196.851813 113.393846 196.545501 111.877602 
Q 196.239189 110.361358 196.78279 109.283623 
Q 197.32823 108.205517 198.49344 107.970121 
Q 199.206534 107.826061 199.770222 108.002942 
Q 200.335377 108.177614 200.783873 108.683827 
z
M 197.637196 111.657058 
Q 197.872593 112.822268 198.486312 113.388834 
Q 199.100031 113.955399 199.9381 113.786092 
Q 200.776169 113.616785 201.123657 112.856036 
Q 201.472982 112.094916 201.237586 110.929706 
Q 201.00219 109.764496 200.384795 109.198673 
Q 199.769238 108.632478 198.931169 108.801785 
Q 198.0931 108.971092 197.74745 109.73147 
Q 197.4018 110.491847 197.637196 111.657058 
z
" clip-path="url(#p2ffb0a374b)" style="fill: #0000cd; stroke: #ffffff; stroke-width: 5"/>
    <path d="M 153.58019 118.489643 
Q 153.83311 117.696351 154.316155 117.246797 
Q 154.799199 116.797242 155.545375 116.6465 
Q 156.550691 116.443406 157.238741 117.037038 
Q 157.926421 117.628833 158.18855 118.92637 
L 158.97308 122.809792 
L 157.91079 123.024396 
L 157.133315 119.175893 
Q 156.946557 118.251444 156.527355 117.871302 
Q 156.10962 117.48895 155.438797 117.62447 
Q 154.617269 117.790435 154.249694 118.432818 
Q 153.883587 119.072991 154.074057 120.015819 
L 154.808463 123.651128 
L 153.746174 123.865732 
L 152.968698 120.01723 
Q 152.780827 119.087267 152.363834 118.708591 
Q 151.946842 118.329916 151.263154 118.468035 
Q 150.452652 118.631772 150.085449 119.275993 
Q 149.720084 119.919842 149.909441 120.857156 
L 150.643847 124.492465 
L 149.581557 124.707069 
L 148.282052 118.27452 
L 149.344342 118.059916 
L 149.546322 119.059718 
Q 149.788828 118.39478 150.237436 118.011481 
Q 150.686043 117.628183 151.380759 117.487837 
Q 152.082826 117.346005 152.645567 117.603418 
Q 153.207937 117.858994 153.58019 118.489643 
z
M 163.350928 118.560624 
Q 162.069932 118.819411 161.634579 119.211509 
Q 161.199227 119.603606 161.342172 120.311187 
Q 161.455786 120.873576 161.893868 121.129392 
Q 162.331578 121.383371 162.967482 121.254906 
Q 163.847822 121.077059 164.2531 120.346719 
Q 164.658379 119.616379 164.449715 118.583495 
L 164.402191 118.348247 
L 163.350928 118.560624 
z
M 165.3706 117.697344 
L 166.112061 121.367573 
L 165.055285 121.581063 
L 164.858131 120.605153 
Q 164.61414 121.26274 164.130242 121.651255 
Q 163.646343 122.03977 162.865248 122.197567 
Q 161.878311 122.396948 161.181739 121.95998 
Q 160.487005 121.522641 160.299134 120.592678 
Q 160.080074 119.508334 160.694647 118.810314 
Q 161.311058 118.111923 162.751949 117.820834 
L 164.235111 117.521205 
L 164.213948 117.416447 
Q 164.066547 116.686812 163.506293 116.3849 
Q 162.94604 116.082988 162.078564 116.258235 
Q 161.527203 116.369621 161.030142 116.607765 
Q 160.53492 116.845537 160.106863 117.207468 
L 159.909338 116.22972 
Q 160.44297 115.888545 160.966541 115.668 
Q 161.48974 115.445618 162.006182 115.341286 
Q 163.402964 115.059108 164.238453 115.643996 
Q 165.07357 116.227047 165.3706 117.697344 
z
M 172.851546 115.964147 
L 173.636076 119.847569 
L 172.5793 120.061059 
L 171.801825 116.212557 
Q 171.617295 115.299135 171.169411 114.919048 
Q 170.721156 114.537124 170.0099 114.680812 
Q 169.153452 114.853832 168.769337 115.499556 
Q 168.384851 116.143442 168.575321 117.08627 
L 169.309727 120.721579 
L 168.247438 120.936183 
L 166.947932 114.503634 
L 168.010222 114.28903 
L 168.212202 115.288832 
Q 168.475315 114.631208 168.93016 114.240911 
Q 169.386843 113.850243 170.059504 113.714352 
Q 171.16774 113.490466 171.874133 114.061264 
Q 172.582363 114.631691 172.851546 115.964147 
z
M 178.013695 115.598448 
Q 176.732699 115.857235 176.297346 116.249333 
Q 175.861993 116.641431 176.004939 117.349011 
Q 176.118553 117.9114 176.556634 118.167216 
Q 176.994345 118.421195 177.630248 118.29273 
Q 178.510589 118.114883 178.915867 117.384543 
Q 179.321146 116.654203 179.112482 115.621319 
L 179.064957 115.386072 
L 178.013695 115.598448 
z
M 180.033367 114.735168 
L 180.774828 118.405397 
L 179.718052 118.618887 
L 179.520898 117.642977 
Q 179.276907 118.300564 178.793008 118.689079 
Q 178.30911 119.077594 177.528014 119.235391 
Q 176.541078 119.434772 175.844506 118.997804 
Q 175.149772 118.560465 174.961901 117.630502 
Q 174.742841 116.546158 175.357414 115.848139 
Q 175.973825 115.149747 177.414716 114.858658 
L 178.897878 114.559029 
L 178.876715 114.454271 
Q 178.729314 113.724636 178.16906 113.422724 
Q 177.608806 113.120812 176.741331 113.296059 
Q 176.18997 113.407445 175.692909 113.645589 
Q 175.197686 113.883361 174.769629 114.245292 
L 174.572104 113.267545 
Q 175.105737 112.926369 175.629307 112.705824 
Q 176.152507 112.483442 176.668949 112.37911 
Q 178.065731 112.096932 178.90122 112.68182 
Q 179.736337 113.264871 180.033367 114.735168 
z
M 186.518279 113.819137 
Q 186.286225 112.670468 185.684703 112.13587 
Q 185.084647 111.599063 184.228199 111.772083 
Q 183.379102 111.943618 183.032654 112.671638 
Q 182.685835 113.397819 182.91789 114.546489 
Q 183.14883 115.689645 183.750724 116.226081 
Q 184.352618 116.762516 185.201714 116.590981 
Q 186.058162 116.417962 186.402772 115.690313 
Q 186.74922 114.962293 186.518279 113.819137 
z
M 188.078892 116.099639 
Q 188.410452 117.740858 187.842698 118.68957 
Q 187.276782 119.637912 185.771566 119.941996 
Q 185.214691 120.054496 184.703595 120.071668 
Q 184.1925 120.08884 183.692618 120.010016 
L 183.485068 118.982646 
Q 184.000916 119.140499 184.479004 119.168253 
Q 184.957463 119.197844 185.427958 119.102795 
Q 186.468193 118.892646 186.875105 118.246142 
Q 187.282017 117.599639 187.060359 116.502429 
L 186.954542 115.978636 
Q 186.7425 116.614465 186.288379 116.998877 
Q 185.834257 117.38329 185.121163 117.527349 
Q 183.939412 117.766087 183.03336 117.011817 
Q 182.126937 116.255709 181.826194 114.767034 
Q 181.524709 113.274682 182.066899 112.227838 
Q 182.608719 111.179156 183.79047 110.940418 
Q 184.503564 110.796359 185.071299 110.974335 
Q 185.639034 111.152312 186.080903 111.654125 
L 185.88375 110.678215 
L 186.940526 110.464725 
L 188.078892 116.099639 
z
M 195.216358 111.864923 
L 195.32069 112.381365 
L 190.461358 113.363048 
Q 190.751742 114.440635 191.455331 114.893401 
Q 192.15892 115.346167 193.210182 115.13379 
Q 193.818518 115.010894 194.360021 114.746557 
Q 194.901525 114.482219 195.405232 114.06866 
L 195.607212 115.068462 
Q 195.086111 115.424323 194.514421 115.671804 
Q 193.942732 115.919286 193.328883 116.043295 
Q 191.788747 116.354434 190.709211 115.64095 
Q 189.629304 114.925629 189.320393 113.39652 
Q 189.001457 111.817788 189.6671 110.719224 
Q 190.332373 109.618822 191.780615 109.326247 
Q 193.078152 109.064118 194.002453 109.747751 
Q 194.926383 110.429545 195.216358 111.864923 
z
M 194.096834 111.767813 
Q 193.910931 110.904403 193.332428 110.483753 
Q 192.753555 110.061266 191.972459 110.219063 
Q 191.088443 110.397652 190.658289 111.004855 
Q 190.228134 111.612058 190.330684 112.536303 
L 194.096834 111.767813 
z
M 200.783873 108.683827 
L 200.080655 105.202899 
L 201.137431 104.989409 
L 202.943001 113.926977 
L 201.886225 114.140467 
L 201.691299 113.175585 
Q 201.474486 113.816203 201.021831 114.198406 
Q 200.571015 114.580238 199.857921 114.724298 
Q 198.69271 114.959694 197.771528 114.177874 
Q 196.851813 113.393846 196.545501 111.877602 
Q 196.239189 110.361358 196.78279 109.283623 
Q 197.32823 108.205517 198.49344 107.970121 
Q 199.206534 107.826061 199.770222 108.002942 
Q 200.335377 108.177614 200.783873 108.683827 
z
M 197.637196 111.657058 
Q 197.872593 112.822268 198.486312 113.388834 
Q 199.100031 113.955399 199.9381 113.786092 
Q 200.776169 113.616785 201.123657 112.856036 
Q 201.472982 112.094916 201.237586 110.929706 
Q 201.00219 109.764496 200.384795 109.198673 
Q 199.769238 108.632478 198.931169 108.801785 
Q 198.0931 108.971092 197.74745 109.73147 
Q 197.4018 110.491847 197.637196 111.657058 
z
" clip-path="url(#p2ffb0a374b)" style="fill: #0000cd"/>
   </g>
   <g id="patch_3">
    <path d="M 48.90125 150.39475 
L 48.90125 39.51475 
" style="fill: none; stroke: #000000; stroke-width: 0.8; stroke-linejoin: miter; stroke-linecap: square"/>
   </g>
   <g id="patch_4">
    <path d="M 239.437835 150.39475 
L 239.437835 39.51475 
" style="fill: none; stroke: #000000; stroke-width: 0.8; stroke-linejoin: miter; stroke-linecap: square"/>
   </g>
   <g id="patch_5">
    <path d="M 48.90125 150.39475 
L 239.437835 150.39475 
" style="fill: none; stroke: #000000; stroke-width: 0.8; stroke-linejoin: miter; stroke-linecap: square"/>
   </g>
   <g id="patch_6">
    <path d="M 48.90125 39.51475 
L 239.437835 39.51475 
" style="fill: none; stroke: #000000; stroke-width: 0.8; stroke-linejoin: miter; stroke-linecap: square"/>
   </g>
   <g id="text_22">
    <!-- Dry season  -->
    <g transform="translate(102.700011 17.837812) scale(0.14 -0.14)">
     <defs>
      <path id="DejaVuSans-44" d="M 1259 4147 
L 1259 519 
L 2022 519 
Q 2988 519 3436 956 
Q 3884 1394 3884 2338 
Q 3884 3275 3436 3711 
Q 2988 4147 2022 4147 
L 1259 4147 
z
M 628 4666 
L 1925 4666 
Q 3281 4666 3915 4102 
Q 4550 3538 4550 2338 
Q 4550 1131 3912 565 
Q 3275 0 1925 0 
L 628 0 
L 628 4666 
z
" transform="scale(0.015625)"/>
      <path id="DejaVuSans-65" d="M 3597 1894 
L 3597 1613 
L 953 1613 
Q 991 1019 1311 708 
Q 1631 397 2203 397 
Q 2534 397 2845 478 
Q 3156 559 3463 722 
L 3463 178 
Q 3153 47 2828 -22 
Q 2503 -91 2169 -91 
Q 1331 -91 842 396 
Q 353 884 353 1716 
Q 353 2575 817 3079 
Q 1281 3584 2069 3584 
Q 2775 3584 3186 3129 
Q 3597 2675 3597 1894 
z
M 3022 2063 
Q 3016 2534 2758 2815 
Q 2500 3097 2075 3097 
Q 1594 3097 1305 2825 
Q 1016 2553 972 2059 
L 3022 2063 
z
" transform="scale(0.015625)"/>
      <path id="DejaVuSans-6e" d="M 3513 2113 
L 3513 0 
L 2938 0 
L 2938 2094 
Q 2938 2591 2744 2837 
Q 2550 3084 2163 3084 
Q 1697 3084 1428 2787 
Q 1159 2491 1159 1978 
L 1159 0 
L 581 0 
L 581 3500 
L 1159 3500 
L 1159 2956 
Q 1366 3272 1645 3428 
Q 1925 3584 2291 3584 
Q 2894 3584 3203 3211 
Q 3513 2838 3513 2113 
z
" transform="scale(0.015625)"/>
     </defs>
     <use xlink:href="#DejaVuSans-44"/>
     <use xlink:href="#DejaVuSans-72" transform="translate(77.001953 0)"/>
     <use xlink:href="#DejaVuSans-79" transform="translate(118.115234 0)"/>
     <use xlink:href="#DejaVuSans-20" transform="translate(177.294922 0)"/>
     <use xlink:href="#DejaVuSans-73" transform="translate(209.082031 0)"/>
     <use xlink:href="#DejaVuSans-65" transform="translate(261.181641 0)"/>
     <use xlink:href="#DejaVuSans-61" transform="translate(322.705078 0)"/>
     <use xlink:href="#DejaVuSans-73" transform="translate(383.984375 0)"/>
     <use xlink:href="#DejaVuSans-6f" transform="translate(436.083984 0)"/>
     <use xlink:href="#DejaVuSans-6e" transform="translate(497.265625 0)"/>
     <use xlink:href="#DejaVuSans-20" transform="translate(560.644531 0)"/>
    </g>
    <!--  (may-oct) -->
    <g transform="translate(107.820949 33.51475) scale(0.14 -0.14)">
     <defs>
      <path id="DejaVuSans-28" d="M 1984 4856 
Q 1566 4138 1362 3434 
Q 1159 2731 1159 2009 
Q 1159 1288 1364 580 
Q 1569 -128 1984 -844 
L 1484 -844 
Q 1016 -109 783 600 
Q 550 1309 550 2009 
Q 550 2706 781 3412 
Q 1013 4119 1484 4856 
L 1984 4856 
z
" transform="scale(0.015625)"/>
      <path id="DejaVuSans-6d" d="M 3328 2828 
Q 3544 3216 3844 3400 
Q 4144 3584 4550 3584 
Q 5097 3584 5394 3201 
Q 5691 2819 5691 2113 
L 5691 0 
L 5113 0 
L 5113 2094 
Q 5113 2597 4934 2840 
Q 4756 3084 4391 3084 
Q 3944 3084 3684 2787 
Q 3425 2491 3425 1978 
L 3425 0 
L 2847 0 
L 2847 2094 
Q 2847 2600 2669 2842 
Q 2491 3084 2119 3084 
Q 1678 3084 1418 2786 
Q 1159 2488 1159 1978 
L 1159 0 
L 581 0 
L 581 3500 
L 1159 3500 
L 1159 2956 
Q 1356 3278 1631 3431 
Q 1906 3584 2284 3584 
Q 2666 3584 2933 3390 
Q 3200 3197 3328 2828 
z
" transform="scale(0.015625)"/>
      <path id="DejaVuSans-63" d="M 3122 3366 
L 3122 2828 
Q 2878 2963 2633 3030 
Q 2388 3097 2138 3097 
Q 1578 3097 1268 2742 
Q 959 2388 959 1747 
Q 959 1106 1268 751 
Q 1578 397 2138 397 
Q 2388 397 2633 464 
Q 2878 531 3122 666 
L 3122 134 
Q 2881 22 2623 -34 
Q 2366 -91 2075 -91 
Q 1284 -91 818 406 
Q 353 903 353 1747 
Q 353 2603 823 3093 
Q 1294 3584 2113 3584 
Q 2378 3584 2631 3529 
Q 2884 3475 3122 3366 
z
" transform="scale(0.015625)"/>
      <path id="DejaVuSans-29" d="M 513 4856 
L 1013 4856 
Q 1481 4119 1714 3412 
Q 1947 2706 1947 2009 
Q 1947 1309 1714 600 
Q 1481 -109 1013 -844 
L 513 -844 
Q 928 -128 1133 580 
Q 1338 1288 1338 2009 
Q 1338 2731 1133 3434 
Q 928 4138 513 4856 
z
" transform="scale(0.015625)"/>
     </defs>
     <use xlink:href="#DejaVuSans-20"/>
     <use xlink:href="#DejaVuSans-28" transform="translate(31.787109 0)"/>
     <use xlink:href="#DejaVuSans-6d" transform="translate(70.800781 0)"/>
     <use xlink:href="#DejaVuSans-61" transform="translate(168.212891 0)"/>
     <use xlink:href="#DejaVuSans-79" transform="translate(229.492188 0)"/>
     <use xlink:href="#DejaVuSans-2d" transform="translate(286.921875 0)"/>
     <use xlink:href="#DejaVuSans-6f" transform="translate(324.880859 0)"/>
     <use xlink:href="#DejaVuSans-63" transform="translate(386.0625 0)"/>
     <use xlink:href="#DejaVuSans-74" transform="translate(441.042969 0)"/>
     <use xlink:href="#DejaVuSans-29" transform="translate(480.251953 0)"/>
    </g>
   </g>
  </g>
  <g id="axes_2">
   <g id="patch_7">
    <path d="M 248.964665 150.39475 
L 439.50125 150.39475 
L 439.50125 39.51475 
L 248.964665 39.51475 
z
" style="fill: #ffffff"/>
   </g>
   <g id="matplotlib.axis_3">
    <g id="xtick_13">
     <g id="line2d_20">
      <g>
       <use xlink:href="#m6b4738f4a1" x="248.964665" y="150.39475" style="stroke: #000000; stroke-width: 0.8"/>
      </g>
     </g>
     <g id="text_23">
      <!-- 1-2 -->
      <g transform="translate(251.72404 173.727562) rotate(-90) scale(0.1 -0.1)">
       <use xlink:href="#DejaVuSans-31"/>
       <use xlink:href="#DejaVuSans-2d" transform="translate(63.623047 0)"/>
       <use xlink:href="#DejaVuSans-32" transform="translate(99.707031 0)"/>
      </g>
     </g>
    </g>
    <g id="xtick_14">
     <g id="line2d_21">
      <g>
       <use xlink:href="#m6b4738f4a1" x="266.286172" y="150.39475" style="stroke: #000000; stroke-width: 0.8"/>
      </g>
     </g>
     <g id="text_24">
      <!-- 3-4 -->
      <g transform="translate(269.045547 173.727562) rotate(-90) scale(0.1 -0.1)">
       <use xlink:href="#DejaVuSans-33"/>
       <use xlink:href="#DejaVuSans-2d" transform="translate(63.623047 0)"/>
       <use xlink:href="#DejaVuSans-34" transform="translate(99.707031 0)"/>
      </g>
     </g>
    </g>
    <g id="xtick_15">
     <g id="line2d_22">
      <g>
       <use xlink:href="#m6b4738f4a1" x="283.60768" y="150.39475" style="stroke: #000000; stroke-width: 0.8"/>
      </g>
     </g>
     <g id="text_25">
      <!-- 5-6 -->
      <g transform="translate(286.367055 173.727562) rotate(-90) scale(0.1 -0.1)">
       <use xlink:href="#DejaVuSans-35"/>
       <use xlink:href="#DejaVuSans-2d" transform="translate(63.623047 0)"/>
       <use xlink:href="#DejaVuSans-36" transform="translate(99.707031 0)"/>
      </g>
     </g>
    </g>
    <g id="xtick_16">
     <g id="line2d_23">
      <g>
       <use xlink:href="#m6b4738f4a1" x="300.929188" y="150.39475" style="stroke: #000000; stroke-width: 0.8"/>
      </g>
     </g>
     <g id="text_26">
      <!-- 7-8 -->
      <g transform="translate(303.688563 173.727562) rotate(-90) scale(0.1 -0.1)">
       <use xlink:href="#DejaVuSans-37"/>
       <use xlink:href="#DejaVuSans-2d" transform="translate(63.623047 0)"/>
       <use xlink:href="#DejaVuSans-38" transform="translate(99.707031 0)"/>
      </g>
     </g>
    </g>
    <g id="xtick_17">
     <g id="line2d_24">
      <g>
       <use xlink:href="#m6b4738f4a1" x="318.250696" y="150.39475" style="stroke: #000000; stroke-width: 0.8"/>
      </g>
     </g>
     <g id="text_27">
      <!-- 9-10 -->
      <g transform="translate(321.010071 180.090062) rotate(-90) scale(0.1 -0.1)">
       <use xlink:href="#DejaVuSans-39"/>
       <use xlink:href="#DejaVuSans-2d" transform="translate(63.623047 0)"/>
       <use xlink:href="#DejaVuSans-31" transform="translate(99.707031 0)"/>
       <use xlink:href="#DejaVuSans-30" transform="translate(163.330078 0)"/>
      </g>
     </g>
    </g>
    <g id="xtick_18">
     <g id="line2d_25">
      <g>
       <use xlink:href="#m6b4738f4a1" x="335.572203" y="150.39475" style="stroke: #000000; stroke-width: 0.8"/>
      </g>
     </g>
     <g id="text_28">
      <!-- 11-12 -->
      <g transform="translate(338.331578 186.452562) rotate(-90) scale(0.1 -0.1)">
       <use xlink:href="#DejaVuSans-31"/>
       <use xlink:href="#DejaVuSans-31" transform="translate(63.623047 0)"/>
       <use xlink:href="#DejaVuSans-2d" transform="translate(127.246094 0)"/>
       <use xlink:href="#DejaVuSans-31" transform="translate(163.330078 0)"/>
       <use xlink:href="#DejaVuSans-32" transform="translate(226.953125 0)"/>
      </g>
     </g>
    </g>
    <g id="xtick_19">
     <g id="line2d_26">
      <g>
       <use xlink:href="#m6b4738f4a1" x="352.893711" y="150.39475" style="stroke: #000000; stroke-width: 0.8"/>
      </g>
     </g>
     <g id="text_29">
      <!-- 13-14 -->
      <g transform="translate(355.653086 186.452562) rotate(-90) scale(0.1 -0.1)">
       <use xlink:href="#DejaVuSans-31"/>
       <use xlink:href="#DejaVuSans-33" transform="translate(63.623047 0)"/>
       <use xlink:href="#DejaVuSans-2d" transform="translate(127.246094 0)"/>
       <use xlink:href="#DejaVuSans-31" transform="translate(163.330078 0)"/>
       <use xlink:href="#DejaVuSans-34" transform="translate(226.953125 0)"/>
      </g>
     </g>
    </g>
    <g id="xtick_20">
     <g id="line2d_27">
      <g>
       <use xlink:href="#m6b4738f4a1" x="370.215219" y="150.39475" style="stroke: #000000; stroke-width: 0.8"/>
      </g>
     </g>
     <g id="text_30">
      <!-- 15-16 -->
      <g transform="translate(372.974594 186.452562) rotate(-90) scale(0.1 -0.1)">
       <use xlink:href="#DejaVuSans-31"/>
       <use xlink:href="#DejaVuSans-35" transform="translate(63.623047 0)"/>
       <use xlink:href="#DejaVuSans-2d" transform="translate(127.246094 0)"/>
       <use xlink:href="#DejaVuSans-31" transform="translate(163.330078 0)"/>
       <use xlink:href="#DejaVuSans-36" transform="translate(226.953125 0)"/>
      </g>
     </g>
    </g>
    <g id="xtick_21">
     <g id="line2d_28">
      <g>
       <use xlink:href="#m6b4738f4a1" x="387.536727" y="150.39475" style="stroke: #000000; stroke-width: 0.8"/>
      </g>
     </g>
     <g id="text_31">
      <!-- 17-18 -->
      <g transform="translate(390.296102 186.452562) rotate(-90) scale(0.1 -0.1)">
       <use xlink:href="#DejaVuSans-31"/>
       <use xlink:href="#DejaVuSans-37" transform="translate(63.623047 0)"/>
       <use xlink:href="#DejaVuSans-2d" transform="translate(127.246094 0)"/>
       <use xlink:href="#DejaVuSans-31" transform="translate(163.330078 0)"/>
       <use xlink:href="#DejaVuSans-38" transform="translate(226.953125 0)"/>
      </g>
     </g>
    </g>
    <g id="xtick_22">
     <g id="line2d_29">
      <g>
       <use xlink:href="#m6b4738f4a1" x="404.858234" y="150.39475" style="stroke: #000000; stroke-width: 0.8"/>
      </g>
     </g>
     <g id="text_32">
      <!-- 19-20 -->
      <g transform="translate(407.617609 186.452562) rotate(-90) scale(0.1 -0.1)">
       <use xlink:href="#DejaVuSans-31"/>
       <use xlink:href="#DejaVuSans-39" transform="translate(63.623047 0)"/>
       <use xlink:href="#DejaVuSans-2d" transform="translate(127.246094 0)"/>
       <use xlink:href="#DejaVuSans-32" transform="translate(163.330078 0)"/>
       <use xlink:href="#DejaVuSans-30" transform="translate(226.953125 0)"/>
      </g>
     </g>
    </g>
    <g id="xtick_23">
     <g id="line2d_30">
      <g>
       <use xlink:href="#m6b4738f4a1" x="422.179742" y="150.39475" style="stroke: #000000; stroke-width: 0.8"/>
      </g>
     </g>
     <g id="text_33">
      <!-- 21-22 -->
      <g transform="translate(424.939117 186.452562) rotate(-90) scale(0.1 -0.1)">
       <use xlink:href="#DejaVuSans-32"/>
       <use xlink:href="#DejaVuSans-31" transform="translate(63.623047 0)"/>
       <use xlink:href="#DejaVuSans-2d" transform="translate(127.246094 0)"/>
       <use xlink:href="#DejaVuSans-32" transform="translate(163.330078 0)"/>
       <use xlink:href="#DejaVuSans-32" transform="translate(226.953125 0)"/>
      </g>
     </g>
    </g>
    <g id="xtick_24">
     <g id="line2d_31">
      <g>
       <use xlink:href="#m6b4738f4a1" x="439.50125" y="150.39475" style="stroke: #000000; stroke-width: 0.8"/>
      </g>
     </g>
     <g id="text_34">
      <!-- 23-24 -->
      <g transform="translate(442.260625 186.452562) rotate(-90) scale(0.1 -0.1)">
       <use xlink:href="#DejaVuSans-32"/>
       <use xlink:href="#DejaVuSans-33" transform="translate(63.623047 0)"/>
       <use xlink:href="#DejaVuSans-2d" transform="translate(127.246094 0)"/>
       <use xlink:href="#DejaVuSans-32" transform="translate(163.330078 0)"/>
       <use xlink:href="#DejaVuSans-34" transform="translate(226.953125 0)"/>
      </g>
     </g>
    </g>
    <g id="text_35">
     <!-- hours -->
     <g transform="translate(327.36452 199.570687) scale(0.12 -0.12)">
      <use xlink:href="#DejaVuSans-68"/>
      <use xlink:href="#DejaVuSans-6f" transform="translate(63.378906 0)"/>
      <use xlink:href="#DejaVuSans-75" transform="translate(124.560547 0)"/>
      <use xlink:href="#DejaVuSans-72" transform="translate(187.939453 0)"/>
      <use xlink:href="#DejaVuSans-73" transform="translate(229.052734 0)"/>
     </g>
    </g>
   </g>
   <g id="matplotlib.axis_4">
    <g id="ytick_6">
     <g id="line2d_32">
      <defs>
       <path id="me98ae4cb60" d="M 0 0 
L -3.5 0 
" style="stroke: #ffffff; stroke-width: 0.8"/>
      </defs>
      <g>
       <use xlink:href="#me98ae4cb60" x="248.964665" y="149.036507" style="fill: #ffffff; stroke: #ffffff; stroke-width: 0.8"/>
      </g>
     </g>
    </g>
    <g id="ytick_7">
     <g id="line2d_33">
      <g>
       <use xlink:href="#me98ae4cb60" x="248.964665" y="122.642467" style="fill: #ffffff; stroke: #ffffff; stroke-width: 0.8"/>
      </g>
     </g>
    </g>
    <g id="ytick_8">
     <g id="line2d_34">
      <g>
       <use xlink:href="#me98ae4cb60" x="248.964665" y="96.248427" style="fill: #ffffff; stroke: #ffffff; stroke-width: 0.8"/>
      </g>
     </g>
    </g>
    <g id="ytick_9">
     <g id="line2d_35">
      <g>
       <use xlink:href="#me98ae4cb60" x="248.964665" y="69.854388" style="fill: #ffffff; stroke: #ffffff; stroke-width: 0.8"/>
      </g>
     </g>
    </g>
    <g id="ytick_10">
     <g id="line2d_36">
      <g>
       <use xlink:href="#me98ae4cb60" x="248.964665" y="43.460348" style="fill: #ffffff; stroke: #ffffff; stroke-width: 0.8"/>
      </g>
     </g>
    </g>
   </g>
   <g id="line2d_37">
    <path d="M 248.964665 97.111447 
L 266.286172 101.316624 
L 283.60768 101.670925 
L 300.929188 96.572243 
L 318.250696 88.696657 
L 335.572203 85.681956 
L 352.893711 90.171952 
L 370.215219 85.300259 
L 387.536727 86.147006 
L 404.858234 73.74958 
L 422.179742 69.885546 
L 439.50125 85.575417 
" clip-path="url(#p70f9639b96)" style="fill: none; stroke: #a1150b; stroke-opacity: 0.8; stroke-width: 2.5; stroke-linecap: square"/>
   </g>
   <g id="line2d_38">
    <path d="M 248.964665 96.328256 
L 266.286172 99.834348 
L 283.60768 97.982938 
L 300.929188 76.857663 
L 318.250696 119.053525 
L 335.572203 130.556245 
L 352.893711 120.01246 
L 370.215219 107.832824 
L 387.536727 54.897769 
L 404.858234 45.27891 
L 422.179742 44.55475 
L 439.50125 63.111634 
" clip-path="url(#p70f9639b96)" style="fill: none; stroke: #0000cd; stroke-opacity: 0.8; stroke-width: 2.5; stroke-linecap: square"/>
   </g>
   <g id="text_36">
    <path d="M 300.039045 93.681433 
L 300.456564 94.599722 
Q 299.935324 94.558654 299.465148 94.634429 
Q 298.994972 94.710204 298.568258 94.904218 
Q 297.612418 95.338811 297.358794 96.185323 
Q 297.106099 97.029352 297.603553 98.123447 
Q 298.101006 99.217542 298.903925 99.583674 
Q 299.707775 99.947323 300.663615 99.512731 
Q 301.090329 99.318716 301.456513 99.014223 
Q 301.822697 98.709729 302.134402 98.289945 
L 302.547265 99.197993 
Q 302.222831 99.576191 301.825921 99.871998 
Q 301.431494 100.168735 300.934799 100.394568 
Q 299.584675 101.00843 298.40358 100.521766 
Q 297.22419 100.034325 296.569198 98.593738 
Q 295.904892 97.132669 296.326846 95.931562 
Q 296.749731 94.727972 298.147646 94.092381 
Q 298.599963 93.886725 299.074481 93.78426 
Q 299.548223 93.680087 300.039045 93.681433 
z
M 303.185246 96.339466 
L 301.540779 92.722637 
L 302.522221 92.276404 
L 304.149615 95.855682 
Q 304.535316 96.70399 305.057977 96.979218 
Q 305.58157 97.251963 306.24383 96.950853 
Q 307.037518 96.589986 307.26788 95.873514 
Q 307.499949 95.156266 307.101832 94.280648 
L 305.562133 90.894245 
L 306.543575 90.448012 
L 309.259778 96.422009 
L 308.278335 96.868243 
L 307.860816 95.949954 
Q 307.751646 96.656637 307.399136 97.136168 
Q 307.048332 97.614923 306.423623 97.89896 
Q 305.394388 98.366923 304.56912 97.969758 
Q 303.745559 97.571817 303.185246 96.339466 
z
M 303.945411 91.456306 
L 303.945411 91.456306 
z
M 312.443168 88.871701 
Q 312.234144 88.851395 312.019384 88.895487 
Q 311.803849 88.937873 311.57001 89.044193 
Q 310.737064 89.422909 310.537585 90.166534 
Q 310.338106 90.910158 310.799084 91.924031 
L 312.230135 95.071474 
L 311.243572 95.520036 
L 308.527369 89.546038 
L 309.513932 89.097477 
L 309.936108 90.026007 
Q 309.999193 89.340277 310.374668 88.852364 
Q 310.751075 88.361968 311.461127 88.039128 
Q 311.561831 87.993341 311.690934 87.95112 
Q 311.81926 87.907191 311.980173 87.866984 
L 312.443168 88.871701 
z
M 316.743166 86.916617 
Q 316.534142 86.896311 316.319383 86.940403 
Q 316.103847 86.982789 315.870008 87.089109 
Q 315.037062 87.467825 314.837583 88.21145 
Q 314.638104 88.955074 315.099082 89.968947 
L 316.530133 93.11639 
L 315.54357 93.564952 
L 312.827367 87.590954 
L 313.81393 87.142393 
L 314.236106 88.070923 
Q 314.299191 87.385193 314.674667 86.89728 
Q 315.051073 86.406884 315.761125 86.084044 
Q 315.86183 86.038257 315.990932 85.996036 
Q 316.119258 85.952107 316.280171 85.9119 
L 316.743166 86.916617 
z
M 323.466974 86.061325 
L 323.685046 86.540951 
L 319.172118 88.592848 
Q 319.697957 89.577231 320.485505 89.859725 
Q 321.273053 90.142219 322.249375 89.698313 
Q 322.814344 89.441438 323.282316 89.061829 
Q 323.750288 88.682219 324.147795 88.165752 
L 324.569971 89.094282 
Q 324.142509 89.558458 323.641329 89.92845 
Q 323.140148 90.298442 322.570058 90.557645 
Q 321.139712 91.207982 319.927119 90.756235 
Q 318.71375 90.302782 318.06807 88.882677 
Q 317.401436 87.416487 317.802284 86.196141 
Q 318.202357 84.974087 319.547359 84.362554 
Q 320.7524 83.814657 321.807025 84.272317 
Q 322.860873 84.72827 323.466974 86.061325 
z
M 322.354378 86.219099 
Q 321.978613 85.419826 321.320172 85.140422 
Q 320.660955 84.859312 319.935541 85.189136 
Q 319.114543 85.56242 318.832349 86.250966 
Q 318.550155 86.939512 318.858426 87.816845 
L 322.354378 86.219099 
z
M 329.874389 82.696984 
L 331.514199 86.303571 
L 330.532757 86.749805 
L 328.907691 83.175647 
Q 328.521991 82.327339 327.99995 82.058008 
Q 327.477134 81.78697 326.81658 82.087304 
Q 326.021185 82.448947 325.79253 83.164643 
Q 325.563099 83.878632 325.961217 84.75425 
L 327.496259 88.130412 
L 326.509696 88.578973 
L 323.793493 82.604976 
L 324.780056 82.156414 
L 325.202232 83.084944 
Q 325.310317 82.384933 325.665465 81.902144 
Q 326.022319 81.418578 326.647029 81.134541 
Q 327.676263 80.666578 328.493152 81.063433 
Q 329.311747 81.459513 329.874389 82.696984 
z
M 330.95428 77.301825 
L 331.725682 78.99844 
L 333.7466 78.079588 
L 334.093498 78.842552 
L 332.07258 79.761405 
L 333.54709 83.004432 
Q 333.879243 83.734967 334.173624 83.852405 
Q 334.468005 83.969842 335.082474 83.690461 
L 336.089519 83.232587 
L 336.462803 84.053585 
L 335.455758 84.511459 
Q 334.318991 85.028314 333.694694 84.801356 
Q 333.069621 84.572692 332.560527 83.452994 
L 331.086017 80.209967 
L 330.365723 80.537463 
L 330.018826 79.774498 
L 330.739119 79.447002 
L 329.967717 77.750386 
L 330.95428 77.301825 
z
" clip-path="url(#p70f9639b96)" style="fill: #a1150b; stroke: #ffffff; stroke-width: 5"/>
    <path d="M 300.039045 93.681433 
L 300.456564 94.599722 
Q 299.935324 94.558654 299.465148 94.634429 
Q 298.994972 94.710204 298.568258 94.904218 
Q 297.612418 95.338811 297.358794 96.185323 
Q 297.106099 97.029352 297.603553 98.123447 
Q 298.101006 99.217542 298.903925 99.583674 
Q 299.707775 99.947323 300.663615 99.512731 
Q 301.090329 99.318716 301.456513 99.014223 
Q 301.822697 98.709729 302.134402 98.289945 
L 302.547265 99.197993 
Q 302.222831 99.576191 301.825921 99.871998 
Q 301.431494 100.168735 300.934799 100.394568 
Q 299.584675 101.00843 298.40358 100.521766 
Q 297.22419 100.034325 296.569198 98.593738 
Q 295.904892 97.132669 296.326846 95.931562 
Q 296.749731 94.727972 298.147646 94.092381 
Q 298.599963 93.886725 299.074481 93.78426 
Q 299.548223 93.680087 300.039045 93.681433 
z
M 303.185246 96.339466 
L 301.540779 92.722637 
L 302.522221 92.276404 
L 304.149615 95.855682 
Q 304.535316 96.70399 305.057977 96.979218 
Q 305.58157 97.251963 306.24383 96.950853 
Q 307.037518 96.589986 307.26788 95.873514 
Q 307.499949 95.156266 307.101832 94.280648 
L 305.562133 90.894245 
L 306.543575 90.448012 
L 309.259778 96.422009 
L 308.278335 96.868243 
L 307.860816 95.949954 
Q 307.751646 96.656637 307.399136 97.136168 
Q 307.048332 97.614923 306.423623 97.89896 
Q 305.394388 98.366923 304.56912 97.969758 
Q 303.745559 97.571817 303.185246 96.339466 
z
M 303.945411 91.456306 
L 303.945411 91.456306 
z
M 312.443168 88.871701 
Q 312.234144 88.851395 312.019384 88.895487 
Q 311.803849 88.937873 311.57001 89.044193 
Q 310.737064 89.422909 310.537585 90.166534 
Q 310.338106 90.910158 310.799084 91.924031 
L 312.230135 95.071474 
L 311.243572 95.520036 
L 308.527369 89.546038 
L 309.513932 89.097477 
L 309.936108 90.026007 
Q 309.999193 89.340277 310.374668 88.852364 
Q 310.751075 88.361968 311.461127 88.039128 
Q 311.561831 87.993341 311.690934 87.95112 
Q 311.81926 87.907191 311.980173 87.866984 
L 312.443168 88.871701 
z
M 316.743166 86.916617 
Q 316.534142 86.896311 316.319383 86.940403 
Q 316.103847 86.982789 315.870008 87.089109 
Q 315.037062 87.467825 314.837583 88.21145 
Q 314.638104 88.955074 315.099082 89.968947 
L 316.530133 93.11639 
L 315.54357 93.564952 
L 312.827367 87.590954 
L 313.81393 87.142393 
L 314.236106 88.070923 
Q 314.299191 87.385193 314.674667 86.89728 
Q 315.051073 86.406884 315.761125 86.084044 
Q 315.86183 86.038257 315.990932 85.996036 
Q 316.119258 85.952107 316.280171 85.9119 
L 316.743166 86.916617 
z
M 323.466974 86.061325 
L 323.685046 86.540951 
L 319.172118 88.592848 
Q 319.697957 89.577231 320.485505 89.859725 
Q 321.273053 90.142219 322.249375 89.698313 
Q 322.814344 89.441438 323.282316 89.061829 
Q 323.750288 88.682219 324.147795 88.165752 
L 324.569971 89.094282 
Q 324.142509 89.558458 323.641329 89.92845 
Q 323.140148 90.298442 322.570058 90.557645 
Q 321.139712 91.207982 319.927119 90.756235 
Q 318.71375 90.302782 318.06807 88.882677 
Q 317.401436 87.416487 317.802284 86.196141 
Q 318.202357 84.974087 319.547359 84.362554 
Q 320.7524 83.814657 321.807025 84.272317 
Q 322.860873 84.72827 323.466974 86.061325 
z
M 322.354378 86.219099 
Q 321.978613 85.419826 321.320172 85.140422 
Q 320.660955 84.859312 319.935541 85.189136 
Q 319.114543 85.56242 318.832349 86.250966 
Q 318.550155 86.939512 318.858426 87.816845 
L 322.354378 86.219099 
z
M 329.874389 82.696984 
L 331.514199 86.303571 
L 330.532757 86.749805 
L 328.907691 83.175647 
Q 328.521991 82.327339 327.99995 82.058008 
Q 327.477134 81.78697 326.81658 82.087304 
Q 326.021185 82.448947 325.79253 83.164643 
Q 325.563099 83.878632 325.961217 84.75425 
L 327.496259 88.130412 
L 326.509696 88.578973 
L 323.793493 82.604976 
L 324.780056 82.156414 
L 325.202232 83.084944 
Q 325.310317 82.384933 325.665465 81.902144 
Q 326.022319 81.418578 326.647029 81.134541 
Q 327.676263 80.666578 328.493152 81.063433 
Q 329.311747 81.459513 329.874389 82.696984 
z
M 330.95428 77.301825 
L 331.725682 78.99844 
L 333.7466 78.079588 
L 334.093498 78.842552 
L 332.07258 79.761405 
L 333.54709 83.004432 
Q 333.879243 83.734967 334.173624 83.852405 
Q 334.468005 83.969842 335.082474 83.690461 
L 336.089519 83.232587 
L 336.462803 84.053585 
L 335.455758 84.511459 
Q 334.318991 85.028314 333.694694 84.801356 
Q 333.069621 84.572692 332.560527 83.452994 
L 331.086017 80.209967 
L 330.365723 80.537463 
L 330.018826 79.774498 
L 330.739119 79.447002 
L 329.967717 77.750386 
L 330.95428 77.301825 
z
" clip-path="url(#p70f9639b96)" style="fill: #a1150b"/>
   </g>
   <g id="text_37">
    <path d="M 364.057076 120.249471 
Q 363.491604 119.638305 363.338647 118.996405 
Q 363.18569 118.354505 363.422436 117.631004 
Q 363.7414 116.656239 364.5971 116.350312 
Q 365.451018 116.043802 366.709125 116.455482 
L 370.474536 117.687607 
L 370.137495 118.717615 
L 366.405942 117.49657 
Q 365.509585 117.203262 364.972176 117.380547 
Q 364.433568 117.555466 364.220731 118.205904 
Q 363.960078 119.002468 364.337728 119.638979 
Q 364.714179 120.273125 365.628356 120.572263 
L 369.153194 121.725668 
L 368.816153 122.755676 
L 365.0846 121.53463 
Q 364.182897 121.239573 363.647854 121.415659 
Q 363.11281 121.591745 362.89589 122.254657 
Q 362.638736 123.040528 363.018168 123.677622 
Q 363.398183 124.312935 364.307014 124.610324 
L 367.831853 125.763728 
L 367.494811 126.793736 
L 361.257736 124.752829 
L 361.594778 123.722821 
L 362.564197 124.040036 
Q 362.10526 123.501214 361.992968 122.921942 
Q 361.880676 122.342669 362.101094 121.669065 
Q 362.323844 120.988333 362.825249 120.625658 
Q 363.324871 120.262399 364.057076 120.249471 
z
M 368.936169 111.783844 
Q 368.529736 113.025913 368.65622 113.597993 
Q 368.782703 114.170072 369.468781 114.394572 
Q 370.014079 114.573005 370.452633 114.317998 
Q 370.889404 114.062407 371.091162 113.445828 
Q 371.370475 112.59224 370.934891 111.879559 
Q 370.499306 111.166879 369.49781 110.839167 
L 369.269711 110.764528 
L 368.936169 111.783844 
z
M 369.180882 109.601084 
L 372.739579 110.765568 
L 372.404287 111.79023 
L 371.458033 111.480595 
Q 371.909842 112.017084 372.009273 112.629632 
Q 372.108704 113.24218 371.86088 113.999539 
Q 371.547746 114.956485 370.824145 115.347067 
Q 370.101127 115.735866 369.199424 115.440809 
Q 368.148031 115.096771 367.843756 114.217937 
Q 367.540063 113.337322 367.997227 111.940217 
L 368.467802 110.502126 
L 368.366226 110.468888 
Q 367.658764 110.237391 367.119872 110.575962 
Q 366.58098 110.914534 366.305749 111.755648 
Q 366.130814 112.290254 366.092931 112.840115 
Q 366.055632 113.388193 366.159466 113.939052 
L 365.211431 113.628834 
Q 365.177706 112.996357 365.24397 112.432109 
Q 365.308453 111.867279 365.472308 111.366531 
Q 365.915477 110.012195 366.836262 109.573684 
Q 367.755265 109.134591 369.180882 109.601084 
z
M 371.361373 102.23807 
L 375.126784 103.470195 
L 374.791492 104.494857 
L 371.05994 103.273811 
Q 370.174275 102.984003 369.622773 103.186268 
Q 369.069489 103.38795 368.843823 104.077593 
Q 368.572091 104.908015 368.944493 105.560564 
Q 369.315113 106.21253 370.22929 106.511669 
L 373.754128 107.665073 
L 373.417087 108.695082 
L 367.180012 106.654174 
L 367.517053 105.624166 
L 368.486473 105.941381 
Q 368.044059 105.388238 367.928754 104.800088 
Q 367.814031 104.210156 368.027451 103.557936 
Q 368.379071 102.483377 369.223947 102.150235 
Q 370.069408 101.81531 371.361373 102.23807 
z
M 373.588344 97.566655 
Q 373.181912 98.808724 373.308395 99.380803 
Q 373.434878 99.952882 374.120956 100.177382 
Q 374.666255 100.355816 375.104808 100.100808 
Q 375.54158 99.845218 375.743338 99.228639 
Q 376.022651 98.37505 375.587066 97.66237 
Q 375.151481 96.949689 374.149985 96.621978 
L 373.921887 96.547339 
L 373.588344 97.566655 
z
M 373.833057 95.383895 
L 377.391754 96.548378 
L 377.056462 97.57304 
L 376.110209 97.263406 
Q 376.562018 97.799895 376.661449 98.412443 
Q 376.76088 99.024991 376.513055 99.78235 
Q 376.199922 100.739295 375.47632 101.129877 
Q 374.753302 101.518677 373.851599 101.22362 
Q 372.800207 100.879581 372.495931 100.000748 
Q 372.192239 99.120132 372.649402 97.723028 
L 373.119977 96.284936 
L 373.018402 96.251699 
Q 372.310939 96.020202 371.772047 96.358773 
Q 371.233155 96.697344 370.957924 97.538458 
Q 370.782989 98.073065 370.745107 98.622925 
Q 370.707807 99.171004 370.811642 99.721862 
L 369.863606 99.411644 
Q 369.829881 98.779167 369.896146 98.21492 
Q 369.960628 97.650089 370.124484 97.149341 
Q 370.567652 95.795005 371.488437 95.356495 
Q 372.40744 94.917402 373.833057 95.383895 
z
M 376.233408 89.290331 
Q 375.119644 88.925883 374.357967 89.185636 
Q 373.595091 89.443023 373.323358 90.273445 
Q 373.053959 91.096739 373.51653 91.757093 
Q 373.977319 92.416863 375.091083 92.781311 
Q 376.1995 93.144009 376.962959 92.88484 
Q 377.726419 92.62567 377.995819 91.802376 
Q 378.267551 90.971954 377.804396 90.313383 
Q 377.341825 89.653029 376.233408 89.290331 
z
M 378.986903 89.056957 
Q 380.578248 89.57768 381.123712 90.539382 
Q 381.669759 91.499301 381.192187 92.958776 
Q 381.015503 93.498729 380.778453 93.951852 
Q 380.541404 94.404976 380.226366 94.801014 
L 379.230216 94.475052 
Q 379.621881 94.104088 379.881742 93.701831 
Q 380.143385 93.300157 380.292663 92.84396 
Q 380.622707 91.835336 380.260866 91.162569 
Q 379.899026 90.489801 378.835159 90.141681 
L 378.327283 89.975493 
Q 378.775915 90.473458 378.886458 91.058077 
Q 378.997001 91.642696 378.770751 92.33412 
Q 378.395808 93.47996 377.292869 93.896349 
Q 376.188149 94.312156 374.744712 93.839831 
Q 373.29771 93.366341 372.654268 92.378497 
Q 372.009043 91.390071 372.383987 90.244231 
Q 372.610236 89.552807 373.044991 89.146622 
Q 373.479747 88.740437 374.134186 88.60342 
L 373.187933 88.293785 
L 373.523225 87.269123 
L 378.986903 89.056957 
z
M 378.821703 80.759431 
L 379.322451 80.923287 
L 377.780691 85.634951 
Q 378.861371 85.913606 379.602176 85.524708 
Q 380.342982 85.13581 380.676525 84.116494 
Q 380.869536 83.526645 380.906542 82.925204 
Q 380.943547 82.323763 380.832095 81.681634 
L 381.801514 81.99885 
Q 381.854193 82.627665 381.78764 83.247056 
Q 381.721086 83.866448 381.526325 84.461644 
Q 381.037674 85.954978 379.884686 86.542408 
Q 378.729915 87.129256 377.247273 86.644103 
Q 375.716517 86.143206 375.088944 85.022458 
Q 374.459589 83.901126 374.919085 82.496893 
Q 375.330765 81.238786 376.381246 80.771693 
Q 377.429944 80.304017 378.821703 80.759431 
z
M 378.18525 81.685547 
Q 377.342419 81.421591 376.691227 81.717497 
Q 376.038253 82.01282 375.790428 82.770179 
Q 375.509949 83.627331 375.826138 84.300943 
Q 376.142328 84.974555 376.996989 85.341023 
L 378.18525 81.685547 
z
M 378.799117 74.347248 
L 375.423969 73.242826 
L 375.759261 72.218164 
L 384.425231 75.053859 
L 384.089939 76.078521 
L 383.154378 75.772385 
Q 383.604824 76.276863 383.714168 76.859117 
Q 383.824096 77.439588 383.597846 78.131013 
Q 383.228151 79.260814 382.093784 79.676784 
Q 380.958219 80.090388 379.488052 79.609317 
Q 378.017884 79.128246 377.348261 78.123945 
Q 376.679222 77.117861 377.048918 75.98806 
Q 377.275167 75.296636 377.706974 74.893431 
Q 378.137583 74.487862 378.799117 74.347248 
z
M 379.834423 78.550797 
Q 380.964224 78.920492 381.759727 78.66589 
Q 382.55523 78.411287 382.821131 77.598685 
Q 383.087033 76.786084 382.596499 76.108689 
Q 382.106549 75.429512 380.976748 75.059817 
Q 379.846946 74.690121 379.050277 74.948288 
Q 378.25419 75.204672 377.988289 76.017274 
Q 377.722388 76.829876 378.213505 77.505488 
Q 378.704621 78.181101 379.834423 78.550797 
z
" clip-path="url(#p70f9639b96)" style="fill: #0000cd; stroke: #ffffff; stroke-width: 5"/>
    <path d="M 364.057076 120.249471 
Q 363.491604 119.638305 363.338647 118.996405 
Q 363.18569 118.354505 363.422436 117.631004 
Q 363.7414 116.656239 364.5971 116.350312 
Q 365.451018 116.043802 366.709125 116.455482 
L 370.474536 117.687607 
L 370.137495 118.717615 
L 366.405942 117.49657 
Q 365.509585 117.203262 364.972176 117.380547 
Q 364.433568 117.555466 364.220731 118.205904 
Q 363.960078 119.002468 364.337728 119.638979 
Q 364.714179 120.273125 365.628356 120.572263 
L 369.153194 121.725668 
L 368.816153 122.755676 
L 365.0846 121.53463 
Q 364.182897 121.239573 363.647854 121.415659 
Q 363.11281 121.591745 362.89589 122.254657 
Q 362.638736 123.040528 363.018168 123.677622 
Q 363.398183 124.312935 364.307014 124.610324 
L 367.831853 125.763728 
L 367.494811 126.793736 
L 361.257736 124.752829 
L 361.594778 123.722821 
L 362.564197 124.040036 
Q 362.10526 123.501214 361.992968 122.921942 
Q 361.880676 122.342669 362.101094 121.669065 
Q 362.323844 120.988333 362.825249 120.625658 
Q 363.324871 120.262399 364.057076 120.249471 
z
M 368.936169 111.783844 
Q 368.529736 113.025913 368.65622 113.597993 
Q 368.782703 114.170072 369.468781 114.394572 
Q 370.014079 114.573005 370.452633 114.317998 
Q 370.889404 114.062407 371.091162 113.445828 
Q 371.370475 112.59224 370.934891 111.879559 
Q 370.499306 111.166879 369.49781 110.839167 
L 369.269711 110.764528 
L 368.936169 111.783844 
z
M 369.180882 109.601084 
L 372.739579 110.765568 
L 372.404287 111.79023 
L 371.458033 111.480595 
Q 371.909842 112.017084 372.009273 112.629632 
Q 372.108704 113.24218 371.86088 113.999539 
Q 371.547746 114.956485 370.824145 115.347067 
Q 370.101127 115.735866 369.199424 115.440809 
Q 368.148031 115.096771 367.843756 114.217937 
Q 367.540063 113.337322 367.997227 111.940217 
L 368.467802 110.502126 
L 368.366226 110.468888 
Q 367.658764 110.237391 367.119872 110.575962 
Q 366.58098 110.914534 366.305749 111.755648 
Q 366.130814 112.290254 366.092931 112.840115 
Q 366.055632 113.388193 366.159466 113.939052 
L 365.211431 113.628834 
Q 365.177706 112.996357 365.24397 112.432109 
Q 365.308453 111.867279 365.472308 111.366531 
Q 365.915477 110.012195 366.836262 109.573684 
Q 367.755265 109.134591 369.180882 109.601084 
z
M 371.361373 102.23807 
L 375.126784 103.470195 
L 374.791492 104.494857 
L 371.05994 103.273811 
Q 370.174275 102.984003 369.622773 103.186268 
Q 369.069489 103.38795 368.843823 104.077593 
Q 368.572091 104.908015 368.944493 105.560564 
Q 369.315113 106.21253 370.22929 106.511669 
L 373.754128 107.665073 
L 373.417087 108.695082 
L 367.180012 106.654174 
L 367.517053 105.624166 
L 368.486473 105.941381 
Q 368.044059 105.388238 367.928754 104.800088 
Q 367.814031 104.210156 368.027451 103.557936 
Q 368.379071 102.483377 369.223947 102.150235 
Q 370.069408 101.81531 371.361373 102.23807 
z
M 373.588344 97.566655 
Q 373.181912 98.808724 373.308395 99.380803 
Q 373.434878 99.952882 374.120956 100.177382 
Q 374.666255 100.355816 375.104808 100.100808 
Q 375.54158 99.845218 375.743338 99.228639 
Q 376.022651 98.37505 375.587066 97.66237 
Q 375.151481 96.949689 374.149985 96.621978 
L 373.921887 96.547339 
L 373.588344 97.566655 
z
M 373.833057 95.383895 
L 377.391754 96.548378 
L 377.056462 97.57304 
L 376.110209 97.263406 
Q 376.562018 97.799895 376.661449 98.412443 
Q 376.76088 99.024991 376.513055 99.78235 
Q 376.199922 100.739295 375.47632 101.129877 
Q 374.753302 101.518677 373.851599 101.22362 
Q 372.800207 100.879581 372.495931 100.000748 
Q 372.192239 99.120132 372.649402 97.723028 
L 373.119977 96.284936 
L 373.018402 96.251699 
Q 372.310939 96.020202 371.772047 96.358773 
Q 371.233155 96.697344 370.957924 97.538458 
Q 370.782989 98.073065 370.745107 98.622925 
Q 370.707807 99.171004 370.811642 99.721862 
L 369.863606 99.411644 
Q 369.829881 98.779167 369.896146 98.21492 
Q 369.960628 97.650089 370.124484 97.149341 
Q 370.567652 95.795005 371.488437 95.356495 
Q 372.40744 94.917402 373.833057 95.383895 
z
M 376.233408 89.290331 
Q 375.119644 88.925883 374.357967 89.185636 
Q 373.595091 89.443023 373.323358 90.273445 
Q 373.053959 91.096739 373.51653 91.757093 
Q 373.977319 92.416863 375.091083 92.781311 
Q 376.1995 93.144009 376.962959 92.88484 
Q 377.726419 92.62567 377.995819 91.802376 
Q 378.267551 90.971954 377.804396 90.313383 
Q 377.341825 89.653029 376.233408 89.290331 
z
M 378.986903 89.056957 
Q 380.578248 89.57768 381.123712 90.539382 
Q 381.669759 91.499301 381.192187 92.958776 
Q 381.015503 93.498729 380.778453 93.951852 
Q 380.541404 94.404976 380.226366 94.801014 
L 379.230216 94.475052 
Q 379.621881 94.104088 379.881742 93.701831 
Q 380.143385 93.300157 380.292663 92.84396 
Q 380.622707 91.835336 380.260866 91.162569 
Q 379.899026 90.489801 378.835159 90.141681 
L 378.327283 89.975493 
Q 378.775915 90.473458 378.886458 91.058077 
Q 378.997001 91.642696 378.770751 92.33412 
Q 378.395808 93.47996 377.292869 93.896349 
Q 376.188149 94.312156 374.744712 93.839831 
Q 373.29771 93.366341 372.654268 92.378497 
Q 372.009043 91.390071 372.383987 90.244231 
Q 372.610236 89.552807 373.044991 89.146622 
Q 373.479747 88.740437 374.134186 88.60342 
L 373.187933 88.293785 
L 373.523225 87.269123 
L 378.986903 89.056957 
z
M 378.821703 80.759431 
L 379.322451 80.923287 
L 377.780691 85.634951 
Q 378.861371 85.913606 379.602176 85.524708 
Q 380.342982 85.13581 380.676525 84.116494 
Q 380.869536 83.526645 380.906542 82.925204 
Q 380.943547 82.323763 380.832095 81.681634 
L 381.801514 81.99885 
Q 381.854193 82.627665 381.78764 83.247056 
Q 381.721086 83.866448 381.526325 84.461644 
Q 381.037674 85.954978 379.884686 86.542408 
Q 378.729915 87.129256 377.247273 86.644103 
Q 375.716517 86.143206 375.088944 85.022458 
Q 374.459589 83.901126 374.919085 82.496893 
Q 375.330765 81.238786 376.381246 80.771693 
Q 377.429944 80.304017 378.821703 80.759431 
z
M 378.18525 81.685547 
Q 377.342419 81.421591 376.691227 81.717497 
Q 376.038253 82.01282 375.790428 82.770179 
Q 375.509949 83.627331 375.826138 84.300943 
Q 376.142328 84.974555 376.996989 85.341023 
L 378.18525 81.685547 
z
M 378.799117 74.347248 
L 375.423969 73.242826 
L 375.759261 72.218164 
L 384.425231 75.053859 
L 384.089939 76.078521 
L 383.154378 75.772385 
Q 383.604824 76.276863 383.714168 76.859117 
Q 383.824096 77.439588 383.597846 78.131013 
Q 383.228151 79.260814 382.093784 79.676784 
Q 380.958219 80.090388 379.488052 79.609317 
Q 378.017884 79.128246 377.348261 78.123945 
Q 376.679222 77.117861 377.048918 75.98806 
Q 377.275167 75.296636 377.706974 74.893431 
Q 378.137583 74.487862 378.799117 74.347248 
z
M 379.834423 78.550797 
Q 380.964224 78.920492 381.759727 78.66589 
Q 382.55523 78.411287 382.821131 77.598685 
Q 383.087033 76.786084 382.596499 76.108689 
Q 382.106549 75.429512 380.976748 75.059817 
Q 379.846946 74.690121 379.050277 74.948288 
Q 378.25419 75.204672 377.988289 76.017274 
Q 377.722388 76.829876 378.213505 77.505488 
Q 378.704621 78.181101 379.834423 78.550797 
z
" clip-path="url(#p70f9639b96)" style="fill: #0000cd"/>
   </g>
   <g id="patch_8">
    <path d="M 248.964665 150.39475 
L 248.964665 39.51475 
" style="fill: none; stroke: #000000; stroke-width: 0.8; stroke-linejoin: miter; stroke-linecap: square"/>
   </g>
   <g id="patch_9">
    <path d="M 439.50125 150.39475 
L 439.50125 39.51475 
" style="fill: none; stroke: #000000; stroke-width: 0.8; stroke-linejoin: miter; stroke-linecap: square"/>
   </g>
   <g id="patch_10">
    <path d="M 248.964665 150.39475 
L 439.50125 150.39475 
" style="fill: none; stroke: #000000; stroke-width: 0.8; stroke-linejoin: miter; stroke-linecap: square"/>
   </g>
   <g id="patch_11">
    <path d="M 248.964665 39.51475 
L 439.50125 39.51475 
" style="fill: none; stroke: #000000; stroke-width: 0.8; stroke-linejoin: miter; stroke-linecap: square"/>
   </g>
   <g id="text_38">
    <!-- Humid season  -->
    <g transform="translate(292.266707 17.837812) scale(0.14 -0.14)">
     <defs>
      <path id="DejaVuSans-48" d="M 628 4666 
L 1259 4666 
L 1259 2753 
L 3553 2753 
L 3553 4666 
L 4184 4666 
L 4184 0 
L 3553 0 
L 3553 2222 
L 1259 2222 
L 1259 0 
L 628 0 
L 628 4666 
z
" transform="scale(0.015625)"/>
      <path id="DejaVuSans-64" d="M 2906 2969 
L 2906 4863 
L 3481 4863 
L 3481 0 
L 2906 0 
L 2906 525 
Q 2725 213 2448 61 
Q 2172 -91 1784 -91 
Q 1150 -91 751 415 
Q 353 922 353 1747 
Q 353 2572 751 3078 
Q 1150 3584 1784 3584 
Q 2172 3584 2448 3432 
Q 2725 3281 2906 2969 
z
M 947 1747 
Q 947 1113 1208 752 
Q 1469 391 1925 391 
Q 2381 391 2643 752 
Q 2906 1113 2906 1747 
Q 2906 2381 2643 2742 
Q 2381 3103 1925 3103 
Q 1469 3103 1208 2742 
Q 947 2381 947 1747 
z
" transform="scale(0.015625)"/>
     </defs>
     <use xlink:href="#DejaVuSans-48"/>
     <use xlink:href="#DejaVuSans-75" transform="translate(75.195312 0)"/>
     <use xlink:href="#DejaVuSans-6d" transform="translate(138.574219 0)"/>
     <use xlink:href="#DejaVuSans-69" transform="translate(235.986328 0)"/>
     <use xlink:href="#DejaVuSans-64" transform="translate(263.769531 0)"/>
     <use xlink:href="#DejaVuSans-20" transform="translate(327.246094 0)"/>
     <use xlink:href="#DejaVuSans-73" transform="translate(359.033203 0)"/>
     <use xlink:href="#DejaVuSans-65" transform="translate(411.132812 0)"/>
     <use xlink:href="#DejaVuSans-61" transform="translate(472.65625 0)"/>
     <use xlink:href="#DejaVuSans-73" transform="translate(533.935547 0)"/>
     <use xlink:href="#DejaVuSans-6f" transform="translate(586.035156 0)"/>
     <use xlink:href="#DejaVuSans-6e" transform="translate(647.216797 0)"/>
     <use xlink:href="#DejaVuSans-20" transform="translate(710.595703 0)"/>
    </g>
    <!--  (nov-apr) -->
    <g transform="translate(309.730614 33.51475) scale(0.14 -0.14)">
     <defs>
      <path id="DejaVuSans-70" d="M 1159 525 
L 1159 -1331 
L 581 -1331 
L 581 3500 
L 1159 3500 
L 1159 2969 
Q 1341 3281 1617 3432 
Q 1894 3584 2278 3584 
Q 2916 3584 3314 3078 
Q 3713 2572 3713 1747 
Q 3713 922 3314 415 
Q 2916 -91 2278 -91 
Q 1894 -91 1617 61 
Q 1341 213 1159 525 
z
M 3116 1747 
Q 3116 2381 2855 2742 
Q 2594 3103 2138 3103 
Q 1681 3103 1420 2742 
Q 1159 2381 1159 1747 
Q 1159 1113 1420 752 
Q 1681 391 2138 391 
Q 2594 391 2855 752 
Q 3116 1113 3116 1747 
z
" transform="scale(0.015625)"/>
     </defs>
     <use xlink:href="#DejaVuSans-20"/>
     <use xlink:href="#DejaVuSans-28" transform="translate(31.787109 0)"/>
     <use xlink:href="#DejaVuSans-6e" transform="translate(70.800781 0)"/>
     <use xlink:href="#DejaVuSans-6f" transform="translate(134.179688 0)"/>
     <use xlink:href="#DejaVuSans-76" transform="translate(195.361328 0)"/>
     <use xlink:href="#DejaVuSans-2d" transform="translate(251.916016 0)"/>
     <use xlink:href="#DejaVuSans-61" transform="translate(288 0)"/>
     <use xlink:href="#DejaVuSans-70" transform="translate(349.279297 0)"/>
     <use xlink:href="#DejaVuSans-72" transform="translate(412.755859 0)"/>
     <use xlink:href="#DejaVuSans-29" transform="translate(453.869141 0)"/>
    </g>
   </g>
  </g>
 </g>
 <defs>
  <clipPath id="p2ffb0a374b">
   <rect x="48.90125" y="39.51475" width="190.536585" height="110.88"/>
  </clipPath>
  <clipPath id="p70f9639b96">
   <rect x="248.964665" y="39.51475" width="190.536585" height="110.88"/>
  </clipPath>
 </defs>
</svg>
